%TF.GenerationSoftware,KiCad,Pcbnew,5.99.0-unknown-a8672dd2f9~128~ubuntu20.04.1*%
%TF.CreationDate,2021-05-09T18:34:12+01:00*%
%TF.ProjectId,usbpd_powerbank,75736270-645f-4706-9f77-657262616e6b,rev?*%
%TF.SameCoordinates,Original*%
%TF.FileFunction,Copper,L1,Top*%
%TF.FilePolarity,Positive*%
%FSLAX46Y46*%
G04 Gerber Fmt 4.6, Leading zero omitted, Abs format (unit mm)*
G04 Created by KiCad (PCBNEW 5.99.0-unknown-a8672dd2f9~128~ubuntu20.04.1) date 2021-05-09 18:34:12*
%MOMM*%
%LPD*%
G01*
G04 APERTURE LIST*
G04 Aperture macros list*
%AMRoundRect*
0 Rectangle with rounded corners*
0 $1 Rounding radius*
0 $2 $3 $4 $5 $6 $7 $8 $9 X,Y pos of 4 corners*
0 Add a 4 corners polygon primitive as box body*
4,1,4,$2,$3,$4,$5,$6,$7,$8,$9,$2,$3,0*
0 Add four circle primitives for the rounded corners*
1,1,$1+$1,$2,$3*
1,1,$1+$1,$4,$5*
1,1,$1+$1,$6,$7*
1,1,$1+$1,$8,$9*
0 Add four rect primitives between the rounded corners*
20,1,$1+$1,$2,$3,$4,$5,0*
20,1,$1+$1,$4,$5,$6,$7,0*
20,1,$1+$1,$6,$7,$8,$9,0*
20,1,$1+$1,$8,$9,$2,$3,0*%
%AMRotRect*
0 Rectangle, with rotation*
0 The origin of the aperture is its center*
0 $1 length*
0 $2 width*
0 $3 Rotation angle, in degrees counterclockwise*
0 Add horizontal line*
21,1,$1,$2,0,0,$3*%
G04 Aperture macros list end*
%TA.AperFunction,SMDPad,CuDef*%
%ADD10RoundRect,0.250000X-0.475000X0.250000X-0.475000X-0.250000X0.475000X-0.250000X0.475000X0.250000X0*%
%TD*%
%TA.AperFunction,SMDPad,CuDef*%
%ADD11R,0.900000X0.800000*%
%TD*%
%TA.AperFunction,SMDPad,CuDef*%
%ADD12RoundRect,0.200000X-0.335876X-0.053033X-0.053033X-0.335876X0.335876X0.053033X0.053033X0.335876X0*%
%TD*%
%TA.AperFunction,SMDPad,CuDef*%
%ADD13RoundRect,0.225000X0.225000X0.250000X-0.225000X0.250000X-0.225000X-0.250000X0.225000X-0.250000X0*%
%TD*%
%TA.AperFunction,SMDPad,CuDef*%
%ADD14RoundRect,0.200000X-0.200000X-0.275000X0.200000X-0.275000X0.200000X0.275000X-0.200000X0.275000X0*%
%TD*%
%TA.AperFunction,SMDPad,CuDef*%
%ADD15RoundRect,0.218750X0.256250X-0.218750X0.256250X0.218750X-0.256250X0.218750X-0.256250X-0.218750X0*%
%TD*%
%TA.AperFunction,SMDPad,CuDef*%
%ADD16RoundRect,0.250000X0.250000X0.475000X-0.250000X0.475000X-0.250000X-0.475000X0.250000X-0.475000X0*%
%TD*%
%TA.AperFunction,SMDPad,CuDef*%
%ADD17RoundRect,0.250000X-0.250000X-0.475000X0.250000X-0.475000X0.250000X0.475000X-0.250000X0.475000X0*%
%TD*%
%TA.AperFunction,SMDPad,CuDef*%
%ADD18R,0.800000X0.900000*%
%TD*%
%TA.AperFunction,SMDPad,CuDef*%
%ADD19RoundRect,0.225000X-0.225000X-0.250000X0.225000X-0.250000X0.225000X0.250000X-0.225000X0.250000X0*%
%TD*%
%TA.AperFunction,SMDPad,CuDef*%
%ADD20R,0.600000X1.160000*%
%TD*%
%TA.AperFunction,SMDPad,CuDef*%
%ADD21R,0.300000X1.160000*%
%TD*%
%TA.AperFunction,ComponentPad*%
%ADD22O,0.900000X2.000000*%
%TD*%
%TA.AperFunction,ComponentPad*%
%ADD23O,0.900000X1.700000*%
%TD*%
%TA.AperFunction,SMDPad,CuDef*%
%ADD24RoundRect,0.250000X-0.450000X0.262500X-0.450000X-0.262500X0.450000X-0.262500X0.450000X0.262500X0*%
%TD*%
%TA.AperFunction,ComponentPad*%
%ADD25R,1.600000X1.600000*%
%TD*%
%TA.AperFunction,ComponentPad*%
%ADD26C,1.600000*%
%TD*%
%TA.AperFunction,ComponentPad*%
%ADD27C,3.000000*%
%TD*%
%TA.AperFunction,SMDPad,CuDef*%
%ADD28RoundRect,0.200000X-0.275000X0.200000X-0.275000X-0.200000X0.275000X-0.200000X0.275000X0.200000X0*%
%TD*%
%TA.AperFunction,SMDPad,CuDef*%
%ADD29RoundRect,0.225000X-0.017678X0.335876X-0.335876X0.017678X0.017678X-0.335876X0.335876X-0.017678X0*%
%TD*%
%TA.AperFunction,SMDPad,CuDef*%
%ADD30RoundRect,0.200000X0.275000X-0.200000X0.275000X0.200000X-0.275000X0.200000X-0.275000X-0.200000X0*%
%TD*%
%TA.AperFunction,SMDPad,CuDef*%
%ADD31RoundRect,0.062500X-0.203293X-0.291682X0.291682X0.203293X0.203293X0.291682X-0.291682X-0.203293X0*%
%TD*%
%TA.AperFunction,SMDPad,CuDef*%
%ADD32RoundRect,0.062500X0.203293X-0.291682X0.291682X-0.203293X-0.203293X0.291682X-0.291682X0.203293X0*%
%TD*%
%TA.AperFunction,SMDPad,CuDef*%
%ADD33RotRect,4.400000X4.400000X45.000000*%
%TD*%
%TA.AperFunction,WasherPad*%
%ADD34C,3.200000*%
%TD*%
%TA.AperFunction,SMDPad,CuDef*%
%ADD35R,1.200000X0.900000*%
%TD*%
%TA.AperFunction,SMDPad,CuDef*%
%ADD36R,1.300000X1.150000*%
%TD*%
%TA.AperFunction,SMDPad,CuDef*%
%ADD37RoundRect,0.200000X0.200000X0.275000X-0.200000X0.275000X-0.200000X-0.275000X0.200000X-0.275000X0*%
%TD*%
%TA.AperFunction,SMDPad,CuDef*%
%ADD38RoundRect,0.218750X0.218750X0.256250X-0.218750X0.256250X-0.218750X-0.256250X0.218750X-0.256250X0*%
%TD*%
%TA.AperFunction,SMDPad,CuDef*%
%ADD39RoundRect,0.250000X0.475000X-0.250000X0.475000X0.250000X-0.475000X0.250000X-0.475000X-0.250000X0*%
%TD*%
%TA.AperFunction,SMDPad,CuDef*%
%ADD40RoundRect,0.250000X-0.662913X-0.220971X-0.220971X-0.662913X0.662913X0.220971X0.220971X0.662913X0*%
%TD*%
%TA.AperFunction,SMDPad,CuDef*%
%ADD41R,3.500000X4.000000*%
%TD*%
%TA.AperFunction,SMDPad,CuDef*%
%ADD42R,1.650000X0.400000*%
%TD*%
%TA.AperFunction,ComponentPad*%
%ADD43O,1.700000X1.350000*%
%TD*%
%TA.AperFunction,SMDPad,CuDef*%
%ADD44R,1.500000X2.000000*%
%TD*%
%TA.AperFunction,SMDPad,CuDef*%
%ADD45R,0.700000X1.825000*%
%TD*%
%TA.AperFunction,SMDPad,CuDef*%
%ADD46R,2.500000X1.430000*%
%TD*%
%TA.AperFunction,SMDPad,CuDef*%
%ADD47R,2.000000X1.350000*%
%TD*%
%TA.AperFunction,ComponentPad*%
%ADD48O,1.500000X1.100000*%
%TD*%
%TA.AperFunction,ViaPad*%
%ADD49C,0.800000*%
%TD*%
%TA.AperFunction,ViaPad*%
%ADD50C,1.200000*%
%TD*%
%TA.AperFunction,Conductor*%
%ADD51C,0.250000*%
%TD*%
%TA.AperFunction,Conductor*%
%ADD52C,1.000000*%
%TD*%
%TA.AperFunction,Conductor*%
%ADD53C,0.500000*%
%TD*%
G04 APERTURE END LIST*
D10*
%TO.P,C16,1*%
%TO.N,/VBAT*%
X84000000Y-79930000D03*
%TO.P,C16,2*%
%TO.N,GND*%
X84000000Y-81830000D03*
%TD*%
%TO.P,C3,1*%
%TO.N,/VBUS*%
X115340000Y-60930000D03*
%TO.P,C3,2*%
%TO.N,GND*%
X115340000Y-62830000D03*
%TD*%
D11*
%TO.P,Q4,1,G*%
%TO.N,/VING*%
X84550000Y-77300000D03*
%TO.P,Q4,2,S*%
%TO.N,/VMID*%
X84550000Y-75400000D03*
%TO.P,Q4,3,D*%
%TO.N,/VIN*%
X82550000Y-76350000D03*
%TD*%
D12*
%TO.P,R6,1*%
%TO.N,Net-(R6-Pad1)*%
X114736637Y-74966637D03*
%TO.P,R6,2*%
%TO.N,GND*%
X115903363Y-76133363D03*
%TD*%
D13*
%TO.P,C9,1*%
%TO.N,GND*%
X119035000Y-75390000D03*
%TO.P,C9,2*%
%TO.N,/VSYS*%
X117485000Y-75390000D03*
%TD*%
D14*
%TO.P,R7,1*%
%TO.N,Net-(R7-Pad1)*%
X111375000Y-81800000D03*
%TO.P,R7,2*%
%TO.N,Net-(D1-Pad2)*%
X113025000Y-81800000D03*
%TD*%
D15*
%TO.P,D4,1,K*%
%TO.N,Net-(D3-Pad2)*%
X136500000Y-72787500D03*
%TO.P,D4,2,A*%
%TO.N,Net-(D1-Pad1)*%
X136500000Y-71212500D03*
%TD*%
D16*
%TO.P,C7,1*%
%TO.N,/VMID*%
X130800000Y-75790000D03*
%TO.P,C7,2*%
%TO.N,GND*%
X128900000Y-75790000D03*
%TD*%
D17*
%TO.P,C17,1*%
%TO.N,/VSYS*%
X117530000Y-77190000D03*
%TO.P,C17,2*%
%TO.N,GND*%
X119430000Y-77190000D03*
%TD*%
%TO.P,C1,1*%
%TO.N,/VOUT2*%
X132430000Y-66920000D03*
%TO.P,C1,2*%
%TO.N,GND*%
X134330000Y-66920000D03*
%TD*%
%TO.P,C10,1*%
%TO.N,/VSYS*%
X117480000Y-81450000D03*
%TO.P,C10,2*%
%TO.N,GND*%
X119380000Y-81450000D03*
%TD*%
D16*
%TO.P,C2,1*%
%TO.N,/VOUT1*%
X98470000Y-68930000D03*
%TO.P,C2,2*%
%TO.N,GND*%
X96570000Y-68930000D03*
%TD*%
D15*
%TO.P,D2,1,K*%
%TO.N,Net-(D1-Pad2)*%
X136520000Y-80787500D03*
%TO.P,D2,2,A*%
%TO.N,Net-(D1-Pad1)*%
X136520000Y-79212500D03*
%TD*%
D18*
%TO.P,Q3,1,G*%
%TO.N,/VBUSG*%
X111250000Y-62870000D03*
%TO.P,Q3,2,S*%
%TO.N,/VMID*%
X113150000Y-62870000D03*
%TO.P,Q3,3,D*%
%TO.N,/VBUS*%
X112200000Y-60870000D03*
%TD*%
D19*
%TO.P,C8,1*%
%TO.N,/VMID*%
X114715000Y-64380000D03*
%TO.P,C8,2*%
%TO.N,GND*%
X116265000Y-64380000D03*
%TD*%
D15*
%TO.P,D3,1,K*%
%TO.N,Net-(D1-Pad1)*%
X136500000Y-68787500D03*
%TO.P,D3,2,A*%
%TO.N,Net-(D3-Pad2)*%
X136500000Y-67212500D03*
%TD*%
D11*
%TO.P,Q1,1,G*%
%TO.N,/VOUT2G*%
X127000000Y-77510000D03*
%TO.P,Q1,2,S*%
%TO.N,/VOUT2*%
X127000000Y-75610000D03*
%TO.P,Q1,3,D*%
%TO.N,/VMID*%
X125000000Y-76560000D03*
%TD*%
D20*
%TO.P,P1,A1,GND*%
%TO.N,GND*%
X108200000Y-67010000D03*
%TO.P,P1,A4,VBUS*%
%TO.N,/VBUS*%
X107400000Y-67010000D03*
D21*
%TO.P,P1,A5,CC*%
%TO.N,/CC1*%
X106250000Y-67010000D03*
%TO.P,P1,A6,D+*%
%TO.N,/DPC*%
X105250000Y-67010000D03*
%TO.P,P1,A7,D-*%
%TO.N,/DMC*%
X104750000Y-67010000D03*
%TO.P,P1,A8*%
%TO.N,N/C*%
X103750000Y-67010000D03*
D20*
%TO.P,P1,A9,VBUS*%
%TO.N,/VBUS*%
X102600000Y-67010000D03*
%TO.P,P1,A12,GND*%
%TO.N,GND*%
X101800000Y-67010000D03*
%TO.P,P1,B1,GND*%
X101800000Y-67010000D03*
%TO.P,P1,B4,VBUS*%
%TO.N,/VBUS*%
X102600000Y-67010000D03*
D21*
%TO.P,P1,B5,VCONN*%
%TO.N,/CC2*%
X103250000Y-67010000D03*
%TO.P,P1,B6*%
%TO.N,N/C*%
X104250000Y-67010000D03*
%TO.P,P1,B7*%
X105750000Y-67010000D03*
%TO.P,P1,B8*%
X106750000Y-67010000D03*
D20*
%TO.P,P1,B9,VBUS*%
%TO.N,/VBUS*%
X107400000Y-67010000D03*
%TO.P,P1,B12,GND*%
%TO.N,GND*%
X108200000Y-67010000D03*
D22*
%TO.P,P1,S1,SHIELD*%
X100680000Y-66430000D03*
X109320000Y-66430000D03*
D23*
X109320000Y-62260000D03*
X100680000Y-62260000D03*
%TD*%
D10*
%TO.P,C18,1*%
%TO.N,/VBAT*%
X86060000Y-79930000D03*
%TO.P,C18,2*%
%TO.N,GND*%
X86060000Y-81830000D03*
%TD*%
D24*
%TO.P,TH1,1*%
%TO.N,Net-(R5-Pad1)*%
X109710000Y-80957500D03*
%TO.P,TH1,2*%
%TO.N,GND*%
X109710000Y-82782500D03*
%TD*%
D25*
%TO.P,J1,1,VBUS*%
%TO.N,/VOUT2*%
X127000000Y-73000000D03*
D26*
%TO.P,J1,2,D-*%
%TO.N,/DMA2*%
X124500000Y-73000000D03*
%TO.P,J1,3,D+*%
%TO.N,/DPA2*%
X122500000Y-73000000D03*
%TO.P,J1,4,GND*%
%TO.N,GND*%
X120000000Y-73000000D03*
D27*
%TO.P,J1,5,Shield*%
X130070000Y-70290000D03*
X116930000Y-70290000D03*
%TD*%
D28*
%TO.P,R5,1*%
%TO.N,Net-(R5-Pad1)*%
X107780000Y-81135000D03*
%TO.P,R5,2*%
%TO.N,GND*%
X107780000Y-82785000D03*
%TD*%
D10*
%TO.P,C14,1*%
%TO.N,/VBAT*%
X88130000Y-79930000D03*
%TO.P,C14,2*%
%TO.N,GND*%
X88130000Y-81830000D03*
%TD*%
D14*
%TO.P,R9,1*%
%TO.N,/LIGHT*%
X96670000Y-63730000D03*
%TO.P,R9,2*%
%TO.N,Net-(D5-Pad2)*%
X98320000Y-63730000D03*
%TD*%
D29*
%TO.P,C11,1*%
%TO.N,Net-(C11-Pad1)*%
X113448008Y-77101992D03*
%TO.P,C11,2*%
%TO.N,Net-(C11-Pad2)*%
X112351992Y-78198008D03*
%TD*%
D11*
%TO.P,Q2,1,G*%
%TO.N,/VOUT1G*%
X98510000Y-73180000D03*
%TO.P,Q2,2,S*%
%TO.N,/VOUT1*%
X98510000Y-71280000D03*
%TO.P,Q2,3,D*%
%TO.N,/VMID*%
X96510000Y-72230000D03*
%TD*%
D30*
%TO.P,R10,1*%
%TO.N,Net-(D1-Pad1)*%
X133950000Y-70325000D03*
%TO.P,R10,2*%
%TO.N,GND*%
X133950000Y-68675000D03*
%TD*%
D31*
%TO.P,U1,1,DPA2*%
%TO.N,/DPA2*%
X104851884Y-74916136D03*
%TO.P,U1,2,CC1*%
%TO.N,/CC1*%
X105205437Y-75269689D03*
%TO.P,U1,3,CC2*%
%TO.N,/CC2*%
X105558990Y-75623243D03*
%TO.P,U1,4,DMC*%
%TO.N,/DMC*%
X105912544Y-75976796D03*
%TO.P,U1,5,DPC*%
%TO.N,/DPC*%
X106266097Y-76330349D03*
%TO.P,U1,6,DMB*%
%TO.N,/DMB*%
X106619651Y-76683903D03*
%TO.P,U1,7,DPB*%
%TO.N,/DPB*%
X106973204Y-77037456D03*
%TO.P,U1,8,VSYS*%
%TO.N,/VSYS*%
X107326757Y-77391010D03*
%TO.P,U1,9,VSYS*%
X107680311Y-77744563D03*
%TO.P,U1,10,NTC*%
%TO.N,Net-(R5-Pad1)*%
X108033864Y-78098116D03*
D32*
%TO.P,U1,11,L1*%
%TO.N,Net-(R7-Pad1)*%
X109006136Y-78098116D03*
%TO.P,U1,12,L2*%
%TO.N,Net-(R8-Pad1)*%
X109359689Y-77744563D03*
%TO.P,U1,13,L3*%
%TO.N,Net-(D1-Pad1)*%
X109713243Y-77391010D03*
%TO.P,U1,14,LX*%
%TO.N,Net-(C11-Pad2)*%
X110066796Y-77037456D03*
%TO.P,U1,15,LX*%
X110420349Y-76683903D03*
%TO.P,U1,16,LX*%
X110773903Y-76330349D03*
%TO.P,U1,17,LX*%
X111127456Y-75976796D03*
%TO.P,U1,18,LX*%
X111481010Y-75623243D03*
%TO.P,U1,19,BST*%
%TO.N,Net-(C11-Pad1)*%
X111834563Y-75269689D03*
%TO.P,U1,20,LIGHT*%
%TO.N,/LIGHT*%
X112188116Y-74916136D03*
D31*
%TO.P,U1,21,RSET*%
%TO.N,Net-(R6-Pad1)*%
X112188116Y-73943864D03*
%TO.P,U1,22,VSYS*%
%TO.N,/VSYS*%
X111834563Y-73590311D03*
%TO.P,U1,23,VSYS*%
X111481010Y-73236757D03*
%TO.P,U1,24,VSP*%
X111127456Y-72883204D03*
%TO.P,U1,25,VSN*%
%TO.N,/VMID*%
X110773903Y-72529651D03*
%TO.P,U1,26,KEY*%
%TO.N,/KEY*%
X110420349Y-72176097D03*
%TO.P,U1,27,VREG*%
%TO.N,/VREG*%
X110066796Y-71822544D03*
%TO.P,U1,28,BAT*%
%TO.N,/VBAT*%
X109713243Y-71468990D03*
%TO.P,U1,29,AGND*%
%TO.N,GND*%
X109359689Y-71115437D03*
%TO.P,U1,30,VIN*%
%TO.N,/VIN*%
X109006136Y-70761884D03*
D32*
%TO.P,U1,31,VING*%
%TO.N,/VING*%
X108033864Y-70761884D03*
%TO.P,U1,32,VBUS*%
%TO.N,/VBUS*%
X107680311Y-71115437D03*
%TO.P,U1,33,VBUSG*%
%TO.N,/VBUSG*%
X107326757Y-71468990D03*
%TO.P,U1,34,VOUT2*%
%TO.N,/VOUT2*%
X106973204Y-71822544D03*
%TO.P,U1,35,VOUT2G*%
%TO.N,/VOUT2G*%
X106619651Y-72176097D03*
%TO.P,U1,36,VOUT1G*%
%TO.N,/VOUT1G*%
X106266097Y-72529651D03*
%TO.P,U1,37,VOUT1*%
%TO.N,/VOUT1*%
X105912544Y-72883204D03*
%TO.P,U1,38,DMA1*%
%TO.N,/DMA1*%
X105558990Y-73236757D03*
%TO.P,U1,39,DPA1*%
%TO.N,/DPA1*%
X105205437Y-73590311D03*
%TO.P,U1,40,DMA2*%
%TO.N,/DMA2*%
X104851884Y-73943864D03*
D33*
%TO.P,U1,41,EPAD*%
%TO.N,GND*%
X108520000Y-74430000D03*
%TD*%
D16*
%TO.P,C4,1*%
%TO.N,/VIN*%
X81010000Y-75580000D03*
%TO.P,C4,2*%
%TO.N,GND*%
X79110000Y-75580000D03*
%TD*%
D34*
%TO.P,REF\u002A\u002A,*%
%TO.N,*%
X76000000Y-63000000D03*
%TD*%
D16*
%TO.P,C12,1*%
%TO.N,/VSYS*%
X106110000Y-80940000D03*
%TO.P,C12,2*%
%TO.N,GND*%
X104210000Y-80940000D03*
%TD*%
%TO.P,C15,1*%
%TO.N,/VSYS*%
X106060000Y-83050000D03*
%TO.P,C15,2*%
%TO.N,GND*%
X104160000Y-83050000D03*
%TD*%
D35*
%TO.P,SW1,0*%
%TO.N,N/C*%
X73400000Y-70300000D03*
X73400000Y-65700000D03*
D36*
%TO.P,SW1,1,1*%
%TO.N,Net-(R1-Pad2)*%
X75000000Y-69675000D03*
%TO.P,SW1,2,2*%
%TO.N,GND*%
X75000000Y-66325000D03*
%TD*%
D37*
%TO.P,R1,1*%
%TO.N,/KEY*%
X78165000Y-73120000D03*
%TO.P,R1,2*%
%TO.N,Net-(R1-Pad2)*%
X76515000Y-73120000D03*
%TD*%
D38*
%TO.P,D5,1,K*%
%TO.N,GND*%
X97467500Y-60860000D03*
%TO.P,D5,2,A*%
%TO.N,Net-(D5-Pad2)*%
X95892500Y-60860000D03*
%TD*%
D39*
%TO.P,C6,1*%
%TO.N,/VREG*%
X113350000Y-67870000D03*
%TO.P,C6,2*%
%TO.N,GND*%
X113350000Y-65970000D03*
%TD*%
D40*
%TO.P,R4,1*%
%TO.N,/VMID*%
X113945856Y-71305856D03*
%TO.P,R4,2*%
%TO.N,/VSYS*%
X116014144Y-73374144D03*
%TD*%
D17*
%TO.P,C13,1*%
%TO.N,/VSYS*%
X117520000Y-79300000D03*
%TO.P,C13,2*%
%TO.N,GND*%
X119420000Y-79300000D03*
%TD*%
D10*
%TO.P,C19,1*%
%TO.N,/VBAT*%
X90180000Y-79930000D03*
%TO.P,C19,2*%
%TO.N,GND*%
X90180000Y-81830000D03*
%TD*%
D16*
%TO.P,C5,1*%
%TO.N,/VBAT*%
X111170000Y-68620000D03*
%TO.P,C5,2*%
%TO.N,GND*%
X109270000Y-68620000D03*
%TD*%
D41*
%TO.P,L1,1,1*%
%TO.N,Net-(C11-Pad2)*%
X101310000Y-79570000D03*
%TO.P,L1,2,2*%
%TO.N,/VBAT*%
X93310000Y-79570000D03*
%TD*%
D14*
%TO.P,R8,1*%
%TO.N,Net-(R8-Pad1)*%
X111885000Y-80150000D03*
%TO.P,R8,2*%
%TO.N,Net-(D3-Pad2)*%
X113535000Y-80150000D03*
%TD*%
D15*
%TO.P,D1,1,K*%
%TO.N,Net-(D1-Pad1)*%
X136510000Y-76787500D03*
%TO.P,D1,2,A*%
%TO.N,Net-(D1-Pad2)*%
X136510000Y-75212500D03*
%TD*%
D25*
%TO.P,J2,1,VBUS*%
%TO.N,/VOUT1*%
X90000000Y-73000000D03*
D26*
%TO.P,J2,2,D-*%
%TO.N,/DMA1*%
X87500000Y-73000000D03*
%TO.P,J2,3,D+*%
%TO.N,/DPA1*%
X85500000Y-73000000D03*
%TO.P,J2,4,GND*%
%TO.N,GND*%
X83000000Y-73000000D03*
D27*
%TO.P,J2,5,Shield*%
X93070000Y-70290000D03*
X79930000Y-70290000D03*
%TD*%
D42*
%TO.P,J3,1,VBUS*%
%TO.N,/VIN*%
X77165000Y-76860000D03*
%TO.P,J3,2,D-*%
%TO.N,/DPB*%
X77165000Y-77510000D03*
%TO.P,J3,3,D+*%
%TO.N,/DMB*%
X77165000Y-78160000D03*
%TO.P,J3,4,ID*%
%TO.N,GND*%
X77165000Y-78810000D03*
%TO.P,J3,5,GND*%
X77165000Y-79460000D03*
D43*
%TO.P,J3,6,Shield*%
X74285000Y-80890000D03*
D44*
X77265000Y-75310000D03*
D45*
X75965000Y-75210000D03*
X75965000Y-81160000D03*
D46*
X74015000Y-77200000D03*
D44*
X77285000Y-81060000D03*
D46*
X74015000Y-79120000D03*
D47*
X75215000Y-75430000D03*
X75215000Y-80910000D03*
D48*
X77285000Y-75740000D03*
D43*
X74285000Y-75430000D03*
D48*
X77285000Y-80580000D03*
%TD*%
D37*
%TO.P,R2,1*%
%TO.N,/VMID*%
X112865000Y-64390000D03*
%TO.P,R2,2*%
%TO.N,/VBUSG*%
X111215000Y-64390000D03*
%TD*%
D28*
%TO.P,R3,1*%
%TO.N,/VMID*%
X86120000Y-75565000D03*
%TO.P,R3,2*%
%TO.N,/VING*%
X86120000Y-77215000D03*
%TD*%
D34*
%TO.P,REF\u002A\u002A,*%
%TO.N,*%
X134000000Y-63000000D03*
%TD*%
D49*
%TO.N,/VOUT2*%
X105835201Y-69201700D03*
D50*
X128420000Y-64770000D03*
D49*
%TO.N,GND*%
X83110000Y-69880000D03*
X110660000Y-74270000D03*
X129290000Y-80750000D03*
X129320000Y-82330000D03*
X92130000Y-62240000D03*
X127370000Y-80710000D03*
X112240000Y-65570000D03*
X102940000Y-83050000D03*
X109590000Y-75050000D03*
X127450000Y-82360000D03*
X78560000Y-61330000D03*
X82240000Y-62400000D03*
X88310000Y-69850000D03*
D50*
X121920000Y-80370000D03*
X121940000Y-75920000D03*
D49*
X117580000Y-64690000D03*
X136350000Y-65750000D03*
X116280000Y-77640000D03*
X132340000Y-74070000D03*
X101730000Y-84120000D03*
X119400000Y-78260000D03*
X119400000Y-80370000D03*
X108645000Y-82785000D03*
D50*
X121960000Y-78220000D03*
D49*
X116270000Y-79890000D03*
%TO.N,/VOUT1*%
X98510000Y-70154500D03*
X103930000Y-70290000D03*
D50*
%TO.N,/VBUS*%
X107870000Y-61849500D03*
X106990000Y-65480000D03*
X102740000Y-64730000D03*
D49*
%TO.N,/VIN*%
X109549932Y-70156897D03*
X95820000Y-76630000D03*
D50*
%TO.N,/VBAT*%
X93310000Y-79570000D03*
X101930000Y-60860000D03*
X93310000Y-81120000D03*
X81630000Y-79770000D03*
X93280000Y-77890000D03*
%TO.N,/VMID*%
X96030000Y-70810000D03*
X120740000Y-64250000D03*
%TO.N,/VSYS*%
X111450000Y-83130000D03*
X115200498Y-81940000D03*
%TO.N,Net-(C11-Pad2)*%
X111281992Y-77398008D03*
X100600000Y-79980000D03*
X102290000Y-78420000D03*
D49*
%TO.N,Net-(D1-Pad1)*%
X133660000Y-80550000D03*
X136500000Y-70120000D03*
X136520000Y-78110000D03*
%TO.N,/DMA2*%
X103898263Y-73498254D03*
%TO.N,/DPA2*%
X104260000Y-74430000D03*
%TO.N,/DMA1*%
X103110000Y-71104989D03*
%TO.N,/DPA1*%
X102530000Y-72010000D03*
%TO.N,/DPB*%
X95880000Y-83130000D03*
X104970000Y-79270000D03*
%TO.N,/DMB*%
X94890000Y-84070000D03*
X103920000Y-78850000D03*
%TO.N,/DPC*%
X105640000Y-65090000D03*
X100180000Y-68590000D03*
%TO.N,/DMC*%
X104590000Y-65720000D03*
X102110000Y-68300000D03*
%TO.N,/VOUT2G*%
X105530000Y-70190000D03*
X124470000Y-70330000D03*
%TO.N,/VOUT1G*%
X104680000Y-69430000D03*
X99200000Y-72520000D03*
%TO.N,/VBUSG*%
X111240000Y-63800000D03*
X106625662Y-68590000D03*
%TO.N,/VING*%
X95100000Y-75680000D03*
X108550000Y-70060000D03*
%TO.N,/KEY*%
X112090000Y-71110000D03*
X96780000Y-77770000D03*
X95060000Y-73400000D03*
X77780000Y-71800000D03*
%TO.N,/LIGHT*%
X113550000Y-75670000D03*
X96790000Y-73360000D03*
X97990000Y-78410000D03*
X95490000Y-63700000D03*
%TD*%
D51*
%TO.N,/VOUT2*%
X106310000Y-69676499D02*
X106310000Y-71159340D01*
D52*
X127000000Y-73000000D02*
X127000000Y-75610000D01*
X132430000Y-66920000D02*
X130280000Y-64770000D01*
D51*
X105835201Y-69201700D02*
X106310000Y-69676499D01*
D52*
X130280000Y-64770000D02*
X128420000Y-64770000D01*
D51*
X106310000Y-71159340D02*
X106973204Y-71822544D01*
D52*
%TO.N,GND*%
X80170000Y-70530000D02*
X79930000Y-70290000D01*
X121960000Y-78220000D02*
X119440000Y-78220000D01*
X100680000Y-66430000D02*
X100680000Y-62260000D01*
X119400000Y-81430000D02*
X119400000Y-80370000D01*
X75965000Y-66325000D02*
X79930000Y-70290000D01*
X80170000Y-72280000D02*
X80170000Y-70530000D01*
D53*
X77165000Y-78810000D02*
X77165000Y-80460000D01*
X112640000Y-65970000D02*
X112240000Y-65570000D01*
X117580000Y-64690000D02*
X117270000Y-64380000D01*
D52*
X134330000Y-66920000D02*
X134170000Y-66760000D01*
X119400000Y-80370000D02*
X119400000Y-78260000D01*
D53*
X103640000Y-64110000D02*
X107200000Y-64110000D01*
X131310000Y-62830000D02*
X131420000Y-62940000D01*
X90740000Y-82390000D02*
X95250000Y-82390000D01*
X74285000Y-76930000D02*
X74015000Y-77200000D01*
D52*
X76975000Y-75430000D02*
X77285000Y-75740000D01*
X80290000Y-70290000D02*
X83000000Y-73000000D01*
X108645000Y-82785000D02*
X109502500Y-82785000D01*
X84240000Y-81830000D02*
X90420000Y-81830000D01*
D53*
X102940000Y-83050000D02*
X104160000Y-83050000D01*
D52*
X117290000Y-70290000D02*
X120000000Y-73000000D01*
D53*
X115340000Y-62830000D02*
X116265000Y-63755000D01*
D52*
X96570000Y-68930000D02*
X94430000Y-68930000D01*
X80230000Y-73735000D02*
X80230000Y-72340000D01*
X116930000Y-70290000D02*
X121310000Y-70290000D01*
D53*
X102340000Y-63130000D02*
X102660000Y-63130000D01*
D52*
X122580000Y-69020000D02*
X128800000Y-69020000D01*
X119565000Y-75920000D02*
X119400000Y-75755000D01*
X99280000Y-60860000D02*
X100680000Y-62260000D01*
D53*
X102660000Y-63130000D02*
X103640000Y-64110000D01*
X90180000Y-81830000D02*
X90740000Y-82390000D01*
D52*
X128800000Y-69020000D02*
X130070000Y-70290000D01*
D53*
X74285000Y-79390000D02*
X74015000Y-79120000D01*
D52*
X109270000Y-68620000D02*
X109270000Y-66480000D01*
X119400000Y-75755000D02*
X119035000Y-75390000D01*
X80230000Y-72340000D02*
X80170000Y-72280000D01*
D53*
X116265000Y-63755000D02*
X116265000Y-64380000D01*
D52*
X100680000Y-66430000D02*
X99770000Y-65520000D01*
X128900000Y-75790000D02*
X128900000Y-71460000D01*
D53*
X95640000Y-82000000D02*
X97670000Y-82000000D01*
D52*
X100680000Y-66430000D02*
X101260000Y-67010000D01*
X108740000Y-67010000D02*
X109320000Y-66430000D01*
D53*
X113350000Y-65970000D02*
X112640000Y-65970000D01*
D52*
X119380000Y-81450000D02*
X119400000Y-81430000D01*
X119400000Y-78260000D02*
X119400000Y-75755000D01*
X97467500Y-60860000D02*
X99280000Y-60860000D01*
D53*
X74595000Y-80580000D02*
X74285000Y-80890000D01*
D52*
X107780000Y-82785000D02*
X108645000Y-82785000D01*
D51*
X108520000Y-71950000D02*
X108520000Y-74430000D01*
D53*
X117270000Y-64380000D02*
X116265000Y-64380000D01*
D52*
X104160000Y-83050000D02*
X104160000Y-80990000D01*
X119440000Y-78220000D02*
X119400000Y-78260000D01*
X121310000Y-70290000D02*
X122580000Y-69020000D01*
D53*
X97670000Y-82000000D02*
X98720000Y-83050000D01*
D52*
X75000000Y-66325000D02*
X75965000Y-66325000D01*
D53*
X108200000Y-67010000D02*
X108740000Y-67010000D01*
X101470000Y-62260000D02*
X102340000Y-63130000D01*
D52*
X79110000Y-75580000D02*
X79110000Y-74855000D01*
X121920000Y-80370000D02*
X119400000Y-80370000D01*
X84700000Y-65520000D02*
X79930000Y-70290000D01*
X115903363Y-77263363D02*
X116280000Y-77640000D01*
X121940000Y-75920000D02*
X121940000Y-80350000D01*
X79110000Y-74855000D02*
X80230000Y-73735000D01*
X79930000Y-70290000D02*
X80290000Y-70290000D01*
X136350000Y-65750000D02*
X136181800Y-65750000D01*
D53*
X107200000Y-64110000D02*
X109320000Y-66230000D01*
D52*
X99770000Y-65520000D02*
X84700000Y-65520000D01*
X135500000Y-65750000D02*
X134330000Y-66920000D01*
D53*
X74285000Y-75430000D02*
X74285000Y-76930000D01*
D52*
X79110000Y-75580000D02*
X77535000Y-75580000D01*
X109270000Y-66480000D02*
X109320000Y-66430000D01*
D53*
X95250000Y-82390000D02*
X95640000Y-82000000D01*
D52*
X119035000Y-73965000D02*
X120000000Y-73000000D01*
D53*
X77285000Y-80580000D02*
X74595000Y-80580000D01*
X101260000Y-67010000D02*
X101800000Y-67010000D01*
D52*
X75215000Y-75430000D02*
X76975000Y-75430000D01*
X121940000Y-75920000D02*
X119565000Y-75920000D01*
D51*
X109354563Y-71115437D02*
X108520000Y-71950000D01*
X109359689Y-71115437D02*
X109354563Y-71115437D01*
D53*
X109320000Y-66230000D02*
X109320000Y-66430000D01*
X100680000Y-62260000D02*
X101470000Y-62260000D01*
X98720000Y-83050000D02*
X102940000Y-83050000D01*
D52*
X136350000Y-65750000D02*
X135500000Y-65750000D01*
X128900000Y-71460000D02*
X130070000Y-70290000D01*
X136181800Y-65750000D02*
X133950000Y-67981800D01*
X94430000Y-68930000D02*
X93070000Y-70290000D01*
D53*
X115340000Y-62830000D02*
X131310000Y-62830000D01*
D52*
X115903363Y-76133363D02*
X115903363Y-77263363D01*
X133950000Y-67981800D02*
X133950000Y-68675000D01*
X121940000Y-80350000D02*
X121920000Y-80370000D01*
X119035000Y-75390000D02*
X119035000Y-73965000D01*
X104160000Y-80990000D02*
X104210000Y-80940000D01*
X116930000Y-70290000D02*
X117290000Y-70290000D01*
D53*
X77165000Y-80460000D02*
X77285000Y-80580000D01*
D52*
X77535000Y-75580000D02*
X77265000Y-75310000D01*
D53*
X74015000Y-79120000D02*
X74015000Y-77200000D01*
X74285000Y-80890000D02*
X74285000Y-79390000D01*
D52*
%TO.N,/VOUT1*%
X98510000Y-68970000D02*
X98470000Y-68930000D01*
X97350000Y-67280000D02*
X92824723Y-67280000D01*
X98470000Y-68930000D02*
X98470000Y-68400000D01*
X90000000Y-70104723D02*
X90000000Y-73000000D01*
D51*
X105912544Y-72883204D02*
X103930000Y-70900660D01*
D52*
X98470000Y-68400000D02*
X97350000Y-67280000D01*
X98510000Y-70154500D02*
X98510000Y-68970000D01*
X92824723Y-67280000D02*
X90000000Y-70104723D01*
D51*
X103930000Y-70900660D02*
X103930000Y-70290000D01*
D52*
X98510000Y-70154500D02*
X98510000Y-71280000D01*
%TO.N,/VBUS*%
X108170480Y-61383854D02*
X108904334Y-60650000D01*
D51*
X107350162Y-70785288D02*
X107350162Y-67059838D01*
D53*
X106990000Y-65864017D02*
X107400000Y-66274017D01*
X102600000Y-66274017D02*
X102740000Y-66134017D01*
D52*
X107870000Y-61849500D02*
X108170480Y-61549020D01*
D53*
X102740000Y-66134017D02*
X102740000Y-64730000D01*
D52*
X108170480Y-61549020D02*
X108170480Y-61383854D01*
X112200000Y-60870000D02*
X115280000Y-60870000D01*
D53*
X102600000Y-67010000D02*
X102600000Y-66274017D01*
D52*
X115280000Y-60870000D02*
X115340000Y-60930000D01*
X111980000Y-60650000D02*
X112200000Y-60870000D01*
D53*
X107400000Y-66274017D02*
X107400000Y-67010000D01*
D52*
X107870000Y-61849500D02*
X107720500Y-61849500D01*
X108904334Y-60650000D02*
X111980000Y-60650000D01*
D51*
X107680311Y-71115437D02*
X107350162Y-70785288D01*
X107350162Y-67059838D02*
X107400000Y-67010000D01*
D53*
X106990000Y-65480000D02*
X106990000Y-65864017D01*
%TO.N,/VIN*%
X77165000Y-76860000D02*
X81470000Y-76860000D01*
D51*
X109549932Y-70218088D02*
X109006136Y-70761884D01*
D53*
X89960000Y-76630000D02*
X95820000Y-76630000D01*
X82550000Y-77250000D02*
X83940000Y-78640000D01*
X81470000Y-76860000D02*
X81880000Y-76450000D01*
D51*
X109549932Y-70156897D02*
X109549932Y-70218088D01*
D53*
X82550000Y-76350000D02*
X82550000Y-77250000D01*
D52*
X81880000Y-76450000D02*
X81010000Y-75580000D01*
D53*
X83940000Y-78640000D02*
X87950000Y-78640000D01*
X87950000Y-78640000D02*
X89960000Y-76630000D01*
D52*
X82560000Y-76450000D02*
X81880000Y-76450000D01*
%TO.N,/VBAT*%
X92950000Y-79930000D02*
X81790000Y-79930000D01*
X108880336Y-63809520D02*
X108843854Y-63809520D01*
X108843854Y-63809520D02*
X108183345Y-63149011D01*
X111170000Y-68620000D02*
X111170000Y-66030000D01*
X93310000Y-79570000D02*
X92950000Y-79930000D01*
X111170000Y-66030000D02*
X111100816Y-66030000D01*
X81790000Y-79930000D02*
X81630000Y-79770000D01*
X103940000Y-62870000D02*
X101930000Y-60860000D01*
D51*
X111170000Y-70012233D02*
X109713243Y-71468990D01*
D52*
X111100816Y-66030000D02*
X108880336Y-63809520D01*
X107246234Y-63149011D02*
X106967223Y-62870000D01*
X106967223Y-62870000D02*
X103940000Y-62870000D01*
D51*
X111170000Y-68620000D02*
X111170000Y-70012233D01*
D52*
X108183345Y-63149011D02*
X107246234Y-63149011D01*
D51*
%TO.N,/VREG*%
X113350000Y-68539340D02*
X113350000Y-67870000D01*
X110066796Y-71822544D02*
X113350000Y-68539340D01*
X113470000Y-67870000D02*
X113550000Y-67950000D01*
X113350000Y-67870000D02*
X113470000Y-67870000D01*
D52*
%TO.N,/VMID*%
X125800000Y-79480000D02*
X128760000Y-79480000D01*
X115055000Y-64925000D02*
X114520000Y-64390000D01*
X125000000Y-76560000D02*
X125000000Y-78680000D01*
X87185489Y-74499511D02*
X86120000Y-75565000D01*
X120740000Y-64250000D02*
X120740000Y-67150000D01*
X91359609Y-74499511D02*
X87185489Y-74499511D01*
X96510000Y-71290000D02*
X96510000Y-72230000D01*
D51*
X112802277Y-71470000D02*
X113781712Y-71470000D01*
D52*
X96030000Y-70810000D02*
X96510000Y-71290000D01*
X93725000Y-72765000D02*
X92375000Y-72765000D01*
X84560000Y-75500000D02*
X86065000Y-75500000D01*
X128760000Y-79480000D02*
X130800000Y-77440000D01*
D51*
X110773903Y-72529651D02*
X111469043Y-71834511D01*
D52*
X125000000Y-78680000D02*
X125800000Y-79480000D01*
X92375000Y-72765000D02*
X91840000Y-73300000D01*
X115130000Y-67720000D02*
X115130000Y-68630000D01*
D51*
X113781712Y-71470000D02*
X113945856Y-71305856D01*
D52*
X130800000Y-75790000D02*
X130800000Y-73310000D01*
D51*
X112437766Y-71834511D02*
X112802277Y-71470000D01*
D52*
X120740000Y-67150000D02*
X120780000Y-67190000D01*
X130630000Y-67190000D02*
X120780000Y-67190000D01*
X115055000Y-66890000D02*
X115055000Y-64925000D01*
X132550000Y-69110000D02*
X130630000Y-67190000D01*
X130800000Y-73310000D02*
X132550000Y-71560000D01*
X115130000Y-68630000D02*
X113945856Y-69814144D01*
X115660000Y-67190000D02*
X115130000Y-67720000D01*
X91840000Y-73300000D02*
X91840000Y-74019120D01*
X115130000Y-67055000D02*
X115130000Y-67720000D01*
X113150000Y-64105000D02*
X112865000Y-64390000D01*
X94320000Y-72170000D02*
X93725000Y-72765000D01*
X91359609Y-74499511D02*
X91290489Y-74499511D01*
D51*
X111469043Y-71834511D02*
X112437766Y-71834511D01*
D52*
X86065000Y-75500000D02*
X86180000Y-75615000D01*
X114520000Y-64390000D02*
X112865000Y-64390000D01*
X113150000Y-62870000D02*
X113150000Y-64105000D01*
X91840000Y-74019120D02*
X91359609Y-74499511D01*
X113945856Y-69814144D02*
X113945856Y-71305856D01*
X132550000Y-71560000D02*
X132550000Y-69110000D01*
X130800000Y-77440000D02*
X130800000Y-75790000D01*
X120780000Y-67190000D02*
X115660000Y-67190000D01*
X96170000Y-72170000D02*
X94320000Y-72170000D01*
D51*
%TO.N,/VSYS*%
X114220000Y-72620000D02*
X114974144Y-73374144D01*
X114770000Y-73810000D02*
X114920000Y-73660000D01*
X107497874Y-77562126D02*
X107497874Y-77702126D01*
X111296796Y-72883204D02*
X111560000Y-72620000D01*
X114020000Y-73060000D02*
X114770000Y-73810000D01*
X107326757Y-77393243D02*
X106110000Y-78610000D01*
X111627126Y-73382874D02*
X111627126Y-73342874D01*
X107497874Y-77702126D02*
X106110000Y-79090000D01*
X115445856Y-73374144D02*
X114810000Y-74010000D01*
X111560000Y-72620000D02*
X114220000Y-72620000D01*
X115635856Y-73374144D02*
X115110000Y-73900000D01*
D53*
X106110000Y-80940000D02*
X106110000Y-79314874D01*
D51*
X116014144Y-73374144D02*
X115825856Y-73374144D01*
X107437874Y-77562126D02*
X107497874Y-77562126D01*
D52*
X106060000Y-80990000D02*
X106110000Y-80940000D01*
D51*
X107326757Y-77391010D02*
X107326757Y-77393243D01*
X107497874Y-77562126D02*
X107680311Y-77744563D01*
X113880000Y-73270000D02*
X114620000Y-74010000D01*
X114515000Y-73255000D02*
X114920000Y-73660000D01*
X112960000Y-73270000D02*
X113880000Y-73270000D01*
X115205856Y-73374144D02*
X116014144Y-73374144D01*
X111834563Y-73590311D02*
X112184874Y-73240000D01*
X116014144Y-73374144D02*
X114634144Y-73374144D01*
X106110000Y-79090000D02*
X106110000Y-79314874D01*
D53*
X106110000Y-78890000D02*
X106110000Y-79314874D01*
D51*
X115825856Y-73374144D02*
X115270000Y-73930000D01*
X111627126Y-73342874D02*
X111940000Y-73030000D01*
X111347126Y-73102874D02*
X111347126Y-73052874D01*
X111347126Y-73102874D02*
X111627126Y-73382874D01*
D52*
X116990000Y-81940000D02*
X117480000Y-81450000D01*
D51*
X106110000Y-78890000D02*
X106110000Y-79090000D01*
X111481010Y-73236757D02*
X111493243Y-73236757D01*
X114684144Y-74074144D02*
X115644144Y-74074144D01*
X111127456Y-72883204D02*
X111347126Y-73102874D01*
X114974144Y-73374144D02*
X116014144Y-73374144D01*
X107326757Y-77391010D02*
X107497874Y-77562126D01*
X112130000Y-73060000D02*
X114020000Y-73060000D01*
X106110000Y-78890000D02*
X107437874Y-77562126D01*
X111717126Y-73472874D02*
X112130000Y-73060000D01*
X111627126Y-73382874D02*
X111717126Y-73472874D01*
D52*
X117485000Y-74845000D02*
X116014144Y-73374144D01*
X110190000Y-84390000D02*
X107400000Y-84390000D01*
D53*
X106110000Y-79090000D02*
X106110000Y-80940000D01*
D51*
X114620000Y-74010000D02*
X114684144Y-74074144D01*
X111640000Y-72760000D02*
X111760000Y-72760000D01*
D53*
X106195000Y-78805000D02*
X106110000Y-78890000D01*
D52*
X107400000Y-84390000D02*
X106060000Y-83050000D01*
X117485000Y-75390000D02*
X117485000Y-74845000D01*
X115200498Y-81940000D02*
X116990000Y-81940000D01*
X117480000Y-81450000D02*
X117480000Y-75395000D01*
D51*
X111493243Y-73236757D02*
X111870000Y-72860000D01*
D52*
X106060000Y-83050000D02*
X106060000Y-80990000D01*
D51*
X116014144Y-73374144D02*
X115635856Y-73374144D01*
X111870000Y-72860000D02*
X114120000Y-72860000D01*
X114634144Y-73374144D02*
X114515000Y-73255000D01*
X111347126Y-73052874D02*
X111640000Y-72760000D01*
X116014144Y-73374144D02*
X115445856Y-73374144D01*
X111717126Y-73472874D02*
X111834563Y-73590311D01*
X112184874Y-73240000D02*
X112930000Y-73240000D01*
X114120000Y-72860000D02*
X114515000Y-73255000D01*
X114810000Y-74010000D02*
X114620000Y-74010000D01*
X114920000Y-73660000D02*
X115205856Y-73374144D01*
X111127456Y-72883204D02*
X111296796Y-72883204D01*
X106110000Y-79314874D02*
X107680311Y-77744563D01*
D52*
X111450000Y-83130000D02*
X110190000Y-84390000D01*
D51*
X112930000Y-73240000D02*
X112960000Y-73270000D01*
D52*
X117480000Y-75395000D02*
X117485000Y-75390000D01*
D51*
%TO.N,Net-(C11-Pad1)*%
X111834563Y-75269689D02*
X113318008Y-76753134D01*
X113318008Y-76753134D02*
X113318008Y-77241992D01*
%TO.N,Net-(C11-Pad2)*%
X110420349Y-76683903D02*
X110567887Y-76683903D01*
X110066796Y-77037456D02*
X111481010Y-75623243D01*
D52*
X111127456Y-75976796D02*
X111127456Y-76973472D01*
D53*
X110567887Y-76683903D02*
X111281992Y-77398008D01*
D52*
X111127456Y-76973472D02*
X112351992Y-78198008D01*
D53*
X111281992Y-77398008D02*
X112221992Y-78338008D01*
%TO.N,Net-(D1-Pad1)*%
X136520000Y-79212500D02*
X136520000Y-78110000D01*
D51*
X130870000Y-83340000D02*
X133660000Y-80550000D01*
D53*
X136500000Y-70120000D02*
X136500000Y-68787500D01*
D51*
X114640000Y-83340000D02*
X130870000Y-83340000D01*
D53*
X136520000Y-78110000D02*
X136520000Y-76797500D01*
X136500000Y-71212500D02*
X134837500Y-71212500D01*
X136500000Y-71212500D02*
X136500000Y-70120000D01*
D51*
X114110000Y-79200000D02*
X114270000Y-79360000D01*
X109713243Y-77391010D02*
X111522233Y-79200000D01*
X111522233Y-79200000D02*
X114110000Y-79200000D01*
D53*
X134837500Y-71212500D02*
X133950000Y-70325000D01*
D51*
X114270000Y-79360000D02*
X114270000Y-82970000D01*
X114270000Y-82970000D02*
X114640000Y-83340000D01*
X136520000Y-76797500D02*
X136510000Y-76787500D01*
%TO.N,Net-(D1-Pad2)*%
X113025000Y-81800000D02*
X113025000Y-83555000D01*
X132547500Y-84760000D02*
X136520000Y-80787500D01*
X136520000Y-80787500D02*
X135570000Y-79837500D01*
X135570000Y-79837500D02*
X135570000Y-76152500D01*
X114230000Y-84760000D02*
X132547500Y-84760000D01*
X135570000Y-76152500D02*
X136510000Y-75212500D01*
X113025000Y-83555000D02*
X114230000Y-84760000D01*
%TO.N,Net-(D3-Pad2)*%
X131660000Y-84100000D02*
X134770000Y-80990000D01*
X136500000Y-72787500D02*
X136612500Y-72787500D01*
X137330000Y-72070000D02*
X137330000Y-68042500D01*
X113535000Y-80150000D02*
X113749520Y-80364520D01*
X113749520Y-83339520D02*
X114510000Y-84100000D01*
X136612500Y-72787500D02*
X137330000Y-72070000D01*
X134770000Y-80990000D02*
X134770000Y-74517500D01*
X134770000Y-74517500D02*
X136500000Y-72787500D01*
X114510000Y-84100000D02*
X131660000Y-84100000D01*
X137330000Y-68042500D02*
X136500000Y-67212500D01*
X113749520Y-80364520D02*
X113749520Y-83339520D01*
D53*
%TO.N,Net-(D5-Pad2)*%
X95892500Y-61302500D02*
X98320000Y-63730000D01*
X95892500Y-60860000D02*
X95892500Y-61302500D01*
D51*
%TO.N,/DMA2*%
X103898263Y-73498254D02*
X104406274Y-73498254D01*
X104406274Y-73498254D02*
X104851884Y-73943864D01*
%TO.N,/DPA2*%
X104365748Y-74430000D02*
X104851884Y-74916136D01*
X104260000Y-74430000D02*
X104365748Y-74430000D01*
%TO.N,/DMA1*%
X103110000Y-71104989D02*
X103427222Y-71104989D01*
X103427222Y-71104989D02*
X105558990Y-73236757D01*
%TO.N,/DPA1*%
X105205437Y-73590311D02*
X103625126Y-72010000D01*
X103625126Y-72010000D02*
X102530000Y-72010000D01*
%TO.N,/DPB*%
X85059802Y-83279803D02*
X85059802Y-83279802D01*
X78520000Y-77510000D02*
X79360000Y-78350000D01*
X84259604Y-83429605D02*
X84910000Y-83429605D01*
X85209604Y-83130000D02*
X95880000Y-83130000D01*
X79360000Y-79200000D02*
X83290000Y-83130000D01*
X79360000Y-78350000D02*
X79360000Y-79200000D01*
X106973204Y-77037456D02*
X104970000Y-79040660D01*
X104970000Y-79040660D02*
X104970000Y-79270000D01*
X77165000Y-77510000D02*
X78520000Y-77510000D01*
X84109802Y-83279802D02*
X84109802Y-83279803D01*
X83290000Y-83130000D02*
X83960000Y-83130000D01*
X85059802Y-83279803D02*
G75*
G02*
X84910000Y-83429605I-149802J0D01*
G01*
X84109802Y-83279802D02*
G75*
G03*
X83960000Y-83130000I-149802J0D01*
G01*
X84259604Y-83429605D02*
G75*
G02*
X84109802Y-83279803I0J149802D01*
G01*
X85209604Y-83130000D02*
G75*
G03*
X85059802Y-83279802I0J-149802D01*
G01*
%TO.N,/DMB*%
X87120000Y-84070000D02*
X94890000Y-84070000D01*
X78670000Y-79600000D02*
X83140000Y-84070000D01*
X87044882Y-84070000D02*
X87120000Y-84070000D01*
X86444882Y-84594882D02*
X86520000Y-84594882D01*
X78670000Y-78590000D02*
X78670000Y-79600000D01*
X83140000Y-84070000D02*
X85920000Y-84070000D01*
X78240000Y-78160000D02*
X78670000Y-78590000D01*
X104570000Y-78200000D02*
X103920000Y-78850000D01*
X105103554Y-78200000D02*
X104570000Y-78200000D01*
X77165000Y-78160000D02*
X78240000Y-78160000D01*
X106619651Y-76683903D02*
X105103554Y-78200000D01*
X86444882Y-84594882D02*
G75*
G02*
X86182441Y-84332441I-1J262440D01*
G01*
X87044882Y-84070000D02*
G75*
G03*
X86782441Y-84332441I-1J-262440D01*
G01*
X86782441Y-84332441D02*
G75*
G02*
X86520000Y-84594882I-262440J-1D01*
G01*
X86182441Y-84332441D02*
G75*
G03*
X85920000Y-84070000I-262440J1D01*
G01*
%TO.N,/DPC*%
X105640000Y-65742277D02*
X105640000Y-65090000D01*
X105006446Y-77590000D02*
X106266097Y-76330349D01*
X100180000Y-68590000D02*
X99924511Y-68845489D01*
X105250000Y-66132277D02*
X105640000Y-65742277D01*
X99924511Y-68845489D02*
X99924511Y-73774511D01*
X99924511Y-73774511D02*
X103740000Y-77590000D01*
X105250000Y-67010000D02*
X105250000Y-66132277D01*
X103740000Y-77590000D02*
X105006446Y-77590000D01*
%TO.N,/DMC*%
X104750000Y-65880000D02*
X104590000Y-65720000D01*
X100570000Y-73530000D02*
X103850000Y-76810000D01*
X102110000Y-68300000D02*
X100570000Y-69840000D01*
X100570000Y-69840000D02*
X100570000Y-73530000D01*
X105079340Y-76810000D02*
X105912544Y-75976796D01*
X104750000Y-67010000D02*
X104750000Y-65880000D01*
X103850000Y-76810000D02*
X105079340Y-76810000D01*
%TO.N,/CC1*%
X101780000Y-73060000D02*
X104420000Y-75700000D01*
X105644120Y-68430000D02*
X104390000Y-68430000D01*
X104420000Y-75700000D02*
X104775126Y-75700000D01*
X106250000Y-67010000D02*
X106250000Y-67824120D01*
X104390000Y-68430000D02*
X101780000Y-71040000D01*
X106250000Y-67824120D02*
X105644120Y-68430000D01*
X101780000Y-71040000D02*
X101780000Y-73060000D01*
X104775126Y-75700000D02*
X105205437Y-75269689D01*
%TO.N,/CC2*%
X105558990Y-75623243D02*
X104922233Y-76260000D01*
X103250000Y-68260000D02*
X103250000Y-67010000D01*
X104922233Y-76260000D02*
X104160000Y-76260000D01*
X101090000Y-70420000D02*
X103250000Y-68260000D01*
X101090000Y-73190000D02*
X101090000Y-70420000D01*
X104160000Y-76260000D02*
X101090000Y-73190000D01*
%TO.N,/VOUT2G*%
X105530000Y-71086446D02*
X106619651Y-72176097D01*
X105530000Y-70190000D02*
X105530000Y-71086446D01*
X127000000Y-77080000D02*
X127000000Y-77510000D01*
X125774511Y-75854511D02*
X127000000Y-77080000D01*
X125774511Y-71634511D02*
X125774511Y-75854511D01*
X124470000Y-70330000D02*
X125774511Y-71634511D01*
%TO.N,/VOUT1G*%
X104680000Y-70943554D02*
X106266097Y-72529651D01*
X104680000Y-69430000D02*
X104680000Y-70943554D01*
X99200000Y-72520000D02*
X99170000Y-72520000D01*
X99170000Y-72520000D02*
X98510000Y-73180000D01*
%TO.N,/VBUSG*%
X106860000Y-71002233D02*
X107326757Y-71468990D01*
D52*
X111215000Y-64390000D02*
X111215000Y-62905000D01*
X111215000Y-62905000D02*
X111250000Y-62870000D01*
D51*
X106860000Y-68824338D02*
X106860000Y-71002233D01*
X106625662Y-68590000D02*
X106860000Y-68824338D01*
D53*
%TO.N,/VING*%
X86120000Y-77215000D02*
X87505000Y-77215000D01*
D52*
X86045000Y-77400000D02*
X86180000Y-77265000D01*
D51*
X108550000Y-70060000D02*
X108550000Y-69980000D01*
X108550000Y-70060000D02*
X108033864Y-70576136D01*
D52*
X84560000Y-77400000D02*
X86045000Y-77400000D01*
D53*
X89040000Y-75680000D02*
X95100000Y-75680000D01*
D51*
X108033864Y-70576136D02*
X108033864Y-70761884D01*
D53*
X87505000Y-77215000D02*
X89040000Y-75680000D01*
D51*
%TO.N,/KEY*%
X96780000Y-77770000D02*
X96780000Y-75120000D01*
X77780000Y-71800000D02*
X77780000Y-72735000D01*
X77780000Y-72735000D02*
X78165000Y-73120000D01*
X96780000Y-75120000D02*
X95060000Y-73400000D01*
X95060000Y-73400000D02*
X94940000Y-73280000D01*
X112090000Y-71110000D02*
X111486446Y-71110000D01*
X111486446Y-71110000D02*
X110420349Y-72176097D01*
D53*
%TO.N,Net-(R1-Pad2)*%
X75000000Y-71605000D02*
X76515000Y-73120000D01*
X75000000Y-69675000D02*
X75000000Y-71605000D01*
D52*
%TO.N,Net-(R5-Pad1)*%
X107780000Y-81135000D02*
X109677500Y-81135000D01*
D51*
X108033864Y-80881136D02*
X107780000Y-81135000D01*
X108033864Y-78098116D02*
X108033864Y-80881136D01*
%TO.N,Net-(R6-Pad1)*%
X113713864Y-73943864D02*
X114736637Y-74966637D01*
X112188116Y-73943864D02*
X113713864Y-73943864D01*
%TO.N,Net-(R7-Pad1)*%
X109006136Y-78098116D02*
X109006136Y-78561136D01*
X109006136Y-78561136D02*
X111445000Y-81000000D01*
X111445000Y-81000000D02*
X111445000Y-81810000D01*
%TO.N,Net-(R8-Pad1)*%
X109359689Y-77744563D02*
X111765126Y-80150000D01*
%TO.N,/LIGHT*%
X97990000Y-74560000D02*
X96790000Y-73360000D01*
X112796136Y-74916136D02*
X113550000Y-75670000D01*
X97990000Y-78410000D02*
X97990000Y-74560000D01*
D52*
X95520000Y-63730000D02*
X95490000Y-63700000D01*
X96670000Y-63730000D02*
X95520000Y-63730000D01*
D51*
X112188116Y-74916136D02*
X112796136Y-74916136D01*
%TD*%
%TA.AperFunction,Conductor*%
%TO.N,GND*%
G36*
X95718051Y-77537122D02*
G01*
X95724513Y-77538496D01*
X95750895Y-77538496D01*
X95819016Y-77558498D01*
X95865509Y-77612154D01*
X95876205Y-77677665D01*
X95866500Y-77770000D01*
X95867190Y-77776565D01*
X95885701Y-77952682D01*
X95886462Y-77959927D01*
X95888502Y-77966205D01*
X95888502Y-77966206D01*
X95898817Y-77997951D01*
X95945476Y-78141554D01*
X95948779Y-78147276D01*
X95948780Y-78147277D01*
X95969892Y-78183843D01*
X96040963Y-78306942D01*
X96045381Y-78311849D01*
X96045382Y-78311850D01*
X96126698Y-78402161D01*
X96168749Y-78448863D01*
X96174091Y-78452744D01*
X96174093Y-78452746D01*
X96317908Y-78557233D01*
X96323250Y-78561114D01*
X96329278Y-78563798D01*
X96329280Y-78563799D01*
X96491682Y-78636105D01*
X96497713Y-78638790D01*
X96588591Y-78658107D01*
X96678056Y-78677124D01*
X96678061Y-78677124D01*
X96684513Y-78678496D01*
X96875487Y-78678496D01*
X96881942Y-78677124D01*
X96881951Y-78677123D01*
X96995093Y-78653073D01*
X97065884Y-78658474D01*
X97122517Y-78701290D01*
X97141124Y-78737382D01*
X97155476Y-78781554D01*
X97250963Y-78946942D01*
X97255381Y-78951849D01*
X97255382Y-78951850D01*
X97363251Y-79071651D01*
X97378749Y-79088863D01*
X97384091Y-79092744D01*
X97384093Y-79092746D01*
X97523242Y-79193843D01*
X97533250Y-79201114D01*
X97539278Y-79203798D01*
X97539280Y-79203799D01*
X97672542Y-79263131D01*
X97707713Y-79278790D01*
X97796865Y-79297740D01*
X97888056Y-79317124D01*
X97888061Y-79317124D01*
X97894513Y-79318496D01*
X98085487Y-79318496D01*
X98091939Y-79317124D01*
X98091944Y-79317124D01*
X98183135Y-79297740D01*
X98272287Y-79278790D01*
X98307458Y-79263131D01*
X98440720Y-79203799D01*
X98440722Y-79203798D01*
X98446750Y-79201114D01*
X98456758Y-79193843D01*
X98595907Y-79092746D01*
X98595909Y-79092744D01*
X98601251Y-79088863D01*
X98616749Y-79071651D01*
X98724618Y-78951850D01*
X98724619Y-78951849D01*
X98729037Y-78946942D01*
X98811381Y-78804318D01*
X98862763Y-78755325D01*
X98932477Y-78741889D01*
X98998388Y-78768275D01*
X99039570Y-78826107D01*
X99046500Y-78867318D01*
X99046500Y-81570000D01*
X99051727Y-81643079D01*
X99092904Y-81783316D01*
X99117426Y-81821472D01*
X99167051Y-81898691D01*
X99167053Y-81898694D01*
X99171923Y-81906271D01*
X99178733Y-81912172D01*
X99275569Y-81996082D01*
X99275572Y-81996084D01*
X99282381Y-82001984D01*
X99290579Y-82005728D01*
X99393473Y-82052718D01*
X99415330Y-82062700D01*
X99424245Y-82063982D01*
X99424246Y-82063982D01*
X99555552Y-82082861D01*
X99555559Y-82082862D01*
X99560000Y-82083500D01*
X103060000Y-82083500D01*
X103062249Y-82083339D01*
X103062253Y-82083339D01*
X103092706Y-82081161D01*
X103162080Y-82096253D01*
X103212282Y-82146455D01*
X103227373Y-82215829D01*
X103214751Y-82256786D01*
X103216878Y-82257711D01*
X103208163Y-82277754D01*
X103160932Y-82433700D01*
X103158484Y-82446323D01*
X103152249Y-82516184D01*
X103152000Y-82521779D01*
X103152000Y-82777885D01*
X103156475Y-82793124D01*
X103157865Y-82794329D01*
X103165548Y-82796000D01*
X103887885Y-82796000D01*
X103903124Y-82791525D01*
X103904329Y-82790135D01*
X103906000Y-82782452D01*
X103906000Y-81873905D01*
X103926002Y-81805784D01*
X103936775Y-81791393D01*
X103954329Y-81771135D01*
X103956000Y-81763452D01*
X103956000Y-80812000D01*
X103976002Y-80743879D01*
X104029658Y-80697386D01*
X104082000Y-80686000D01*
X104338000Y-80686000D01*
X104406121Y-80706002D01*
X104452614Y-80759658D01*
X104464000Y-80812000D01*
X104464000Y-82116095D01*
X104443998Y-82184216D01*
X104433225Y-82198607D01*
X104415671Y-82218865D01*
X104414000Y-82226548D01*
X104414000Y-83178000D01*
X104393998Y-83246121D01*
X104340342Y-83292614D01*
X104288000Y-83304000D01*
X103170115Y-83304000D01*
X103154876Y-83308475D01*
X103153671Y-83309865D01*
X103152000Y-83317548D01*
X103152000Y-83564223D01*
X103152424Y-83571524D01*
X103166617Y-83693255D01*
X103169963Y-83707410D01*
X103225263Y-83859761D01*
X103231773Y-83872760D01*
X103320641Y-84008306D01*
X103329965Y-84019458D01*
X103447629Y-84130922D01*
X103459276Y-84139635D01*
X103599429Y-84221043D01*
X103612762Y-84226840D01*
X103674074Y-84245410D01*
X103733472Y-84284299D01*
X103762416Y-84349127D01*
X103751716Y-84419313D01*
X103704770Y-84472572D01*
X103637551Y-84492000D01*
X95881557Y-84492000D01*
X95813436Y-84471998D01*
X95766943Y-84418342D01*
X95756839Y-84348068D01*
X95761724Y-84327064D01*
X95781498Y-84266206D01*
X95781498Y-84266205D01*
X95783538Y-84259927D01*
X95794952Y-84151325D01*
X95821965Y-84085669D01*
X95880186Y-84045039D01*
X95920262Y-84038496D01*
X95975487Y-84038496D01*
X95981939Y-84037124D01*
X95981944Y-84037124D01*
X96087216Y-84014747D01*
X96162287Y-83998790D01*
X96176078Y-83992650D01*
X96330720Y-83923799D01*
X96330722Y-83923798D01*
X96336750Y-83921114D01*
X96342092Y-83917233D01*
X96485907Y-83812746D01*
X96485909Y-83812744D01*
X96491251Y-83808863D01*
X96534869Y-83760420D01*
X96614618Y-83671850D01*
X96614619Y-83671849D01*
X96619037Y-83666942D01*
X96714524Y-83501554D01*
X96773538Y-83319927D01*
X96793500Y-83130000D01*
X96773538Y-82940073D01*
X96764742Y-82913000D01*
X96726183Y-82794329D01*
X96714524Y-82758446D01*
X96619037Y-82593058D01*
X96611657Y-82584861D01*
X96495673Y-82456048D01*
X96495672Y-82456047D01*
X96491251Y-82451137D01*
X96485909Y-82447256D01*
X96485907Y-82447254D01*
X96342092Y-82342767D01*
X96342091Y-82342766D01*
X96336750Y-82338886D01*
X96330722Y-82336202D01*
X96330720Y-82336201D01*
X96168318Y-82263895D01*
X96168317Y-82263895D01*
X96162287Y-82261210D01*
X96068887Y-82241357D01*
X95981944Y-82222876D01*
X95981939Y-82222876D01*
X95975487Y-82221504D01*
X95784513Y-82221504D01*
X95778061Y-82222876D01*
X95778056Y-82222876D01*
X95691113Y-82241357D01*
X95597713Y-82261210D01*
X95591683Y-82263895D01*
X95591682Y-82263895D01*
X95429280Y-82336201D01*
X95429278Y-82336202D01*
X95423250Y-82338886D01*
X95417909Y-82342766D01*
X95417908Y-82342767D01*
X95274093Y-82447254D01*
X95274091Y-82447256D01*
X95268749Y-82451137D01*
X95264328Y-82456047D01*
X95259425Y-82460462D01*
X95258299Y-82459211D01*
X95205000Y-82492049D01*
X95171806Y-82496500D01*
X91490533Y-82496500D01*
X91422412Y-82476498D01*
X91375919Y-82422842D01*
X91365815Y-82352568D01*
X91369942Y-82333977D01*
X91404068Y-82221300D01*
X91406516Y-82208676D01*
X91407670Y-82195741D01*
X91433646Y-82129668D01*
X91491222Y-82088127D01*
X91551098Y-82082221D01*
X91555542Y-82082860D01*
X91555555Y-82082861D01*
X91560000Y-82083500D01*
X92724693Y-82083500D01*
X92777444Y-82095074D01*
X92888899Y-82146455D01*
X92941972Y-82170922D01*
X92947788Y-82172356D01*
X92947791Y-82172357D01*
X93042113Y-82195612D01*
X93147337Y-82221555D01*
X93153327Y-82221864D01*
X93153329Y-82221864D01*
X93227698Y-82225696D01*
X93358570Y-82232440D01*
X93364505Y-82231611D01*
X93364509Y-82231611D01*
X93528738Y-82208676D01*
X93568051Y-82203186D01*
X93768221Y-82134848D01*
X93829005Y-82100107D01*
X93891528Y-82083500D01*
X95060000Y-82083500D01*
X95133079Y-82078273D01*
X95220112Y-82052718D01*
X95264670Y-82039635D01*
X95264672Y-82039634D01*
X95273316Y-82037096D01*
X95337135Y-81996082D01*
X95388691Y-81962949D01*
X95388694Y-81962947D01*
X95396271Y-81958077D01*
X95428494Y-81920890D01*
X95486082Y-81854431D01*
X95486084Y-81854428D01*
X95491984Y-81847619D01*
X95495728Y-81839421D01*
X95548958Y-81722864D01*
X95548958Y-81722863D01*
X95552700Y-81714670D01*
X95563962Y-81636340D01*
X95572861Y-81574448D01*
X95572862Y-81574441D01*
X95573500Y-81570000D01*
X95573500Y-77661867D01*
X95593502Y-77593746D01*
X95647158Y-77547253D01*
X95712671Y-77536557D01*
X95718051Y-77537122D01*
G37*
%TD.AperFunction*%
%TA.AperFunction,Conductor*%
G36*
X77307121Y-78893502D02*
G01*
X77353614Y-78947158D01*
X77365000Y-78999500D01*
X77365000Y-79463885D01*
X77369475Y-79479124D01*
X77370865Y-79480329D01*
X77378548Y-79482000D01*
X77413000Y-79482000D01*
X77481121Y-79502002D01*
X77527614Y-79555658D01*
X77539000Y-79608000D01*
X77539000Y-80307885D01*
X77543475Y-80323124D01*
X77544865Y-80324329D01*
X77552548Y-80326000D01*
X78447906Y-80326000D01*
X78516027Y-80346002D01*
X78537001Y-80362905D01*
X82451001Y-84276905D01*
X82485027Y-84339217D01*
X82479962Y-84410032D01*
X82437415Y-84466868D01*
X82370895Y-84491679D01*
X82361906Y-84492000D01*
X73133651Y-84492000D01*
X73065530Y-84471998D01*
X73019037Y-84418342D01*
X73007651Y-84366069D01*
X73006920Y-83039387D01*
X73006477Y-82235571D01*
X73006216Y-81760443D01*
X73026180Y-81692314D01*
X73079810Y-81645791D01*
X73150078Y-81635649D01*
X73214675Y-81665106D01*
X73226947Y-81677299D01*
X73288423Y-81747399D01*
X73296771Y-81755321D01*
X73458430Y-81882763D01*
X73468087Y-81889034D01*
X73650255Y-81984877D01*
X73660889Y-81989282D01*
X73857484Y-82050326D01*
X73868738Y-82052718D01*
X74013012Y-82069794D01*
X74027431Y-82067352D01*
X74031000Y-82054610D01*
X74031000Y-81182115D01*
X74029659Y-81177548D01*
X74539000Y-81177548D01*
X74539000Y-82079885D01*
X74543475Y-82095124D01*
X74544865Y-82096329D01*
X74552548Y-82098000D01*
X74998950Y-82098000D01*
X75067071Y-82118002D01*
X75113564Y-82171658D01*
X75119846Y-82188502D01*
X75145819Y-82276958D01*
X75153233Y-82293192D01*
X75222426Y-82400860D01*
X75234112Y-82414347D01*
X75330840Y-82498162D01*
X75345848Y-82507807D01*
X75462275Y-82560977D01*
X75479388Y-82566002D01*
X75610554Y-82584861D01*
X75619495Y-82585500D01*
X75692885Y-82585500D01*
X75708124Y-82581025D01*
X75709329Y-82579635D01*
X75711000Y-82571952D01*
X75711000Y-81432115D01*
X75709659Y-81427548D01*
X76219000Y-81427548D01*
X76219000Y-82567385D01*
X76223475Y-82582624D01*
X76224865Y-82583829D01*
X76232548Y-82585500D01*
X76312743Y-82585500D01*
X76317250Y-82585339D01*
X76381271Y-82580760D01*
X76394491Y-82578375D01*
X76426664Y-82568928D01*
X76480093Y-82565106D01*
X76530552Y-82572361D01*
X76539495Y-82573000D01*
X77012885Y-82573000D01*
X77028124Y-82568525D01*
X77029329Y-82567135D01*
X77031000Y-82559452D01*
X77031000Y-81332115D01*
X77029659Y-81327548D01*
X77539000Y-81327548D01*
X77539000Y-82554885D01*
X77543475Y-82570124D01*
X77544865Y-82571329D01*
X77552548Y-82573000D01*
X78032743Y-82573000D01*
X78037250Y-82572839D01*
X78101269Y-82568260D01*
X78114491Y-82565874D01*
X78239458Y-82529181D01*
X78255692Y-82521767D01*
X78363360Y-82452574D01*
X78376847Y-82440888D01*
X78460662Y-82344160D01*
X78470307Y-82329152D01*
X78523477Y-82212725D01*
X78528502Y-82195612D01*
X78547361Y-82064446D01*
X78548000Y-82055505D01*
X78548000Y-81332115D01*
X78543525Y-81316876D01*
X78542135Y-81315671D01*
X78534452Y-81314000D01*
X77557115Y-81314000D01*
X77541876Y-81318475D01*
X77540671Y-81319865D01*
X77539000Y-81327548D01*
X77029659Y-81327548D01*
X77026525Y-81316876D01*
X77025135Y-81315671D01*
X77017452Y-81314000D01*
X76881115Y-81314000D01*
X76865876Y-81318475D01*
X76860157Y-81325075D01*
X76831753Y-81377094D01*
X76769441Y-81411120D01*
X76742656Y-81414000D01*
X76237115Y-81414000D01*
X76221876Y-81418475D01*
X76220671Y-81419865D01*
X76219000Y-81427548D01*
X75709659Y-81427548D01*
X75706525Y-81416876D01*
X75705135Y-81415671D01*
X75697452Y-81414000D01*
X75193000Y-81414000D01*
X75124879Y-81393998D01*
X75078386Y-81340342D01*
X75067000Y-81288000D01*
X75067000Y-81182115D01*
X75062525Y-81166876D01*
X75061135Y-81165671D01*
X75053452Y-81164000D01*
X74557115Y-81164000D01*
X74541876Y-81168475D01*
X74540671Y-81169865D01*
X74539000Y-81177548D01*
X74029659Y-81177548D01*
X74026525Y-81166876D01*
X74025135Y-81165671D01*
X74017452Y-81164000D01*
X73793000Y-81164000D01*
X73724879Y-81143998D01*
X73678386Y-81090342D01*
X73667000Y-81038000D01*
X73667000Y-80782000D01*
X73687002Y-80713879D01*
X73740658Y-80667386D01*
X73793000Y-80656000D01*
X74012885Y-80656000D01*
X74063616Y-80641104D01*
X74099114Y-80636000D01*
X75620717Y-80636000D01*
X75666771Y-80649522D01*
X75696548Y-80656000D01*
X75968885Y-80656000D01*
X75984124Y-80651525D01*
X75985329Y-80650135D01*
X75987000Y-80642452D01*
X75987000Y-80452000D01*
X76007002Y-80383879D01*
X76060658Y-80337386D01*
X76113000Y-80326000D01*
X77012885Y-80326000D01*
X77028124Y-80321525D01*
X77029329Y-80320135D01*
X77031000Y-80312452D01*
X77031000Y-80226115D01*
X77026525Y-80210876D01*
X77008488Y-80195247D01*
X76970104Y-80135521D01*
X76965000Y-80100022D01*
X76965000Y-78999500D01*
X76985002Y-78931379D01*
X77038658Y-78884886D01*
X77091000Y-78873500D01*
X77239000Y-78873500D01*
X77307121Y-78893502D01*
G37*
%TD.AperFunction*%
%TA.AperFunction,Conductor*%
G36*
X109906121Y-82548502D02*
G01*
X109952614Y-82602158D01*
X109964000Y-82654500D01*
X109964000Y-82910500D01*
X109943998Y-82978621D01*
X109890342Y-83025114D01*
X109838000Y-83036500D01*
X108811874Y-83036500D01*
X108794486Y-83039000D01*
X107652000Y-83039000D01*
X107583879Y-83018998D01*
X107537386Y-82965342D01*
X107526000Y-82913000D01*
X107526000Y-82657000D01*
X107546002Y-82588879D01*
X107599658Y-82542386D01*
X107652000Y-82531000D01*
X108453126Y-82531000D01*
X108470514Y-82528500D01*
X109838000Y-82528500D01*
X109906121Y-82548502D01*
G37*
%TD.AperFunction*%
%TA.AperFunction,Conductor*%
G36*
X120733648Y-68199145D02*
G01*
X120770335Y-68202872D01*
X120770340Y-68202872D01*
X120776463Y-68203494D01*
X120823382Y-68199059D01*
X120835239Y-68198500D01*
X129231631Y-68198500D01*
X129299752Y-68218502D01*
X129346245Y-68272158D01*
X129356349Y-68342432D01*
X129326855Y-68407012D01*
X129286866Y-68437748D01*
X129067452Y-68544764D01*
X129059855Y-68549150D01*
X128853018Y-68688662D01*
X128844711Y-68698690D01*
X128851931Y-68712721D01*
X130340115Y-70200905D01*
X130374141Y-70263217D01*
X130369076Y-70334032D01*
X130340115Y-70379095D01*
X128850813Y-71868397D01*
X128844570Y-71879830D01*
X128854334Y-71892226D01*
X129059855Y-72030850D01*
X129067451Y-72035236D01*
X129311959Y-72154491D01*
X129320106Y-72157782D01*
X129578833Y-72241848D01*
X129587334Y-72243967D01*
X129855255Y-72291210D01*
X129863982Y-72292127D01*
X130084232Y-72299818D01*
X130151614Y-72322185D01*
X130196206Y-72377431D01*
X130203851Y-72448014D01*
X130168930Y-72514836D01*
X130131404Y-72552362D01*
X130121262Y-72561464D01*
X130090891Y-72585882D01*
X130086932Y-72590600D01*
X130086927Y-72590605D01*
X130057607Y-72625548D01*
X130054421Y-72629201D01*
X130053018Y-72630748D01*
X130050825Y-72632941D01*
X130024340Y-72665183D01*
X130023562Y-72666121D01*
X129963747Y-72737406D01*
X129961178Y-72742079D01*
X129957797Y-72746195D01*
X129913836Y-72828182D01*
X129913321Y-72829130D01*
X129868456Y-72910740D01*
X129866843Y-72915824D01*
X129864327Y-72920517D01*
X129862527Y-72926405D01*
X129837156Y-73009387D01*
X129836764Y-73010645D01*
X129808647Y-73099282D01*
X129808053Y-73104578D01*
X129806495Y-73109674D01*
X129805872Y-73115807D01*
X129805871Y-73115812D01*
X129797102Y-73202151D01*
X129796971Y-73203385D01*
X129791500Y-73252155D01*
X129791500Y-73255679D01*
X129791458Y-73256430D01*
X129791009Y-73262129D01*
X129786506Y-73306462D01*
X129789333Y-73336371D01*
X129790941Y-73353379D01*
X129791500Y-73365237D01*
X129791500Y-74592276D01*
X129771498Y-74660397D01*
X129717842Y-74706890D01*
X129647568Y-74716994D01*
X129602214Y-74701230D01*
X129460571Y-74618957D01*
X129447246Y-74613163D01*
X129291300Y-74565932D01*
X129278677Y-74563484D01*
X129208816Y-74557249D01*
X129203221Y-74557000D01*
X129172115Y-74557000D01*
X129156876Y-74561475D01*
X129155671Y-74562865D01*
X129154000Y-74570548D01*
X129154000Y-77004885D01*
X129158475Y-77020124D01*
X129159865Y-77021329D01*
X129167548Y-77023000D01*
X129189223Y-77023000D01*
X129196524Y-77022576D01*
X129318255Y-77008383D01*
X129332410Y-77005037D01*
X129484761Y-76949737D01*
X129497760Y-76943227D01*
X129556219Y-76904900D01*
X129624154Y-76884277D01*
X129692455Y-76903657D01*
X129739435Y-76956886D01*
X129750180Y-77027065D01*
X129721277Y-77091912D01*
X129714399Y-77099367D01*
X128379171Y-78434595D01*
X128316859Y-78468621D01*
X128290076Y-78471500D01*
X127911901Y-78471500D01*
X127843780Y-78451498D01*
X127797287Y-78397842D01*
X127787183Y-78327568D01*
X127816677Y-78262987D01*
X127876082Y-78194431D01*
X127876084Y-78194428D01*
X127881984Y-78187619D01*
X127905892Y-78135269D01*
X127938958Y-78062864D01*
X127938958Y-78062863D01*
X127942700Y-78054670D01*
X127945033Y-78038446D01*
X127962861Y-77914448D01*
X127962862Y-77914441D01*
X127963500Y-77910000D01*
X127963500Y-77110000D01*
X127958273Y-77036921D01*
X127937695Y-76966837D01*
X127933995Y-76954236D01*
X127933995Y-76883239D01*
X127972379Y-76823513D01*
X128036960Y-76794020D01*
X128107234Y-76804125D01*
X128141544Y-76827266D01*
X128187624Y-76870919D01*
X128199276Y-76879635D01*
X128339429Y-76961043D01*
X128352754Y-76966837D01*
X128508700Y-77014068D01*
X128521323Y-77016516D01*
X128591184Y-77022751D01*
X128596779Y-77023000D01*
X128627885Y-77023000D01*
X128643124Y-77018525D01*
X128644329Y-77017135D01*
X128646000Y-77009452D01*
X128646000Y-74575115D01*
X128641525Y-74559876D01*
X128640135Y-74558671D01*
X128632452Y-74557000D01*
X128610777Y-74557000D01*
X128603476Y-74557424D01*
X128481745Y-74571617D01*
X128467590Y-74574963D01*
X128315239Y-74630263D01*
X128302240Y-74636772D01*
X128203585Y-74701454D01*
X128135650Y-74722077D01*
X128067349Y-74702697D01*
X128020369Y-74649468D01*
X128008500Y-74596082D01*
X128008500Y-74338992D01*
X128028502Y-74270871D01*
X128066379Y-74232994D01*
X128067984Y-74231963D01*
X128090040Y-74217788D01*
X128128691Y-74192949D01*
X128128694Y-74192947D01*
X128136271Y-74188077D01*
X128153097Y-74168659D01*
X128226082Y-74084431D01*
X128226084Y-74084428D01*
X128231984Y-74077619D01*
X128236838Y-74066990D01*
X128288958Y-73952864D01*
X128288958Y-73952863D01*
X128292700Y-73944670D01*
X128296734Y-73916612D01*
X128312861Y-73804448D01*
X128312862Y-73804441D01*
X128313500Y-73800000D01*
X128313500Y-72200000D01*
X128308273Y-72126921D01*
X128280064Y-72030850D01*
X128269635Y-71995330D01*
X128269634Y-71995328D01*
X128267096Y-71986684D01*
X128225771Y-71922381D01*
X128192949Y-71871309D01*
X128192947Y-71871306D01*
X128188077Y-71863729D01*
X128169575Y-71847697D01*
X128084431Y-71773918D01*
X128084428Y-71773916D01*
X128077619Y-71768016D01*
X128011782Y-71737949D01*
X127952864Y-71711042D01*
X127952863Y-71711042D01*
X127944670Y-71707300D01*
X127935755Y-71706018D01*
X127935754Y-71706018D01*
X127804448Y-71687139D01*
X127804441Y-71687138D01*
X127800000Y-71686500D01*
X126532025Y-71686500D01*
X126463904Y-71666498D01*
X126417411Y-71612842D01*
X126406087Y-71564456D01*
X126405399Y-71542551D01*
X126405150Y-71534628D01*
X126399499Y-71515177D01*
X126395489Y-71495815D01*
X126393944Y-71483581D01*
X126393943Y-71483578D01*
X126392951Y-71475723D01*
X126390035Y-71468358D01*
X126390034Y-71468354D01*
X126376674Y-71434610D01*
X126372829Y-71423381D01*
X126362708Y-71388545D01*
X126360497Y-71380933D01*
X126356459Y-71374105D01*
X126350188Y-71363500D01*
X126341492Y-71345749D01*
X126336953Y-71334285D01*
X126336951Y-71334282D01*
X126334033Y-71326911D01*
X126308046Y-71291143D01*
X126301527Y-71281220D01*
X126294168Y-71268776D01*
X126279025Y-71243170D01*
X126278656Y-71242752D01*
X126264573Y-71228669D01*
X126251739Y-71213644D01*
X126239957Y-71197428D01*
X126206175Y-71169481D01*
X126197396Y-71161492D01*
X125417118Y-70381214D01*
X125383092Y-70318902D01*
X125380903Y-70305290D01*
X125364999Y-70153977D01*
X128061904Y-70153977D01*
X128061904Y-70426023D01*
X128062516Y-70434772D01*
X128100377Y-70704173D01*
X128102201Y-70712753D01*
X128177187Y-70974260D01*
X128180186Y-70982501D01*
X128290841Y-71231036D01*
X128294953Y-71238770D01*
X128439118Y-71469482D01*
X128444277Y-71476582D01*
X128469101Y-71506166D01*
X128481795Y-71514612D01*
X128492297Y-71508493D01*
X129697978Y-70302812D01*
X129705592Y-70288868D01*
X129705461Y-70287035D01*
X129701210Y-70280420D01*
X128493558Y-69072768D01*
X128480173Y-69065459D01*
X128470247Y-69072468D01*
X128444277Y-69103418D01*
X128439118Y-69110518D01*
X128294953Y-69341230D01*
X128290841Y-69348964D01*
X128180186Y-69597499D01*
X128177187Y-69605740D01*
X128102201Y-69867247D01*
X128100377Y-69875827D01*
X128062516Y-70145228D01*
X128061904Y-70153977D01*
X125364999Y-70153977D01*
X125364228Y-70146637D01*
X125364228Y-70146636D01*
X125363538Y-70140073D01*
X125348912Y-70095057D01*
X125306566Y-69964731D01*
X125304524Y-69958446D01*
X125209037Y-69793058D01*
X125202091Y-69785343D01*
X125085673Y-69656048D01*
X125085672Y-69656047D01*
X125081251Y-69651137D01*
X125075909Y-69647256D01*
X125075907Y-69647254D01*
X124932092Y-69542767D01*
X124932091Y-69542766D01*
X124926750Y-69538886D01*
X124920722Y-69536202D01*
X124920720Y-69536201D01*
X124758318Y-69463895D01*
X124758317Y-69463895D01*
X124752287Y-69461210D01*
X124658887Y-69441357D01*
X124571944Y-69422876D01*
X124571939Y-69422876D01*
X124565487Y-69421504D01*
X124374513Y-69421504D01*
X124368061Y-69422876D01*
X124368056Y-69422876D01*
X124281113Y-69441357D01*
X124187713Y-69461210D01*
X124181683Y-69463895D01*
X124181682Y-69463895D01*
X124019280Y-69536201D01*
X124019278Y-69536202D01*
X124013250Y-69538886D01*
X124007909Y-69542766D01*
X124007908Y-69542767D01*
X123864093Y-69647254D01*
X123864091Y-69647256D01*
X123858749Y-69651137D01*
X123854328Y-69656047D01*
X123854327Y-69656048D01*
X123737910Y-69785343D01*
X123730963Y-69793058D01*
X123635476Y-69958446D01*
X123633434Y-69964731D01*
X123591089Y-70095057D01*
X123576462Y-70140073D01*
X123575772Y-70146636D01*
X123575772Y-70146637D01*
X123560375Y-70293127D01*
X123556500Y-70330000D01*
X123557190Y-70336565D01*
X123562928Y-70391154D01*
X123576462Y-70519927D01*
X123578502Y-70526205D01*
X123578502Y-70526206D01*
X123605858Y-70610400D01*
X123635476Y-70701554D01*
X123638779Y-70707276D01*
X123638780Y-70707277D01*
X123646875Y-70721298D01*
X123730963Y-70866942D01*
X123735381Y-70871849D01*
X123735382Y-70871850D01*
X123854011Y-71003601D01*
X123858749Y-71008863D01*
X123864091Y-71012744D01*
X123864093Y-71012746D01*
X123976547Y-71094448D01*
X124013250Y-71121114D01*
X124019278Y-71123798D01*
X124019280Y-71123799D01*
X124181682Y-71196105D01*
X124187713Y-71198790D01*
X124273835Y-71217096D01*
X124368056Y-71237124D01*
X124368061Y-71237124D01*
X124374513Y-71238496D01*
X124430402Y-71238496D01*
X124498523Y-71258498D01*
X124519497Y-71275401D01*
X124727092Y-71482996D01*
X124761118Y-71545308D01*
X124756053Y-71616123D01*
X124713506Y-71672959D01*
X124646986Y-71697770D01*
X124627016Y-71697612D01*
X124505476Y-71686979D01*
X124505475Y-71686979D01*
X124500000Y-71686500D01*
X124271913Y-71706455D01*
X124266600Y-71707879D01*
X124266598Y-71707879D01*
X124056067Y-71764291D01*
X124056065Y-71764292D01*
X124050757Y-71765714D01*
X124045776Y-71768036D01*
X124045775Y-71768037D01*
X123848237Y-71860150D01*
X123848232Y-71860153D01*
X123843250Y-71862476D01*
X123838743Y-71865632D01*
X123838741Y-71865633D01*
X123660209Y-71990642D01*
X123660206Y-71990644D01*
X123655698Y-71993801D01*
X123589095Y-72060404D01*
X123526783Y-72094430D01*
X123455968Y-72089365D01*
X123410905Y-72060404D01*
X123344302Y-71993801D01*
X123339794Y-71990644D01*
X123339791Y-71990642D01*
X123161259Y-71865633D01*
X123161257Y-71865632D01*
X123156750Y-71862476D01*
X123151768Y-71860153D01*
X123151763Y-71860150D01*
X122954225Y-71768037D01*
X122954224Y-71768036D01*
X122949243Y-71765714D01*
X122943935Y-71764292D01*
X122943933Y-71764291D01*
X122733402Y-71707879D01*
X122733400Y-71707879D01*
X122728087Y-71706455D01*
X122500000Y-71686500D01*
X122271913Y-71706455D01*
X122266600Y-71707879D01*
X122266598Y-71707879D01*
X122056067Y-71764291D01*
X122056065Y-71764292D01*
X122050757Y-71765714D01*
X122045776Y-71768036D01*
X122045775Y-71768037D01*
X121848237Y-71860150D01*
X121848232Y-71860153D01*
X121843250Y-71862476D01*
X121838743Y-71865632D01*
X121838741Y-71865633D01*
X121660209Y-71990642D01*
X121660206Y-71990644D01*
X121655698Y-71993801D01*
X121493801Y-72155698D01*
X121490644Y-72160206D01*
X121490642Y-72160209D01*
X121377226Y-72322185D01*
X121362476Y-72343250D01*
X121360153Y-72348232D01*
X121358829Y-72350525D01*
X121307446Y-72399517D01*
X121237732Y-72412952D01*
X121171822Y-72386565D01*
X121140592Y-72350524D01*
X121133931Y-72338987D01*
X121097494Y-72286949D01*
X121087016Y-72278574D01*
X121073568Y-72285642D01*
X120372022Y-72987188D01*
X120364408Y-73001132D01*
X120364539Y-73002965D01*
X120368790Y-73009580D01*
X121074290Y-73715080D01*
X121086064Y-73721510D01*
X121098080Y-73712213D01*
X121133931Y-73661013D01*
X121140592Y-73649476D01*
X121191976Y-73600483D01*
X121261689Y-73587048D01*
X121327600Y-73613435D01*
X121358829Y-73649475D01*
X121360153Y-73651768D01*
X121362476Y-73656750D01*
X121365628Y-73661252D01*
X121365630Y-73661255D01*
X121484752Y-73831379D01*
X121493801Y-73844302D01*
X121655698Y-74006199D01*
X121660206Y-74009356D01*
X121660209Y-74009358D01*
X121838741Y-74134367D01*
X121843250Y-74137524D01*
X121848232Y-74139847D01*
X121848237Y-74139850D01*
X122044763Y-74231491D01*
X122050757Y-74234286D01*
X122056065Y-74235708D01*
X122056067Y-74235709D01*
X122266598Y-74292121D01*
X122266600Y-74292121D01*
X122271913Y-74293545D01*
X122500000Y-74313500D01*
X122728087Y-74293545D01*
X122733400Y-74292121D01*
X122733402Y-74292121D01*
X122943933Y-74235709D01*
X122943935Y-74235708D01*
X122949243Y-74234286D01*
X122955237Y-74231491D01*
X123151763Y-74139850D01*
X123151768Y-74139847D01*
X123156750Y-74137524D01*
X123161259Y-74134367D01*
X123339791Y-74009358D01*
X123339794Y-74009356D01*
X123344302Y-74006199D01*
X123410905Y-73939596D01*
X123473217Y-73905570D01*
X123544032Y-73910635D01*
X123589095Y-73939596D01*
X123655698Y-74006199D01*
X123660206Y-74009356D01*
X123660209Y-74009358D01*
X123838741Y-74134367D01*
X123843250Y-74137524D01*
X123848232Y-74139847D01*
X123848237Y-74139850D01*
X124044763Y-74231491D01*
X124050757Y-74234286D01*
X124056065Y-74235708D01*
X124056067Y-74235709D01*
X124266598Y-74292121D01*
X124266600Y-74292121D01*
X124271913Y-74293545D01*
X124500000Y-74313500D01*
X124728087Y-74293545D01*
X124733400Y-74292121D01*
X124733402Y-74292121D01*
X124943933Y-74235709D01*
X124943935Y-74235708D01*
X124949243Y-74234286D01*
X124954220Y-74231965D01*
X124954226Y-74231963D01*
X124961763Y-74228448D01*
X125031955Y-74217788D01*
X125096767Y-74246769D01*
X125135622Y-74306190D01*
X125141011Y-74342644D01*
X125141011Y-75421179D01*
X125121009Y-75489300D01*
X125067353Y-75535793D01*
X125014132Y-75547176D01*
X125013209Y-75547170D01*
X125007076Y-75546525D01*
X125000934Y-75547084D01*
X124816228Y-75563893D01*
X124816225Y-75563894D01*
X124810089Y-75564452D01*
X124804183Y-75566190D01*
X124804179Y-75566191D01*
X124704545Y-75595515D01*
X124620336Y-75620299D01*
X124614879Y-75623152D01*
X124614876Y-75623153D01*
X124596657Y-75632678D01*
X124547272Y-75646695D01*
X124483659Y-75651245D01*
X124483658Y-75651245D01*
X124476921Y-75651727D01*
X124435130Y-75663998D01*
X124345330Y-75690365D01*
X124345328Y-75690366D01*
X124336684Y-75692904D01*
X124299932Y-75716523D01*
X124221309Y-75767051D01*
X124221306Y-75767053D01*
X124213729Y-75771923D01*
X124207828Y-75778733D01*
X124123918Y-75875569D01*
X124123916Y-75875572D01*
X124118016Y-75882381D01*
X124057300Y-76015330D01*
X124056018Y-76024245D01*
X124056018Y-76024246D01*
X124037139Y-76155552D01*
X124037138Y-76155559D01*
X124036500Y-76160000D01*
X124036500Y-76241972D01*
X124030602Y-76280071D01*
X124008647Y-76349282D01*
X123991500Y-76502155D01*
X123991500Y-78617043D01*
X123990763Y-78630650D01*
X123987811Y-78657829D01*
X123986555Y-78669387D01*
X123987092Y-78675525D01*
X123987092Y-78675530D01*
X123991067Y-78720963D01*
X123991397Y-78725800D01*
X123991500Y-78727909D01*
X123991500Y-78730994D01*
X123994401Y-78760574D01*
X123995568Y-78772477D01*
X123995686Y-78773751D01*
X124003795Y-78866435D01*
X124005282Y-78871553D01*
X124005802Y-78876857D01*
X124007583Y-78882756D01*
X124032654Y-78965795D01*
X124033024Y-78967043D01*
X124034975Y-78973758D01*
X124054663Y-79041525D01*
X124058979Y-79056382D01*
X124061434Y-79061119D01*
X124062973Y-79066215D01*
X124065862Y-79071648D01*
X124065863Y-79071651D01*
X124106608Y-79148282D01*
X124107220Y-79149449D01*
X124150007Y-79231992D01*
X124153333Y-79236159D01*
X124155834Y-79240862D01*
X124159728Y-79245637D01*
X124159729Y-79245638D01*
X124214556Y-79312862D01*
X124215385Y-79313890D01*
X124243771Y-79349449D01*
X124243780Y-79349459D01*
X124245980Y-79352215D01*
X124248486Y-79354721D01*
X124248960Y-79355251D01*
X124252665Y-79359589D01*
X124280850Y-79394147D01*
X124317169Y-79424193D01*
X124325935Y-79432170D01*
X125042366Y-80148600D01*
X125051468Y-80158744D01*
X125075882Y-80189109D01*
X125080600Y-80193068D01*
X125080605Y-80193073D01*
X125115548Y-80222393D01*
X125119201Y-80225579D01*
X125120748Y-80226982D01*
X125122941Y-80229175D01*
X125155183Y-80255660D01*
X125156121Y-80256438D01*
X125165866Y-80264615D01*
X125227406Y-80316253D01*
X125232079Y-80318822D01*
X125236195Y-80322203D01*
X125318182Y-80366164D01*
X125319054Y-80366637D01*
X125400740Y-80411544D01*
X125405824Y-80413157D01*
X125410517Y-80415673D01*
X125488243Y-80439437D01*
X125499387Y-80442844D01*
X125500645Y-80443236D01*
X125589282Y-80471353D01*
X125594578Y-80471947D01*
X125599674Y-80473505D01*
X125605807Y-80474128D01*
X125605812Y-80474129D01*
X125666017Y-80480244D01*
X125692198Y-80482903D01*
X125693385Y-80483029D01*
X125742155Y-80488500D01*
X125745679Y-80488500D01*
X125746430Y-80488542D01*
X125752129Y-80488991D01*
X125790334Y-80492872D01*
X125790339Y-80492872D01*
X125796462Y-80493494D01*
X125843381Y-80489059D01*
X125855238Y-80488500D01*
X128697045Y-80488500D01*
X128710653Y-80489237D01*
X128743263Y-80492780D01*
X128743266Y-80492780D01*
X128749387Y-80493445D01*
X128755525Y-80492908D01*
X128755530Y-80492908D01*
X128800963Y-80488933D01*
X128805800Y-80488603D01*
X128807909Y-80488500D01*
X128810994Y-80488500D01*
X128852552Y-80484425D01*
X128853751Y-80484314D01*
X128894138Y-80480780D01*
X128940300Y-80476742D01*
X128940303Y-80476742D01*
X128946435Y-80476205D01*
X128951553Y-80474718D01*
X128956857Y-80474198D01*
X129030380Y-80452000D01*
X129045795Y-80447346D01*
X129047060Y-80446971D01*
X129130473Y-80422738D01*
X129130476Y-80422737D01*
X129136382Y-80421021D01*
X129141119Y-80418566D01*
X129146215Y-80417027D01*
X129151648Y-80414138D01*
X129151651Y-80414137D01*
X129228282Y-80373392D01*
X129229449Y-80372780D01*
X129306517Y-80332831D01*
X129311992Y-80329993D01*
X129316159Y-80326667D01*
X129320862Y-80324166D01*
X129325805Y-80320135D01*
X129392862Y-80265444D01*
X129393890Y-80264615D01*
X129429449Y-80236229D01*
X129429459Y-80236220D01*
X129432215Y-80234020D01*
X129434721Y-80231514D01*
X129435251Y-80231040D01*
X129439589Y-80227335D01*
X129474147Y-80199150D01*
X129478207Y-80194243D01*
X129504186Y-80162839D01*
X129512176Y-80154059D01*
X131468601Y-78197634D01*
X131478744Y-78188532D01*
X131503018Y-78169015D01*
X131509109Y-78164118D01*
X131528043Y-78141554D01*
X131542381Y-78124466D01*
X131545564Y-78120817D01*
X131546985Y-78119250D01*
X131549176Y-78117059D01*
X131575673Y-78084801D01*
X131576488Y-78083819D01*
X131606622Y-78047906D01*
X131636253Y-78012594D01*
X131638822Y-78007921D01*
X131642203Y-78003805D01*
X131686105Y-77921928D01*
X131686717Y-77920801D01*
X131728573Y-77844667D01*
X131728578Y-77844654D01*
X131731544Y-77839260D01*
X131733155Y-77834180D01*
X131735674Y-77829483D01*
X131762887Y-77740473D01*
X131763208Y-77739443D01*
X131791353Y-77650718D01*
X131791947Y-77645422D01*
X131793505Y-77640326D01*
X131802908Y-77547753D01*
X131803028Y-77546633D01*
X131808500Y-77497845D01*
X131808500Y-77494320D01*
X131808542Y-77493569D01*
X131808991Y-77487870D01*
X131812872Y-77449665D01*
X131812872Y-77449660D01*
X131813494Y-77443537D01*
X131809059Y-77396618D01*
X131808500Y-77384761D01*
X131808500Y-73779925D01*
X131828502Y-73711804D01*
X131845405Y-73690830D01*
X133218601Y-72317634D01*
X133228744Y-72308532D01*
X133229038Y-72308296D01*
X133259109Y-72284118D01*
X133263832Y-72278490D01*
X133292381Y-72244466D01*
X133295564Y-72240817D01*
X133296985Y-72239250D01*
X133299176Y-72237059D01*
X133325673Y-72204801D01*
X133326488Y-72203819D01*
X133363081Y-72160209D01*
X133386253Y-72132594D01*
X133388822Y-72127921D01*
X133392203Y-72123805D01*
X133436105Y-72041928D01*
X133436717Y-72040801D01*
X133478573Y-71964667D01*
X133478578Y-71964654D01*
X133481544Y-71959260D01*
X133483155Y-71954180D01*
X133485674Y-71949483D01*
X133489501Y-71936967D01*
X133500215Y-71901920D01*
X133512887Y-71860473D01*
X133513208Y-71859443D01*
X133541353Y-71770718D01*
X133541947Y-71765422D01*
X133543505Y-71760326D01*
X133552908Y-71667753D01*
X133553028Y-71666633D01*
X133558500Y-71617845D01*
X133558500Y-71614320D01*
X133558542Y-71613569D01*
X133558991Y-71607870D01*
X133562872Y-71569665D01*
X133562872Y-71569660D01*
X133563494Y-71563537D01*
X133559059Y-71516618D01*
X133558500Y-71504761D01*
X133558500Y-71359500D01*
X133578502Y-71291379D01*
X133632158Y-71244886D01*
X133684500Y-71233500D01*
X133733629Y-71233500D01*
X133801750Y-71253502D01*
X133822724Y-71270405D01*
X134254497Y-71702178D01*
X134266882Y-71716589D01*
X134279111Y-71733206D01*
X134284694Y-71737949D01*
X134317851Y-71766118D01*
X134325367Y-71773048D01*
X134331485Y-71779166D01*
X134354876Y-71797671D01*
X134358224Y-71800416D01*
X134413876Y-71847697D01*
X134420395Y-71851025D01*
X134425414Y-71854373D01*
X134430560Y-71857551D01*
X134436303Y-71862095D01*
X134502439Y-71893005D01*
X134506336Y-71894910D01*
X134571365Y-71928115D01*
X134578476Y-71929855D01*
X134584133Y-71931959D01*
X134589871Y-71933868D01*
X134596502Y-71936967D01*
X134603662Y-71938456D01*
X134603673Y-71938460D01*
X134667993Y-71951839D01*
X134672280Y-71952809D01*
X134737672Y-71968810D01*
X134737678Y-71968811D01*
X134743130Y-71970145D01*
X134748734Y-71970493D01*
X134748736Y-71970493D01*
X134755523Y-71970914D01*
X134758920Y-71971171D01*
X134762462Y-71971487D01*
X134769629Y-71972978D01*
X134841031Y-71971046D01*
X134844439Y-71971000D01*
X135530936Y-71971000D01*
X135599057Y-71991002D01*
X135645550Y-72044658D01*
X135655654Y-72114932D01*
X135639890Y-72160285D01*
X135572233Y-72276766D01*
X135523073Y-72439080D01*
X135522498Y-72445520D01*
X135522498Y-72445521D01*
X135522276Y-72448014D01*
X135516500Y-72512727D01*
X135516500Y-72822906D01*
X135496498Y-72891027D01*
X135479595Y-72912001D01*
X134377487Y-74014109D01*
X134369399Y-74021469D01*
X134363005Y-74025527D01*
X134357580Y-74031304D01*
X134317131Y-74074378D01*
X134314376Y-74077220D01*
X134294062Y-74097534D01*
X134291417Y-74100945D01*
X134283713Y-74109965D01*
X134253443Y-74142199D01*
X134249626Y-74149143D01*
X134249624Y-74149145D01*
X134243682Y-74159953D01*
X134232828Y-74176477D01*
X134220417Y-74192477D01*
X134217270Y-74199748D01*
X134217270Y-74199749D01*
X134202859Y-74233051D01*
X134197638Y-74243707D01*
X134176338Y-74282452D01*
X134174366Y-74290135D01*
X134174365Y-74290136D01*
X134171301Y-74302068D01*
X134164897Y-74320772D01*
X134160001Y-74332085D01*
X134159999Y-74332092D01*
X134156852Y-74339364D01*
X134155613Y-74347188D01*
X134155612Y-74347191D01*
X134149935Y-74383035D01*
X134147528Y-74394656D01*
X134140881Y-74420548D01*
X134136535Y-74437475D01*
X134136500Y-74438031D01*
X134136500Y-74457952D01*
X134134949Y-74477662D01*
X134131816Y-74497444D01*
X134132562Y-74505336D01*
X134135941Y-74541082D01*
X134136500Y-74552940D01*
X134136500Y-79573656D01*
X134116498Y-79641777D01*
X134062842Y-79688270D01*
X133992568Y-79698374D01*
X133959250Y-79688762D01*
X133948322Y-79683896D01*
X133948314Y-79683893D01*
X133942287Y-79681210D01*
X133848887Y-79661357D01*
X133761944Y-79642876D01*
X133761939Y-79642876D01*
X133755487Y-79641504D01*
X133564513Y-79641504D01*
X133558061Y-79642876D01*
X133558056Y-79642876D01*
X133471113Y-79661357D01*
X133377713Y-79681210D01*
X133371683Y-79683895D01*
X133371682Y-79683895D01*
X133209280Y-79756201D01*
X133209278Y-79756202D01*
X133203250Y-79758886D01*
X133197909Y-79762766D01*
X133197908Y-79762767D01*
X133054093Y-79867254D01*
X133054091Y-79867256D01*
X133048749Y-79871137D01*
X133044328Y-79876047D01*
X133044327Y-79876048D01*
X132959534Y-79970221D01*
X132920963Y-80013058D01*
X132893218Y-80061114D01*
X132837128Y-80158265D01*
X132825476Y-80178446D01*
X132809987Y-80226115D01*
X132776236Y-80329993D01*
X132766462Y-80360073D01*
X132765772Y-80366636D01*
X132765772Y-80366637D01*
X132749097Y-80525290D01*
X132722084Y-80590946D01*
X132712882Y-80601214D01*
X130644501Y-82669595D01*
X130582189Y-82703621D01*
X130555406Y-82706500D01*
X120226530Y-82706500D01*
X120158409Y-82686498D01*
X120111916Y-82632842D01*
X120101812Y-82562568D01*
X120135057Y-82493847D01*
X120235922Y-82387371D01*
X120244635Y-82375724D01*
X120326043Y-82235571D01*
X120331837Y-82222246D01*
X120379068Y-82066300D01*
X120381516Y-82053677D01*
X120387751Y-81983816D01*
X120388000Y-81978221D01*
X120388000Y-81722115D01*
X120383525Y-81706876D01*
X120382135Y-81705671D01*
X120374452Y-81704000D01*
X119252000Y-81704000D01*
X119183879Y-81683998D01*
X119137386Y-81630342D01*
X119126000Y-81578000D01*
X119126000Y-80586548D01*
X119634000Y-80586548D01*
X119634000Y-81177885D01*
X119638475Y-81193124D01*
X119639865Y-81194329D01*
X119647548Y-81196000D01*
X120369885Y-81196000D01*
X120385124Y-81191525D01*
X120386329Y-81190135D01*
X120388000Y-81182452D01*
X120388000Y-80935777D01*
X120387576Y-80928476D01*
X120373383Y-80806745D01*
X120370037Y-80792590D01*
X120314737Y-80640239D01*
X120308227Y-80627240D01*
X120219359Y-80491694D01*
X120205337Y-80474923D01*
X120207738Y-80472915D01*
X120179114Y-80423655D01*
X120182294Y-80352729D01*
X120210006Y-80306954D01*
X120275922Y-80237371D01*
X120284635Y-80225724D01*
X120366043Y-80085571D01*
X120371837Y-80072246D01*
X120419068Y-79916300D01*
X120421516Y-79903677D01*
X120427751Y-79833816D01*
X120428000Y-79828221D01*
X120428000Y-79572115D01*
X120423525Y-79556876D01*
X120422135Y-79555671D01*
X120414452Y-79554000D01*
X119692115Y-79554000D01*
X119676876Y-79558475D01*
X119675671Y-79559865D01*
X119674000Y-79567548D01*
X119674000Y-80487636D01*
X119653998Y-80555757D01*
X119643224Y-80570149D01*
X119635671Y-80578865D01*
X119634000Y-80586548D01*
X119126000Y-80586548D01*
X119126000Y-80262364D01*
X119146002Y-80194243D01*
X119156776Y-80179851D01*
X119164329Y-80171135D01*
X119166000Y-80163452D01*
X119166000Y-78476548D01*
X119674000Y-78476548D01*
X119674000Y-79027885D01*
X119678475Y-79043124D01*
X119679865Y-79044329D01*
X119687548Y-79046000D01*
X120409885Y-79046000D01*
X120425124Y-79041525D01*
X120426329Y-79040135D01*
X120428000Y-79032452D01*
X120428000Y-78785777D01*
X120427576Y-78778476D01*
X120413383Y-78656745D01*
X120410037Y-78642590D01*
X120354737Y-78490239D01*
X120348227Y-78477240D01*
X120259362Y-78341698D01*
X120248574Y-78328796D01*
X120220222Y-78263706D01*
X120231561Y-78193621D01*
X120253763Y-78161319D01*
X120285922Y-78127371D01*
X120294635Y-78115724D01*
X120376043Y-77975571D01*
X120381837Y-77962246D01*
X120429068Y-77806300D01*
X120431516Y-77793677D01*
X120437751Y-77723816D01*
X120438000Y-77718221D01*
X120438000Y-77462115D01*
X120433525Y-77446876D01*
X120432135Y-77445671D01*
X120424452Y-77444000D01*
X119702115Y-77444000D01*
X119686876Y-77448475D01*
X119685671Y-77449865D01*
X119684000Y-77457548D01*
X119684000Y-78417030D01*
X119681121Y-78443813D01*
X119674000Y-78476548D01*
X119166000Y-78476548D01*
X119166000Y-78072970D01*
X119168879Y-78046187D01*
X119176000Y-78013452D01*
X119176000Y-77062000D01*
X119196002Y-76993879D01*
X119249658Y-76947386D01*
X119302000Y-76936000D01*
X120419885Y-76936000D01*
X120435124Y-76931525D01*
X120436329Y-76930135D01*
X120438000Y-76922452D01*
X120438000Y-76675777D01*
X120437576Y-76668476D01*
X120423383Y-76546745D01*
X120420037Y-76532590D01*
X120364737Y-76380239D01*
X120358227Y-76367240D01*
X120269359Y-76231694D01*
X120260035Y-76220542D01*
X120142371Y-76109078D01*
X120130721Y-76100362D01*
X120009227Y-76029793D01*
X119960368Y-75978282D01*
X119947114Y-75908534D01*
X119951921Y-75884316D01*
X119984463Y-75776870D01*
X119986911Y-75764248D01*
X119992751Y-75698815D01*
X119993000Y-75693220D01*
X119993000Y-75662115D01*
X119988525Y-75646876D01*
X119987135Y-75645671D01*
X119979452Y-75644000D01*
X118907000Y-75644000D01*
X118838879Y-75623998D01*
X118792386Y-75570342D01*
X118781000Y-75518000D01*
X118781000Y-74425115D01*
X118776525Y-74409876D01*
X118775135Y-74408671D01*
X118768153Y-74407153D01*
X118763473Y-74407425D01*
X118647495Y-74420946D01*
X118633343Y-74424291D01*
X118543706Y-74456828D01*
X118472849Y-74461269D01*
X118410838Y-74426696D01*
X118389464Y-74397543D01*
X118378412Y-74376757D01*
X118377827Y-74375643D01*
X118337826Y-74298472D01*
X118337822Y-74298466D01*
X118334993Y-74293008D01*
X118331667Y-74288841D01*
X118329166Y-74284138D01*
X118325275Y-74279368D01*
X118325273Y-74279364D01*
X118270447Y-74212141D01*
X118269619Y-74211116D01*
X118241218Y-74175539D01*
X118241215Y-74175536D01*
X118239020Y-74172786D01*
X118236525Y-74170291D01*
X118236043Y-74169752D01*
X118232326Y-74165400D01*
X118208045Y-74135628D01*
X118208042Y-74135625D01*
X118204150Y-74130853D01*
X118167832Y-74100808D01*
X118159053Y-74092819D01*
X118152298Y-74086064D01*
X119278490Y-74086064D01*
X119287787Y-74098080D01*
X119338995Y-74133936D01*
X119348481Y-74139414D01*
X119414877Y-74170375D01*
X119468162Y-74217293D01*
X119487623Y-74285570D01*
X119467081Y-74353530D01*
X119413058Y-74399595D01*
X119350424Y-74410071D01*
X119318810Y-74407249D01*
X119313220Y-74407000D01*
X119307115Y-74407000D01*
X119291876Y-74411475D01*
X119290671Y-74412865D01*
X119289000Y-74420548D01*
X119289000Y-75117885D01*
X119293475Y-75133124D01*
X119294865Y-75134329D01*
X119302548Y-75136000D01*
X119974885Y-75136000D01*
X119990124Y-75131525D01*
X119991329Y-75130135D01*
X119993000Y-75122452D01*
X119993000Y-75100777D01*
X119992575Y-75093473D01*
X119979054Y-74977495D01*
X119975709Y-74963343D01*
X119922383Y-74816433D01*
X119915873Y-74803434D01*
X119830180Y-74672730D01*
X119820856Y-74661578D01*
X119707393Y-74554094D01*
X119695751Y-74545385D01*
X119643318Y-74514929D01*
X119594460Y-74463417D01*
X119581206Y-74393669D01*
X119607766Y-74327827D01*
X119665706Y-74286797D01*
X119739217Y-74284269D01*
X119766683Y-74291629D01*
X119777477Y-74293532D01*
X119994525Y-74312521D01*
X120005475Y-74312521D01*
X120222523Y-74293532D01*
X120233310Y-74291630D01*
X120443761Y-74235239D01*
X120454057Y-74231491D01*
X120651519Y-74139414D01*
X120661005Y-74133936D01*
X120713051Y-74097494D01*
X120721426Y-74087016D01*
X120714358Y-74073568D01*
X120012812Y-73372022D01*
X119998868Y-73364408D01*
X119997035Y-73364539D01*
X119990420Y-73368790D01*
X119284920Y-74074290D01*
X119278490Y-74086064D01*
X118152298Y-74086064D01*
X117459786Y-73393552D01*
X117425760Y-73331240D01*
X117425521Y-73278798D01*
X117431107Y-73251945D01*
X117437534Y-73221044D01*
X117432751Y-73044277D01*
X117426565Y-73020944D01*
X117419560Y-72994525D01*
X118687479Y-72994525D01*
X118687479Y-73005475D01*
X118706468Y-73222523D01*
X118708370Y-73233310D01*
X118764761Y-73443761D01*
X118768509Y-73454057D01*
X118860586Y-73651519D01*
X118866064Y-73661005D01*
X118902506Y-73713051D01*
X118912984Y-73721426D01*
X118926432Y-73714358D01*
X119627978Y-73012812D01*
X119635592Y-72998868D01*
X119635461Y-72997035D01*
X119631210Y-72990420D01*
X118925710Y-72284920D01*
X118913936Y-72278490D01*
X118901920Y-72287787D01*
X118866064Y-72338995D01*
X118860586Y-72348481D01*
X118768509Y-72545943D01*
X118764761Y-72556239D01*
X118708370Y-72766690D01*
X118706468Y-72777477D01*
X118687479Y-72994525D01*
X117419560Y-72994525D01*
X117397678Y-72912001D01*
X117387430Y-72873350D01*
X117304004Y-72717433D01*
X117253011Y-72656446D01*
X117094824Y-72498259D01*
X117060798Y-72435947D01*
X117065863Y-72365132D01*
X117108410Y-72308296D01*
X117170748Y-72283854D01*
X117275181Y-72272878D01*
X117283825Y-72271353D01*
X117547776Y-72205543D01*
X117556134Y-72202828D01*
X117808361Y-72100920D01*
X117816253Y-72097071D01*
X118051844Y-71961053D01*
X118059120Y-71956145D01*
X118114365Y-71912984D01*
X119278574Y-71912984D01*
X119285642Y-71926432D01*
X119987188Y-72627978D01*
X120001132Y-72635592D01*
X120002965Y-72635461D01*
X120009580Y-72631210D01*
X120715080Y-71925710D01*
X120721510Y-71913936D01*
X120712213Y-71901920D01*
X120661005Y-71866064D01*
X120651519Y-71860586D01*
X120454057Y-71768509D01*
X120443761Y-71764761D01*
X120233310Y-71708370D01*
X120222523Y-71706468D01*
X120005475Y-71687479D01*
X119994525Y-71687479D01*
X119777477Y-71706468D01*
X119766690Y-71708370D01*
X119556239Y-71764761D01*
X119545943Y-71768509D01*
X119348481Y-71860586D01*
X119338995Y-71866064D01*
X119286949Y-71902506D01*
X119278574Y-71912984D01*
X118114365Y-71912984D01*
X118144671Y-71889307D01*
X118153139Y-71877495D01*
X118146602Y-71865812D01*
X116942812Y-70662022D01*
X116928868Y-70654408D01*
X116927035Y-70654539D01*
X116920420Y-70658790D01*
X115710813Y-71868397D01*
X115704570Y-71879830D01*
X115714334Y-71892226D01*
X115749667Y-71916058D01*
X115794957Y-71970733D01*
X115803497Y-72041214D01*
X115772577Y-72105124D01*
X115760031Y-72117180D01*
X115742081Y-72132189D01*
X115738388Y-72135277D01*
X115736404Y-72137261D01*
X115736392Y-72137272D01*
X115273879Y-72599785D01*
X115211567Y-72633811D01*
X115140752Y-72628746D01*
X115095689Y-72599785D01*
X114723391Y-72227487D01*
X114716028Y-72219395D01*
X114711973Y-72213005D01*
X114711294Y-72212368D01*
X114684514Y-72149984D01*
X114696226Y-72079960D01*
X114720515Y-72045820D01*
X115175434Y-71590901D01*
X115191084Y-71571120D01*
X115200349Y-71559410D01*
X115258301Y-71518397D01*
X115305302Y-71516296D01*
X115305332Y-71514378D01*
X115341220Y-71514947D01*
X115352297Y-71508493D01*
X116569658Y-70291132D01*
X117294408Y-70291132D01*
X117294539Y-70292965D01*
X117298790Y-70299580D01*
X118505984Y-71506774D01*
X118518095Y-71513387D01*
X118529714Y-71504559D01*
X118634532Y-71360291D01*
X118639191Y-71352835D01*
X118766900Y-71112648D01*
X118770471Y-71104628D01*
X118863515Y-70848994D01*
X118865934Y-70840557D01*
X118922497Y-70574451D01*
X118923717Y-70565770D01*
X118942693Y-70294390D01*
X118942693Y-70285610D01*
X118923717Y-70014230D01*
X118922497Y-70005549D01*
X118865934Y-69739443D01*
X118863515Y-69731006D01*
X118770471Y-69475372D01*
X118766900Y-69467352D01*
X118639191Y-69227165D01*
X118634532Y-69219709D01*
X118529445Y-69075070D01*
X118518520Y-69066646D01*
X118505661Y-69073549D01*
X117302022Y-70277188D01*
X117294408Y-70291132D01*
X116569658Y-70291132D01*
X118146133Y-68714657D01*
X118153101Y-68701897D01*
X118145190Y-68691099D01*
X118059120Y-68623855D01*
X118051844Y-68618947D01*
X117816253Y-68482929D01*
X117808361Y-68479080D01*
X117714916Y-68441325D01*
X117659249Y-68397261D01*
X117636241Y-68330096D01*
X117653198Y-68261154D01*
X117704736Y-68212324D01*
X117762117Y-68198500D01*
X120720915Y-68198500D01*
X120733648Y-68199145D01*
G37*
%TD.AperFunction*%
%TA.AperFunction,Conductor*%
G36*
X90376121Y-81596002D02*
G01*
X90422614Y-81649658D01*
X90434000Y-81702000D01*
X90434000Y-81958000D01*
X90413998Y-82026121D01*
X90360342Y-82072614D01*
X90308000Y-82084000D01*
X83872000Y-82084000D01*
X83803879Y-82063998D01*
X83757386Y-82010342D01*
X83746000Y-81958000D01*
X83746000Y-81702000D01*
X83766002Y-81633879D01*
X83819658Y-81587386D01*
X83872000Y-81576000D01*
X90308000Y-81576000D01*
X90376121Y-81596002D01*
G37*
%TD.AperFunction*%
%TA.AperFunction,Conductor*%
G36*
X115947395Y-75834287D02*
G01*
X115992458Y-75863248D01*
X116173478Y-76044268D01*
X116207504Y-76106580D01*
X116202439Y-76177395D01*
X116173478Y-76222458D01*
X115401779Y-76994157D01*
X115394793Y-77006950D01*
X115402657Y-77017703D01*
X115474998Y-77074425D01*
X115487898Y-77082239D01*
X115630191Y-77146486D01*
X115644585Y-77150997D01*
X115798093Y-77179447D01*
X115813142Y-77180394D01*
X115969005Y-77171407D01*
X115983853Y-77168736D01*
X116133075Y-77122829D01*
X116146855Y-77116694D01*
X116280794Y-77036534D01*
X116349518Y-77018714D01*
X116416966Y-77040878D01*
X116461725Y-77095989D01*
X116471500Y-77144650D01*
X116471500Y-80805500D01*
X116451498Y-80873621D01*
X116397842Y-80920114D01*
X116345500Y-80931500D01*
X115696609Y-80931500D01*
X115655281Y-80924529D01*
X115464217Y-80858180D01*
X115321550Y-80837494D01*
X115260832Y-80828690D01*
X115260829Y-80828690D01*
X115254892Y-80827829D01*
X115046081Y-80837494D01*
X115046078Y-80837494D01*
X115043604Y-80837609D01*
X115043582Y-80837132D01*
X114976992Y-80827460D01*
X114923404Y-80780890D01*
X114903500Y-80712922D01*
X114903500Y-79438383D01*
X114904014Y-79427479D01*
X114905666Y-79420088D01*
X114903562Y-79353134D01*
X114903500Y-79349176D01*
X114903500Y-79320422D01*
X114902961Y-79316155D01*
X114902027Y-79304305D01*
X114900888Y-79268040D01*
X114900639Y-79260117D01*
X114894988Y-79240666D01*
X114890978Y-79221304D01*
X114889433Y-79209073D01*
X114888440Y-79201212D01*
X114872166Y-79160108D01*
X114868321Y-79148878D01*
X114858198Y-79114034D01*
X114858197Y-79114032D01*
X114855986Y-79106421D01*
X114845677Y-79088989D01*
X114836980Y-79071236D01*
X114832442Y-79059775D01*
X114829522Y-79052400D01*
X114803531Y-79016626D01*
X114797016Y-79006707D01*
X114777529Y-78973758D01*
X114777527Y-78973755D01*
X114774513Y-78968659D01*
X114774145Y-78968241D01*
X114760062Y-78954158D01*
X114747228Y-78939133D01*
X114735446Y-78922917D01*
X114701664Y-78894970D01*
X114692885Y-78886981D01*
X114613391Y-78807487D01*
X114606031Y-78799399D01*
X114601973Y-78793005D01*
X114553121Y-78747130D01*
X114550280Y-78744376D01*
X114529966Y-78724062D01*
X114526555Y-78721417D01*
X114517533Y-78713711D01*
X114491077Y-78688867D01*
X114485301Y-78683443D01*
X114478357Y-78679626D01*
X114478355Y-78679624D01*
X114467547Y-78673682D01*
X114451023Y-78662828D01*
X114441286Y-78655275D01*
X114441285Y-78655275D01*
X114435023Y-78650417D01*
X114394447Y-78632858D01*
X114383790Y-78627637D01*
X114376929Y-78623865D01*
X114345048Y-78606338D01*
X114337365Y-78604366D01*
X114337364Y-78604365D01*
X114325432Y-78601301D01*
X114306728Y-78594897D01*
X114295415Y-78590001D01*
X114295408Y-78589999D01*
X114288136Y-78586852D01*
X114280312Y-78585613D01*
X114280309Y-78585612D01*
X114244465Y-78579935D01*
X114232844Y-78577528D01*
X114195782Y-78568013D01*
X114195781Y-78568013D01*
X114190025Y-78566535D01*
X114189469Y-78566500D01*
X114169548Y-78566500D01*
X114149838Y-78564949D01*
X114137886Y-78563056D01*
X114137885Y-78563056D01*
X114130056Y-78561816D01*
X114122164Y-78562562D01*
X114086418Y-78565941D01*
X114074560Y-78566500D01*
X113519035Y-78566500D01*
X113450914Y-78546498D01*
X113404421Y-78492842D01*
X113394317Y-78422568D01*
X113395675Y-78414842D01*
X113413827Y-78327568D01*
X113423444Y-78281333D01*
X113423488Y-78281342D01*
X113448305Y-78218220D01*
X113505880Y-78176679D01*
X113544420Y-78169537D01*
X113563700Y-78169015D01*
X113571017Y-78168817D01*
X113736347Y-78124981D01*
X113742797Y-78121530D01*
X113742799Y-78121529D01*
X113822301Y-78078989D01*
X113887157Y-78044286D01*
X113944735Y-77996144D01*
X114332872Y-77608007D01*
X114335142Y-77605138D01*
X114335149Y-77605130D01*
X114407665Y-77513474D01*
X114407668Y-77513470D01*
X114412208Y-77507731D01*
X114484629Y-77352777D01*
X114519460Y-77185317D01*
X114514833Y-77014338D01*
X114470997Y-76849008D01*
X114459364Y-76827266D01*
X114420872Y-76755330D01*
X114390302Y-76698198D01*
X114342160Y-76640620D01*
X114193280Y-76491740D01*
X114159255Y-76429429D01*
X114164319Y-76358613D01*
X114188738Y-76318335D01*
X114200681Y-76305071D01*
X114289037Y-76206942D01*
X114378635Y-76051754D01*
X114430016Y-76002762D01*
X114499730Y-75989326D01*
X114510715Y-75990865D01*
X114589179Y-76005408D01*
X114638803Y-76014605D01*
X114646383Y-76014168D01*
X114646384Y-76014168D01*
X114723693Y-76009710D01*
X114792852Y-76025757D01*
X114842356Y-76076648D01*
X114856697Y-76143416D01*
X114856332Y-76149211D01*
X114865319Y-76305071D01*
X114867990Y-76319919D01*
X114913897Y-76469141D01*
X114920029Y-76482915D01*
X115001140Y-76618443D01*
X115007928Y-76627733D01*
X115009343Y-76629339D01*
X115012072Y-76632244D01*
X115015860Y-76636032D01*
X115029804Y-76643646D01*
X115031637Y-76643515D01*
X115038252Y-76639264D01*
X115814268Y-75863248D01*
X115876580Y-75829222D01*
X115947395Y-75834287D01*
G37*
%TD.AperFunction*%
%TA.AperFunction,Conductor*%
G36*
X74211121Y-76966002D02*
G01*
X74257614Y-77019658D01*
X74269000Y-77072000D01*
X74269000Y-79248000D01*
X74248998Y-79316121D01*
X74195342Y-79362614D01*
X74143000Y-79374000D01*
X73887000Y-79374000D01*
X73818879Y-79353998D01*
X73772386Y-79300342D01*
X73761000Y-79248000D01*
X73761000Y-77072000D01*
X73781002Y-77003879D01*
X73834658Y-76957386D01*
X73887000Y-76946000D01*
X74143000Y-76946000D01*
X74211121Y-76966002D01*
G37*
%TD.AperFunction*%
%TA.AperFunction,Conductor*%
G36*
X94888621Y-60516429D02*
G01*
X94935114Y-60570085D01*
X94946500Y-60622427D01*
X94946500Y-61159135D01*
X94952438Y-61210068D01*
X94959509Y-61270711D01*
X94961140Y-61284704D01*
X94963636Y-61291581D01*
X94963637Y-61291584D01*
X94995514Y-61379404D01*
X95019006Y-61444122D01*
X95111993Y-61585951D01*
X95235115Y-61702586D01*
X95239347Y-61705044D01*
X95270601Y-61739481D01*
X95287126Y-61766715D01*
X95287130Y-61766721D01*
X95290034Y-61771506D01*
X95297829Y-61780332D01*
X95298251Y-61780810D01*
X95300472Y-61783394D01*
X95302755Y-61786124D01*
X95306769Y-61792247D01*
X95312084Y-61797282D01*
X95358632Y-61841377D01*
X95361074Y-61843755D01*
X96023724Y-62506405D01*
X96057750Y-62568717D01*
X96052685Y-62639532D01*
X96010138Y-62696368D01*
X95943618Y-62721179D01*
X95934629Y-62721500D01*
X95758235Y-62721500D01*
X95721395Y-62715994D01*
X95696221Y-62708297D01*
X95696218Y-62708296D01*
X95690326Y-62706495D01*
X95684195Y-62705872D01*
X95684194Y-62705872D01*
X95499666Y-62687128D01*
X95499661Y-62687128D01*
X95493538Y-62686506D01*
X95296615Y-62705121D01*
X95107059Y-62761630D01*
X94932087Y-62853882D01*
X94778368Y-62978361D01*
X94651754Y-63130329D01*
X94557068Y-63303994D01*
X94497918Y-63492743D01*
X94497253Y-63498868D01*
X94497252Y-63498871D01*
X94477883Y-63677165D01*
X94476555Y-63689387D01*
X94481257Y-63743131D01*
X94493213Y-63879779D01*
X94493795Y-63886435D01*
X94548979Y-64076382D01*
X94555343Y-64088659D01*
X94637170Y-64246520D01*
X94637173Y-64246524D01*
X94640007Y-64251992D01*
X94735980Y-64372215D01*
X94738471Y-64374706D01*
X94762372Y-64398606D01*
X94771465Y-64408740D01*
X94795882Y-64439109D01*
X94800606Y-64443073D01*
X94800612Y-64443079D01*
X94835547Y-64472392D01*
X94839206Y-64475584D01*
X94840754Y-64476988D01*
X94842941Y-64479175D01*
X94845321Y-64481130D01*
X94875167Y-64505647D01*
X94876180Y-64506488D01*
X94902050Y-64528195D01*
X94947406Y-64566253D01*
X94952076Y-64568820D01*
X94956194Y-64572203D01*
X94961631Y-64575118D01*
X94961632Y-64575119D01*
X94981940Y-64586008D01*
X95036871Y-64615461D01*
X95038066Y-64616102D01*
X95039125Y-64616676D01*
X95120740Y-64661544D01*
X95125824Y-64663157D01*
X95130517Y-64665673D01*
X95187909Y-64683220D01*
X95219387Y-64692844D01*
X95220645Y-64693236D01*
X95235361Y-64697904D01*
X95309282Y-64721353D01*
X95314578Y-64721947D01*
X95319674Y-64723505D01*
X95325807Y-64724128D01*
X95325812Y-64724129D01*
X95385921Y-64730234D01*
X95412198Y-64732903D01*
X95413385Y-64733029D01*
X95462155Y-64738500D01*
X95465679Y-64738500D01*
X95466430Y-64738542D01*
X95472129Y-64738991D01*
X95510334Y-64742872D01*
X95510339Y-64742872D01*
X95516462Y-64743494D01*
X95563378Y-64739059D01*
X95575237Y-64738500D01*
X96720994Y-64738500D01*
X96866857Y-64724198D01*
X96886868Y-64718156D01*
X96911351Y-64713784D01*
X96911317Y-64713500D01*
X97040194Y-64697904D01*
X97200562Y-64637306D01*
X97232347Y-64615461D01*
X97335587Y-64544506D01*
X97335589Y-64544505D01*
X97341846Y-64540204D01*
X97355001Y-64525440D01*
X97398076Y-64477093D01*
X97458326Y-64439537D01*
X97529316Y-64440517D01*
X97584218Y-64476004D01*
X97584796Y-64476846D01*
X97590466Y-64481898D01*
X97590468Y-64481900D01*
X97707123Y-64585836D01*
X97707125Y-64585838D01*
X97712796Y-64590890D01*
X97719505Y-64594442D01*
X97719509Y-64594445D01*
X97857589Y-64667555D01*
X97857592Y-64667556D01*
X97864304Y-64671110D01*
X98030575Y-64712874D01*
X98036338Y-64713237D01*
X98036341Y-64713237D01*
X98038530Y-64713375D01*
X98038546Y-64713376D01*
X98040525Y-64713500D01*
X98561317Y-64713500D01*
X98690194Y-64697904D01*
X98850562Y-64637306D01*
X98882347Y-64615461D01*
X98985587Y-64544506D01*
X98985589Y-64544505D01*
X98991846Y-64540204D01*
X99002546Y-64528195D01*
X99100836Y-64417877D01*
X99100838Y-64417875D01*
X99105890Y-64412204D01*
X99109442Y-64405495D01*
X99109445Y-64405491D01*
X99182555Y-64267411D01*
X99182556Y-64267408D01*
X99186110Y-64260696D01*
X99227874Y-64094425D01*
X99228374Y-64086484D01*
X99228375Y-64086470D01*
X99228376Y-64086454D01*
X99228500Y-64084475D01*
X99228500Y-63413683D01*
X99212904Y-63284806D01*
X99152306Y-63124438D01*
X99097679Y-63044955D01*
X99059506Y-62989413D01*
X99059505Y-62989411D01*
X99055204Y-62983154D01*
X99049271Y-62977868D01*
X98932877Y-62874164D01*
X98932875Y-62874162D01*
X98927204Y-62869110D01*
X98920495Y-62865558D01*
X98920491Y-62865555D01*
X98782411Y-62792445D01*
X98782408Y-62792444D01*
X98775696Y-62788890D01*
X98756109Y-62783970D01*
X98660161Y-62759870D01*
X98609425Y-62747126D01*
X98603662Y-62746763D01*
X98603659Y-62746763D01*
X98601470Y-62746625D01*
X98601454Y-62746624D01*
X98599475Y-62746500D01*
X98461371Y-62746500D01*
X98393250Y-62726498D01*
X98372276Y-62709595D01*
X98190229Y-62527548D01*
X99722000Y-62527548D01*
X99722000Y-62706028D01*
X99722323Y-62712403D01*
X99736024Y-62847289D01*
X99738578Y-62859729D01*
X99792962Y-63033267D01*
X99797971Y-63044955D01*
X99886138Y-63204013D01*
X99893389Y-63214446D01*
X100011744Y-63352533D01*
X100020935Y-63361286D01*
X100164644Y-63472757D01*
X100175418Y-63479490D01*
X100338596Y-63559784D01*
X100350503Y-63564212D01*
X100408469Y-63579311D01*
X100422564Y-63578877D01*
X100426000Y-63570696D01*
X100426000Y-62532115D01*
X100424659Y-62527548D01*
X100934000Y-62527548D01*
X100934000Y-63569292D01*
X100937973Y-63582823D01*
X100944075Y-63583700D01*
X101096165Y-63527741D01*
X101107571Y-63522179D01*
X101262147Y-63426338D01*
X101272208Y-63418589D01*
X101404345Y-63293633D01*
X101412649Y-63284013D01*
X101516962Y-63135038D01*
X101523159Y-63123950D01*
X101595389Y-62957038D01*
X101599228Y-62944935D01*
X101636734Y-62765406D01*
X101637937Y-62756138D01*
X101638000Y-62753747D01*
X101638000Y-62532115D01*
X101633525Y-62516876D01*
X101632135Y-62515671D01*
X101624452Y-62514000D01*
X100952115Y-62514000D01*
X100936876Y-62518475D01*
X100935671Y-62519865D01*
X100934000Y-62527548D01*
X100424659Y-62527548D01*
X100421525Y-62516876D01*
X100420135Y-62515671D01*
X100412452Y-62514000D01*
X99740115Y-62514000D01*
X99724876Y-62518475D01*
X99723671Y-62519865D01*
X99722000Y-62527548D01*
X98190229Y-62527548D01*
X97713110Y-62050429D01*
X97679084Y-61988117D01*
X97684149Y-61917302D01*
X97726696Y-61860466D01*
X97787615Y-61836182D01*
X97847319Y-61829222D01*
X97861466Y-61825878D01*
X98007022Y-61773043D01*
X98020017Y-61766535D01*
X98020447Y-61766253D01*
X99722000Y-61766253D01*
X99722000Y-61987885D01*
X99726475Y-62003124D01*
X99727865Y-62004329D01*
X99735548Y-62006000D01*
X100407885Y-62006000D01*
X100423124Y-62001525D01*
X100424329Y-62000135D01*
X100426000Y-61992452D01*
X100426000Y-60950708D01*
X100422027Y-60937177D01*
X100415925Y-60936300D01*
X100263835Y-60992259D01*
X100252429Y-60997821D01*
X100097853Y-61093662D01*
X100087792Y-61101411D01*
X99955655Y-61226367D01*
X99947351Y-61235987D01*
X99843038Y-61384962D01*
X99836841Y-61396050D01*
X99764611Y-61562962D01*
X99760772Y-61575065D01*
X99723266Y-61754594D01*
X99722063Y-61763862D01*
X99722000Y-61766253D01*
X98020447Y-61766253D01*
X98149511Y-61681635D01*
X98160663Y-61672311D01*
X98267149Y-61559902D01*
X98275862Y-61548255D01*
X98353635Y-61414360D01*
X98359429Y-61401035D01*
X98404562Y-61252016D01*
X98407010Y-61239393D01*
X98412751Y-61175066D01*
X98413000Y-61169471D01*
X98413000Y-61132115D01*
X98408525Y-61116876D01*
X98407135Y-61115671D01*
X98399452Y-61114000D01*
X97339500Y-61114000D01*
X97271379Y-61093998D01*
X97224886Y-61040342D01*
X97213500Y-60988000D01*
X97213500Y-60732000D01*
X97233502Y-60663879D01*
X97287158Y-60617386D01*
X97339500Y-60606000D01*
X98394885Y-60606000D01*
X98410124Y-60601525D01*
X98411330Y-60600133D01*
X98412307Y-60595643D01*
X98446332Y-60533331D01*
X98508644Y-60499306D01*
X98535427Y-60496427D01*
X100718609Y-60496427D01*
X100786730Y-60516429D01*
X100833223Y-60570085D01*
X100842273Y-60646577D01*
X100824034Y-60739975D01*
X100821814Y-60751341D01*
X100821798Y-60757326D01*
X100821798Y-60757330D01*
X100821557Y-60849526D01*
X100821261Y-60962855D01*
X100830386Y-61010918D01*
X100859217Y-61162776D01*
X100860713Y-61170657D01*
X100925111Y-61332893D01*
X100934000Y-61379379D01*
X100934000Y-61987885D01*
X100938475Y-62003124D01*
X100939865Y-62004329D01*
X100947548Y-62006000D01*
X101597575Y-62006000D01*
X101665696Y-62026002D01*
X101686670Y-62042905D01*
X103072603Y-63428837D01*
X103106628Y-63491149D01*
X103101564Y-63561964D01*
X103059017Y-63618800D01*
X102992497Y-63643611D01*
X102965428Y-63642628D01*
X102800334Y-63618690D01*
X102800331Y-63618690D01*
X102794394Y-63617829D01*
X102583106Y-63627609D01*
X102483650Y-63651578D01*
X102383313Y-63675759D01*
X102383311Y-63675760D01*
X102377480Y-63677165D01*
X102372022Y-63679647D01*
X102372018Y-63679648D01*
X102289504Y-63717165D01*
X102184934Y-63764710D01*
X102012416Y-63887086D01*
X102008267Y-63891420D01*
X102008266Y-63891421D01*
X101870302Y-64035540D01*
X101870298Y-64035545D01*
X101866152Y-64039876D01*
X101862900Y-64044912D01*
X101862898Y-64044915D01*
X101754670Y-64212531D01*
X101751418Y-64217568D01*
X101672354Y-64413749D01*
X101671206Y-64419630D01*
X101671204Y-64419635D01*
X101632962Y-64615461D01*
X101631814Y-64621341D01*
X101631798Y-64627326D01*
X101631798Y-64627330D01*
X101631552Y-64721731D01*
X101631261Y-64832855D01*
X101636915Y-64862635D01*
X101668520Y-65029105D01*
X101670713Y-65040657D01*
X101705186Y-65127505D01*
X101711728Y-65198197D01*
X101679010Y-65261206D01*
X101654097Y-65281307D01*
X101652480Y-65282302D01*
X101609159Y-65308953D01*
X101608435Y-65309662D01*
X101544655Y-65334958D01*
X101474985Y-65321298D01*
X101437413Y-65291488D01*
X101348256Y-65187467D01*
X101339065Y-65178714D01*
X101195356Y-65067243D01*
X101184582Y-65060510D01*
X101021404Y-64980216D01*
X101009497Y-64975788D01*
X100951531Y-64960689D01*
X100937436Y-64961123D01*
X100934000Y-64969304D01*
X100934000Y-66157885D01*
X100938475Y-66173124D01*
X100939865Y-66174329D01*
X100947548Y-66176000D01*
X101242319Y-66176000D01*
X101310440Y-66196002D01*
X101356933Y-66249658D01*
X101361877Y-66262227D01*
X101371523Y-66291224D01*
X101375170Y-66297246D01*
X101375171Y-66297248D01*
X101460611Y-66438326D01*
X101465472Y-66446353D01*
X101470362Y-66451417D01*
X101470363Y-66451418D01*
X101488765Y-66470474D01*
X101521696Y-66533371D01*
X101515396Y-66604087D01*
X101471863Y-66660171D01*
X101398127Y-66684000D01*
X99740115Y-66684000D01*
X99724876Y-66688475D01*
X99723671Y-66689865D01*
X99722000Y-66697548D01*
X99722000Y-67026028D01*
X99722323Y-67032403D01*
X99736024Y-67167289D01*
X99738578Y-67179729D01*
X99792962Y-67353267D01*
X99797971Y-67364955D01*
X99886138Y-67524013D01*
X99893385Y-67534440D01*
X99900438Y-67542669D01*
X99929582Y-67607408D01*
X99919100Y-67677626D01*
X99872318Y-67731031D01*
X99856020Y-67739773D01*
X99836122Y-67748632D01*
X99729283Y-67796199D01*
X99729276Y-67796203D01*
X99723250Y-67798886D01*
X99717909Y-67802766D01*
X99717908Y-67802767D01*
X99574093Y-67907254D01*
X99574091Y-67907256D01*
X99568749Y-67911137D01*
X99564327Y-67916048D01*
X99564326Y-67916049D01*
X99553403Y-67928180D01*
X99492957Y-67965419D01*
X99421973Y-67964067D01*
X99362989Y-67924553D01*
X99347904Y-67901855D01*
X99322829Y-67853481D01*
X99319992Y-67848008D01*
X99316669Y-67843845D01*
X99314166Y-67839138D01*
X99287592Y-67806555D01*
X99255392Y-67767074D01*
X99254563Y-67766046D01*
X99226224Y-67730545D01*
X99226217Y-67730537D01*
X99224020Y-67727785D01*
X99221518Y-67725283D01*
X99221036Y-67724744D01*
X99217319Y-67720391D01*
X99193049Y-67690633D01*
X99193046Y-67690630D01*
X99189150Y-67685853D01*
X99152825Y-67655803D01*
X99144059Y-67647824D01*
X98107638Y-66611404D01*
X98098536Y-66601261D01*
X98095244Y-66597167D01*
X98074118Y-66570891D01*
X98069400Y-66566932D01*
X98069395Y-66566927D01*
X98034452Y-66537607D01*
X98030799Y-66534421D01*
X98029252Y-66533018D01*
X98027059Y-66530825D01*
X97994817Y-66504340D01*
X97993879Y-66503562D01*
X97950356Y-66467042D01*
X97922594Y-66443747D01*
X97917921Y-66441178D01*
X97913805Y-66437797D01*
X97831818Y-66393836D01*
X97830836Y-66393303D01*
X97754661Y-66351425D01*
X97754659Y-66351424D01*
X97749260Y-66348456D01*
X97744176Y-66346843D01*
X97739483Y-66344327D01*
X97650613Y-66317156D01*
X97649355Y-66316764D01*
X97566594Y-66290511D01*
X97560718Y-66288647D01*
X97555422Y-66288053D01*
X97550326Y-66286495D01*
X97544193Y-66285872D01*
X97544188Y-66285871D01*
X97483983Y-66279756D01*
X97457802Y-66277097D01*
X97456615Y-66276971D01*
X97407845Y-66271500D01*
X97404321Y-66271500D01*
X97403570Y-66271458D01*
X97397871Y-66271009D01*
X97359666Y-66267128D01*
X97359661Y-66267128D01*
X97353538Y-66266506D01*
X97310516Y-66270573D01*
X97306621Y-66270941D01*
X97294763Y-66271500D01*
X92887678Y-66271500D01*
X92874070Y-66270763D01*
X92841460Y-66267220D01*
X92841457Y-66267220D01*
X92835336Y-66266555D01*
X92829197Y-66267092D01*
X92829192Y-66267092D01*
X92783755Y-66271067D01*
X92778921Y-66271397D01*
X92776810Y-66271500D01*
X92773729Y-66271500D01*
X92770677Y-66271799D01*
X92770662Y-66271800D01*
X92732285Y-66275563D01*
X92730973Y-66275685D01*
X92644422Y-66283257D01*
X92644418Y-66283258D01*
X92638288Y-66283794D01*
X92633165Y-66285282D01*
X92627866Y-66285802D01*
X92621966Y-66287583D01*
X92621963Y-66287584D01*
X92538954Y-66312646D01*
X92537689Y-66313021D01*
X92507304Y-66321849D01*
X92448342Y-66338979D01*
X92443606Y-66341434D01*
X92438508Y-66342973D01*
X92356414Y-66386623D01*
X92355366Y-66387173D01*
X92278195Y-66427174D01*
X92278189Y-66427178D01*
X92272731Y-66430007D01*
X92268564Y-66433333D01*
X92263861Y-66435834D01*
X92259091Y-66439725D01*
X92259087Y-66439727D01*
X92191864Y-66494553D01*
X92190839Y-66495381D01*
X92163861Y-66516918D01*
X92152509Y-66525980D01*
X92150014Y-66528475D01*
X92149475Y-66528957D01*
X92145123Y-66532674D01*
X92115351Y-66556955D01*
X92115348Y-66556958D01*
X92110576Y-66560850D01*
X92106649Y-66565597D01*
X92106647Y-66565599D01*
X92080532Y-66597167D01*
X92072542Y-66605947D01*
X89331404Y-69347085D01*
X89321262Y-69356187D01*
X89290891Y-69380605D01*
X89286932Y-69385323D01*
X89286927Y-69385328D01*
X89257607Y-69420271D01*
X89254421Y-69423924D01*
X89253018Y-69425471D01*
X89250825Y-69427664D01*
X89224397Y-69459838D01*
X89223562Y-69460844D01*
X89211372Y-69475372D01*
X89163747Y-69532129D01*
X89161178Y-69536802D01*
X89157797Y-69540918D01*
X89113836Y-69622905D01*
X89113321Y-69623853D01*
X89068456Y-69705463D01*
X89066843Y-69710547D01*
X89064327Y-69715240D01*
X89054175Y-69748446D01*
X89037156Y-69804110D01*
X89036764Y-69805368D01*
X89008647Y-69894005D01*
X89008053Y-69899301D01*
X89006495Y-69904397D01*
X89005872Y-69910530D01*
X89005871Y-69910535D01*
X89004355Y-69925461D01*
X88997691Y-69991078D01*
X88997102Y-69996874D01*
X88996971Y-69998108D01*
X88991500Y-70046878D01*
X88991500Y-70050402D01*
X88991458Y-70051153D01*
X88991009Y-70056852D01*
X88987669Y-70089737D01*
X88986506Y-70101185D01*
X88987086Y-70107316D01*
X88990941Y-70148102D01*
X88991500Y-70159960D01*
X88991500Y-71661008D01*
X88971498Y-71729129D01*
X88933622Y-71767005D01*
X88918736Y-71776572D01*
X88871309Y-71807051D01*
X88871306Y-71807053D01*
X88863729Y-71811923D01*
X88857828Y-71818733D01*
X88773918Y-71915569D01*
X88773916Y-71915572D01*
X88768016Y-71922381D01*
X88764272Y-71930579D01*
X88713747Y-72041214D01*
X88707300Y-72055330D01*
X88706018Y-72064247D01*
X88705227Y-72069748D01*
X88675734Y-72134330D01*
X88616008Y-72172714D01*
X88545012Y-72172714D01*
X88491414Y-72140913D01*
X88344302Y-71993801D01*
X88339794Y-71990644D01*
X88339791Y-71990642D01*
X88161259Y-71865633D01*
X88161257Y-71865632D01*
X88156750Y-71862476D01*
X88151768Y-71860153D01*
X88151763Y-71860150D01*
X87954225Y-71768037D01*
X87954224Y-71768036D01*
X87949243Y-71765714D01*
X87943935Y-71764292D01*
X87943933Y-71764291D01*
X87733402Y-71707879D01*
X87733400Y-71707879D01*
X87728087Y-71706455D01*
X87500000Y-71686500D01*
X87271913Y-71706455D01*
X87266600Y-71707879D01*
X87266598Y-71707879D01*
X87056067Y-71764291D01*
X87056065Y-71764292D01*
X87050757Y-71765714D01*
X87045776Y-71768036D01*
X87045775Y-71768037D01*
X86848237Y-71860150D01*
X86848232Y-71860153D01*
X86843250Y-71862476D01*
X86838743Y-71865632D01*
X86838741Y-71865633D01*
X86660209Y-71990642D01*
X86660206Y-71990644D01*
X86655698Y-71993801D01*
X86589095Y-72060404D01*
X86526783Y-72094430D01*
X86455968Y-72089365D01*
X86410905Y-72060404D01*
X86344302Y-71993801D01*
X86339794Y-71990644D01*
X86339791Y-71990642D01*
X86161259Y-71865633D01*
X86161257Y-71865632D01*
X86156750Y-71862476D01*
X86151768Y-71860153D01*
X86151763Y-71860150D01*
X85954225Y-71768037D01*
X85954224Y-71768036D01*
X85949243Y-71765714D01*
X85943935Y-71764292D01*
X85943933Y-71764291D01*
X85733402Y-71707879D01*
X85733400Y-71707879D01*
X85728087Y-71706455D01*
X85500000Y-71686500D01*
X85271913Y-71706455D01*
X85266600Y-71707879D01*
X85266598Y-71707879D01*
X85056067Y-71764291D01*
X85056065Y-71764292D01*
X85050757Y-71765714D01*
X85045776Y-71768036D01*
X85045775Y-71768037D01*
X84848237Y-71860150D01*
X84848232Y-71860153D01*
X84843250Y-71862476D01*
X84838743Y-71865632D01*
X84838741Y-71865633D01*
X84660209Y-71990642D01*
X84660206Y-71990644D01*
X84655698Y-71993801D01*
X84493801Y-72155698D01*
X84490644Y-72160206D01*
X84490642Y-72160209D01*
X84377226Y-72322185D01*
X84362476Y-72343250D01*
X84360153Y-72348232D01*
X84358829Y-72350525D01*
X84307446Y-72399517D01*
X84237732Y-72412952D01*
X84171822Y-72386565D01*
X84140592Y-72350524D01*
X84133931Y-72338987D01*
X84097494Y-72286949D01*
X84087016Y-72278574D01*
X84073568Y-72285642D01*
X83372022Y-72987188D01*
X83364408Y-73001132D01*
X83364539Y-73002965D01*
X83368790Y-73009580D01*
X84074290Y-73715080D01*
X84086064Y-73721510D01*
X84098080Y-73712213D01*
X84133931Y-73661013D01*
X84140592Y-73649476D01*
X84191976Y-73600483D01*
X84261689Y-73587048D01*
X84327600Y-73613435D01*
X84358829Y-73649475D01*
X84360153Y-73651768D01*
X84362476Y-73656750D01*
X84365628Y-73661252D01*
X84365630Y-73661255D01*
X84484752Y-73831379D01*
X84493801Y-73844302D01*
X84655698Y-74006199D01*
X84660206Y-74009356D01*
X84660209Y-74009358D01*
X84838741Y-74134367D01*
X84843250Y-74137524D01*
X84848232Y-74139847D01*
X84848237Y-74139850D01*
X85044763Y-74231491D01*
X85050757Y-74234286D01*
X85086239Y-74243793D01*
X85146860Y-74280745D01*
X85177882Y-74344606D01*
X85169453Y-74415100D01*
X85124250Y-74469847D01*
X85053626Y-74491500D01*
X85043791Y-74491500D01*
X85025859Y-74490217D01*
X85004459Y-74487140D01*
X85004444Y-74487139D01*
X85000000Y-74486500D01*
X84100000Y-74486500D01*
X84026921Y-74491727D01*
X83948835Y-74514655D01*
X83895330Y-74530365D01*
X83895328Y-74530366D01*
X83886684Y-74532904D01*
X83858276Y-74551161D01*
X83771309Y-74607051D01*
X83771306Y-74607053D01*
X83763729Y-74611923D01*
X83757828Y-74618733D01*
X83673918Y-74715569D01*
X83673916Y-74715572D01*
X83668016Y-74722381D01*
X83664272Y-74730579D01*
X83626906Y-74812400D01*
X83607300Y-74855330D01*
X83606018Y-74864245D01*
X83606018Y-74864246D01*
X83587139Y-74995552D01*
X83587138Y-74995559D01*
X83586500Y-75000000D01*
X83586500Y-75214805D01*
X83580865Y-75252062D01*
X83567200Y-75296208D01*
X83566556Y-75302332D01*
X83566556Y-75302334D01*
X83546913Y-75489228D01*
X83519900Y-75554885D01*
X83461678Y-75595515D01*
X83390733Y-75598218D01*
X83339092Y-75571283D01*
X83277619Y-75518016D01*
X83269421Y-75514272D01*
X83152864Y-75461042D01*
X83152863Y-75461042D01*
X83144670Y-75457300D01*
X83135755Y-75456018D01*
X83135754Y-75456018D01*
X83004448Y-75437139D01*
X83004441Y-75437138D01*
X83000000Y-75436500D01*
X82344924Y-75436500D01*
X82276803Y-75416498D01*
X82255829Y-75399595D01*
X82055405Y-75199171D01*
X82021379Y-75136859D01*
X82018500Y-75110076D01*
X82018500Y-75062114D01*
X82003022Y-74929357D01*
X81992711Y-74900949D01*
X81945184Y-74770015D01*
X81942687Y-74763136D01*
X81866968Y-74647645D01*
X81849743Y-74621372D01*
X81849742Y-74621371D01*
X81845731Y-74615253D01*
X81717355Y-74493642D01*
X81564445Y-74404825D01*
X81395204Y-74353567D01*
X81388764Y-74352992D01*
X81388763Y-74352992D01*
X81318815Y-74346749D01*
X81318809Y-74346749D01*
X81316022Y-74346500D01*
X80717114Y-74346500D01*
X80621894Y-74357602D01*
X80591629Y-74361130D01*
X80591628Y-74361130D01*
X80584357Y-74361978D01*
X80577479Y-74364474D01*
X80577477Y-74364475D01*
X80429916Y-74418037D01*
X80418136Y-74422313D01*
X80331404Y-74479177D01*
X80276873Y-74514929D01*
X80270253Y-74519269D01*
X80265222Y-74524580D01*
X80265217Y-74524584D01*
X80150450Y-74645736D01*
X80089081Y-74681435D01*
X80018154Y-74678288D01*
X79960189Y-74637294D01*
X79953606Y-74628171D01*
X79949359Y-74621693D01*
X79940035Y-74610542D01*
X79822371Y-74499078D01*
X79810724Y-74490365D01*
X79670571Y-74408957D01*
X79657246Y-74403163D01*
X79501300Y-74355932D01*
X79488677Y-74353484D01*
X79418816Y-74347249D01*
X79413221Y-74347000D01*
X79382115Y-74347000D01*
X79366876Y-74351475D01*
X79365671Y-74352865D01*
X79364000Y-74360548D01*
X79364000Y-75708000D01*
X79343998Y-75776121D01*
X79290342Y-75822614D01*
X79238000Y-75834000D01*
X78601115Y-75834000D01*
X78585876Y-75838475D01*
X78584671Y-75839865D01*
X78583000Y-75847548D01*
X78583000Y-75868000D01*
X78562998Y-75936121D01*
X78509342Y-75982614D01*
X78457000Y-75994000D01*
X77557115Y-75994000D01*
X77541876Y-75998475D01*
X77540670Y-75999867D01*
X77540144Y-76002284D01*
X77506119Y-76064596D01*
X77443807Y-76098621D01*
X77417024Y-76101500D01*
X77151568Y-76101500D01*
X77083447Y-76081498D01*
X77036954Y-76027842D01*
X77030672Y-76010998D01*
X77026525Y-75996876D01*
X77025135Y-75995671D01*
X77017452Y-75994000D01*
X76113000Y-75994000D01*
X76044879Y-75973998D01*
X75998386Y-75920342D01*
X75987000Y-75868000D01*
X75987000Y-75702115D01*
X75982525Y-75686876D01*
X75981135Y-75685671D01*
X75973452Y-75684000D01*
X73793000Y-75684000D01*
X73724879Y-75663998D01*
X73678386Y-75610342D01*
X73667000Y-75558000D01*
X73667000Y-75302000D01*
X73687002Y-75233879D01*
X73740658Y-75187386D01*
X73793000Y-75176000D01*
X74012885Y-75176000D01*
X74028124Y-75171525D01*
X74029329Y-75170135D01*
X74031000Y-75162452D01*
X74031000Y-74267374D01*
X74026729Y-74252829D01*
X74014595Y-74250766D01*
X73899261Y-74261364D01*
X73887940Y-74263462D01*
X73689823Y-74319337D01*
X73679076Y-74323462D01*
X73494453Y-74414508D01*
X73484645Y-74420518D01*
X73319703Y-74543687D01*
X73311149Y-74551389D01*
X73220776Y-74649153D01*
X73159848Y-74685598D01*
X73088888Y-74683317D01*
X73030426Y-74643034D01*
X73003023Y-74577539D01*
X73002252Y-74563693D01*
X73001646Y-73463401D01*
X73001246Y-72737406D01*
X73000504Y-71389567D01*
X73020468Y-71321438D01*
X73074098Y-71274915D01*
X73126503Y-71263500D01*
X74000000Y-71263500D01*
X74073079Y-71258273D01*
X74079999Y-71256241D01*
X74080274Y-71256241D01*
X74086204Y-71255171D01*
X74086397Y-71256241D01*
X74150995Y-71256239D01*
X74210722Y-71294621D01*
X74240217Y-71359201D01*
X74241500Y-71377136D01*
X74241500Y-71539013D01*
X74240067Y-71557963D01*
X74238287Y-71569665D01*
X74236965Y-71578354D01*
X74237558Y-71585646D01*
X74237558Y-71585649D01*
X74241085Y-71629010D01*
X74241500Y-71639224D01*
X74241500Y-71647886D01*
X74243030Y-71661008D01*
X74244951Y-71677483D01*
X74245384Y-71681862D01*
X74251300Y-71754605D01*
X74253556Y-71761568D01*
X74254732Y-71767456D01*
X74256130Y-71773373D01*
X74256978Y-71780643D01*
X74281887Y-71849267D01*
X74283304Y-71853395D01*
X74303542Y-71915868D01*
X74303544Y-71915873D01*
X74305798Y-71922830D01*
X74309593Y-71929084D01*
X74312101Y-71934562D01*
X74314815Y-71939981D01*
X74317313Y-71946864D01*
X74321326Y-71952984D01*
X74321326Y-71952985D01*
X74322999Y-71955537D01*
X74356736Y-72006993D01*
X74357335Y-72007907D01*
X74359672Y-72011612D01*
X74371346Y-72030850D01*
X74394622Y-72069208D01*
X74394625Y-72069212D01*
X74397534Y-72074006D01*
X74404733Y-72082157D01*
X74405751Y-72083310D01*
X74407972Y-72085894D01*
X74410255Y-72088624D01*
X74414269Y-72094747D01*
X74419584Y-72099782D01*
X74466132Y-72143877D01*
X74468574Y-72146255D01*
X75569595Y-73247276D01*
X75603621Y-73309588D01*
X75606500Y-73336371D01*
X75606500Y-73436317D01*
X75622096Y-73565194D01*
X75624780Y-73572297D01*
X75643145Y-73620899D01*
X75648513Y-73691693D01*
X75614755Y-73754150D01*
X75547650Y-73789435D01*
X75535511Y-73791625D01*
X75410542Y-73828319D01*
X75394308Y-73835733D01*
X75286640Y-73904926D01*
X75273153Y-73916612D01*
X75189338Y-74013340D01*
X75179693Y-74028348D01*
X75126524Y-74144773D01*
X75124550Y-74151496D01*
X75086167Y-74211223D01*
X75021587Y-74240717D01*
X75003653Y-74242000D01*
X74557115Y-74242000D01*
X74541876Y-74246475D01*
X74540671Y-74247865D01*
X74539000Y-74255548D01*
X74539000Y-75157885D01*
X74543475Y-75173124D01*
X74544865Y-75174329D01*
X74552548Y-75176000D01*
X75048885Y-75176000D01*
X75064124Y-75171525D01*
X75065329Y-75170135D01*
X75067000Y-75162452D01*
X75067000Y-75082000D01*
X75087002Y-75013879D01*
X75140658Y-74967386D01*
X75193000Y-74956000D01*
X76744634Y-74956000D01*
X76812755Y-74976002D01*
X76859248Y-75029658D01*
X76865530Y-75046501D01*
X76867475Y-75053124D01*
X76868865Y-75054329D01*
X76876548Y-75056000D01*
X77012885Y-75056000D01*
X77028124Y-75051525D01*
X77029329Y-75050135D01*
X77031000Y-75042452D01*
X77031000Y-74768000D01*
X77051002Y-74699879D01*
X77104658Y-74653386D01*
X77157000Y-74642000D01*
X77413000Y-74642000D01*
X77481121Y-74662002D01*
X77527614Y-74715658D01*
X77539000Y-74768000D01*
X77539000Y-75467885D01*
X77543475Y-75483124D01*
X77544865Y-75484329D01*
X77552548Y-75486000D01*
X78043885Y-75486000D01*
X78059124Y-75481525D01*
X78060329Y-75480135D01*
X78062000Y-75472452D01*
X78062000Y-75452000D01*
X78082002Y-75383879D01*
X78135658Y-75337386D01*
X78188000Y-75326000D01*
X78837885Y-75326000D01*
X78853124Y-75321525D01*
X78854329Y-75320135D01*
X78856000Y-75312452D01*
X78856000Y-74365115D01*
X78851525Y-74349876D01*
X78850135Y-74348671D01*
X78842452Y-74347000D01*
X78820777Y-74347000D01*
X78813476Y-74347424D01*
X78691745Y-74361617D01*
X78678453Y-74364759D01*
X78607558Y-74360964D01*
X78549969Y-74319442D01*
X78523789Y-74251127D01*
X78523260Y-74243731D01*
X78520875Y-74230512D01*
X78517522Y-74219093D01*
X78517522Y-74148096D01*
X78555905Y-74088370D01*
X78559773Y-74086064D01*
X82278490Y-74086064D01*
X82287787Y-74098080D01*
X82338995Y-74133936D01*
X82348481Y-74139414D01*
X82545943Y-74231491D01*
X82556239Y-74235239D01*
X82766690Y-74291630D01*
X82777477Y-74293532D01*
X82994525Y-74312521D01*
X83005475Y-74312521D01*
X83222523Y-74293532D01*
X83233310Y-74291630D01*
X83443761Y-74235239D01*
X83454057Y-74231491D01*
X83651519Y-74139414D01*
X83661005Y-74133936D01*
X83713051Y-74097494D01*
X83721426Y-74087016D01*
X83714358Y-74073568D01*
X83012812Y-73372022D01*
X82998868Y-73364408D01*
X82997035Y-73364539D01*
X82990420Y-73368790D01*
X82284920Y-74074290D01*
X82278490Y-74086064D01*
X78559773Y-74086064D01*
X78593881Y-74065728D01*
X78688457Y-74029991D01*
X78688459Y-74029990D01*
X78695562Y-74027306D01*
X78715883Y-74013340D01*
X78830587Y-73934506D01*
X78830589Y-73934505D01*
X78836846Y-73930204D01*
X78848956Y-73916612D01*
X78945836Y-73807877D01*
X78945838Y-73807875D01*
X78950890Y-73802204D01*
X78954442Y-73795495D01*
X78954445Y-73795491D01*
X79027555Y-73657411D01*
X79027556Y-73657408D01*
X79031110Y-73650696D01*
X79072874Y-73484425D01*
X79073237Y-73478659D01*
X79073375Y-73476470D01*
X79073376Y-73476454D01*
X79073500Y-73474475D01*
X79073500Y-72994525D01*
X81687479Y-72994525D01*
X81687479Y-73005475D01*
X81706468Y-73222523D01*
X81708370Y-73233310D01*
X81764761Y-73443761D01*
X81768509Y-73454057D01*
X81860586Y-73651519D01*
X81866064Y-73661005D01*
X81902506Y-73713051D01*
X81912984Y-73721426D01*
X81926432Y-73714358D01*
X82627978Y-73012812D01*
X82635592Y-72998868D01*
X82635461Y-72997035D01*
X82631210Y-72990420D01*
X81925710Y-72284920D01*
X81913936Y-72278490D01*
X81901920Y-72287787D01*
X81866064Y-72338995D01*
X81860586Y-72348481D01*
X81768509Y-72545943D01*
X81764761Y-72556239D01*
X81708370Y-72766690D01*
X81706468Y-72777477D01*
X81687479Y-72994525D01*
X79073500Y-72994525D01*
X79073500Y-72803683D01*
X79057904Y-72674806D01*
X78997306Y-72514438D01*
X78932854Y-72420660D01*
X78904506Y-72379413D01*
X78904505Y-72379411D01*
X78900204Y-72373154D01*
X78894533Y-72368101D01*
X78777877Y-72264164D01*
X78777875Y-72264162D01*
X78772204Y-72259110D01*
X78765494Y-72255557D01*
X78765488Y-72255553D01*
X78706999Y-72224585D01*
X78656155Y-72175032D01*
X78640174Y-72105858D01*
X78646125Y-72074295D01*
X78647603Y-72069748D01*
X78655240Y-72046241D01*
X78695314Y-71987636D01*
X78760710Y-71959999D01*
X78830667Y-71972106D01*
X78845531Y-71980719D01*
X78919855Y-72030850D01*
X78927451Y-72035236D01*
X79171959Y-72154491D01*
X79180106Y-72157782D01*
X79438833Y-72241848D01*
X79447334Y-72243967D01*
X79715255Y-72291210D01*
X79723981Y-72292127D01*
X79995859Y-72301621D01*
X80004622Y-72301315D01*
X80275180Y-72272878D01*
X80283825Y-72271353D01*
X80547776Y-72205543D01*
X80556134Y-72202828D01*
X80808361Y-72100920D01*
X80816253Y-72097071D01*
X81051844Y-71961053D01*
X81059120Y-71956145D01*
X81114365Y-71912984D01*
X82278574Y-71912984D01*
X82285642Y-71926432D01*
X82987188Y-72627978D01*
X83001132Y-72635592D01*
X83002965Y-72635461D01*
X83009580Y-72631210D01*
X83715080Y-71925710D01*
X83721510Y-71913936D01*
X83712213Y-71901920D01*
X83661005Y-71866064D01*
X83651519Y-71860586D01*
X83454057Y-71768509D01*
X83443761Y-71764761D01*
X83233310Y-71708370D01*
X83222523Y-71706468D01*
X83005475Y-71687479D01*
X82994525Y-71687479D01*
X82777477Y-71706468D01*
X82766690Y-71708370D01*
X82556239Y-71764761D01*
X82545943Y-71768509D01*
X82348481Y-71860586D01*
X82338995Y-71866064D01*
X82286949Y-71902506D01*
X82278574Y-71912984D01*
X81114365Y-71912984D01*
X81144671Y-71889307D01*
X81153139Y-71877495D01*
X81146602Y-71865812D01*
X79571922Y-70291132D01*
X80294408Y-70291132D01*
X80294539Y-70292965D01*
X80298790Y-70299580D01*
X81505984Y-71506774D01*
X81518095Y-71513387D01*
X81529714Y-71504559D01*
X81634532Y-71360291D01*
X81639191Y-71352835D01*
X81766900Y-71112648D01*
X81770471Y-71104628D01*
X81863515Y-70848994D01*
X81865934Y-70840557D01*
X81922497Y-70574451D01*
X81923717Y-70565770D01*
X81942693Y-70294390D01*
X81942693Y-70285610D01*
X81923717Y-70014230D01*
X81922497Y-70005549D01*
X81865934Y-69739443D01*
X81863515Y-69731006D01*
X81770471Y-69475372D01*
X81766900Y-69467352D01*
X81639191Y-69227165D01*
X81634532Y-69219709D01*
X81529445Y-69075070D01*
X81518520Y-69066646D01*
X81505661Y-69073549D01*
X80302022Y-70277188D01*
X80294408Y-70291132D01*
X79571922Y-70291132D01*
X78353558Y-69072768D01*
X78340173Y-69065459D01*
X78330247Y-69072468D01*
X78304277Y-69103418D01*
X78299118Y-69110518D01*
X78154953Y-69341230D01*
X78150841Y-69348964D01*
X78040186Y-69597499D01*
X78037187Y-69605740D01*
X77962201Y-69867247D01*
X77960377Y-69875827D01*
X77922516Y-70145228D01*
X77921904Y-70153977D01*
X77921904Y-70426023D01*
X77922516Y-70434772D01*
X77960377Y-70704173D01*
X77962200Y-70712749D01*
X77967369Y-70730776D01*
X77966917Y-70801771D01*
X77928153Y-70861252D01*
X77863386Y-70890333D01*
X77846249Y-70891504D01*
X77684513Y-70891504D01*
X77678061Y-70892876D01*
X77678056Y-70892876D01*
X77602752Y-70908883D01*
X77497713Y-70931210D01*
X77491683Y-70933895D01*
X77491682Y-70933895D01*
X77329280Y-71006201D01*
X77329278Y-71006202D01*
X77323250Y-71008886D01*
X77317909Y-71012766D01*
X77317908Y-71012767D01*
X77174093Y-71117254D01*
X77174091Y-71117256D01*
X77168749Y-71121137D01*
X77164328Y-71126047D01*
X77164327Y-71126048D01*
X77059247Y-71242752D01*
X77040963Y-71263058D01*
X77007801Y-71320496D01*
X76970567Y-71384988D01*
X76945476Y-71428446D01*
X76943434Y-71434731D01*
X76899119Y-71571120D01*
X76886462Y-71610073D01*
X76885772Y-71616636D01*
X76885772Y-71616637D01*
X76876243Y-71707300D01*
X76866500Y-71800000D01*
X76867190Y-71806565D01*
X76885465Y-71980437D01*
X76885930Y-71984866D01*
X76885930Y-71984868D01*
X76886462Y-71989927D01*
X76885537Y-71990024D01*
X76880568Y-72055099D01*
X76837749Y-72111730D01*
X76771110Y-72136221D01*
X76762725Y-72136500D01*
X76656371Y-72136500D01*
X76588250Y-72116498D01*
X76567276Y-72099595D01*
X75795405Y-71327724D01*
X75761379Y-71265412D01*
X75758500Y-71238629D01*
X75758500Y-70842195D01*
X75778502Y-70774074D01*
X75832158Y-70727581D01*
X75848999Y-70721300D01*
X75863316Y-70717096D01*
X75878595Y-70707277D01*
X75978691Y-70642949D01*
X75978694Y-70642947D01*
X75986271Y-70638077D01*
X76001461Y-70620547D01*
X76076082Y-70534431D01*
X76076084Y-70534428D01*
X76081984Y-70527619D01*
X76103853Y-70479732D01*
X76138958Y-70402864D01*
X76138958Y-70402863D01*
X76142700Y-70394670D01*
X76145874Y-70372593D01*
X76162861Y-70254448D01*
X76162862Y-70254441D01*
X76163500Y-70250000D01*
X76163500Y-69100000D01*
X76158273Y-69026921D01*
X76134840Y-68947115D01*
X76119635Y-68895330D01*
X76119634Y-68895328D01*
X76117096Y-68886684D01*
X76063315Y-68803000D01*
X76042949Y-68771309D01*
X76042947Y-68771306D01*
X76038077Y-68763729D01*
X76019925Y-68748000D01*
X75963019Y-68698690D01*
X78704711Y-68698690D01*
X78711931Y-68712721D01*
X79917188Y-69917978D01*
X79931132Y-69925592D01*
X79932965Y-69925461D01*
X79939580Y-69921210D01*
X81146133Y-68714657D01*
X81153101Y-68701897D01*
X81145190Y-68691099D01*
X81059120Y-68623855D01*
X81051844Y-68618947D01*
X80816253Y-68482929D01*
X80808361Y-68479080D01*
X80556134Y-68377172D01*
X80547776Y-68374457D01*
X80283825Y-68308647D01*
X80275180Y-68307122D01*
X80004622Y-68278685D01*
X79995859Y-68278379D01*
X79723981Y-68287873D01*
X79715255Y-68288790D01*
X79447334Y-68336033D01*
X79438833Y-68338152D01*
X79180106Y-68422218D01*
X79171959Y-68425509D01*
X78927451Y-68544764D01*
X78919855Y-68549150D01*
X78713018Y-68688662D01*
X78704711Y-68698690D01*
X75963019Y-68698690D01*
X75934431Y-68673918D01*
X75934428Y-68673916D01*
X75927619Y-68668016D01*
X75794670Y-68607300D01*
X75785755Y-68606018D01*
X75785754Y-68606018D01*
X75654448Y-68587139D01*
X75654441Y-68587138D01*
X75650000Y-68586500D01*
X74350000Y-68586500D01*
X74317501Y-68588825D01*
X74248129Y-68573735D01*
X74197926Y-68523533D01*
X74189093Y-68503334D01*
X74186045Y-68494276D01*
X74186043Y-68494272D01*
X74183866Y-68487803D01*
X74087804Y-68327929D01*
X74073182Y-68312466D01*
X74024658Y-68261154D01*
X73959652Y-68192412D01*
X73829494Y-68103957D01*
X73784396Y-68049126D01*
X73776101Y-67978615D01*
X73807244Y-67914814D01*
X73830223Y-67895042D01*
X73949379Y-67815274D01*
X73949382Y-67815271D01*
X73955047Y-67811479D01*
X74084142Y-67676860D01*
X74093782Y-67661068D01*
X74177762Y-67523486D01*
X74177763Y-67523485D01*
X74181318Y-67517660D01*
X74189688Y-67493351D01*
X74230776Y-67435457D01*
X74296645Y-67408965D01*
X74326752Y-67409657D01*
X74345546Y-67412359D01*
X74354506Y-67413000D01*
X74727885Y-67413000D01*
X74743124Y-67408525D01*
X74744329Y-67407135D01*
X74746000Y-67399452D01*
X74746000Y-66592548D01*
X75254000Y-66592548D01*
X75254000Y-67394885D01*
X75258475Y-67410124D01*
X75259865Y-67411329D01*
X75267548Y-67413000D01*
X75647743Y-67413000D01*
X75652250Y-67412839D01*
X75716269Y-67408260D01*
X75729491Y-67405874D01*
X75854458Y-67369181D01*
X75870692Y-67361767D01*
X75978360Y-67292574D01*
X75991847Y-67280888D01*
X76075662Y-67184160D01*
X76085307Y-67169152D01*
X76138477Y-67052725D01*
X76143502Y-67035612D01*
X76162361Y-66904446D01*
X76163000Y-66895505D01*
X76163000Y-66597115D01*
X76158525Y-66581876D01*
X76157135Y-66580671D01*
X76149452Y-66579000D01*
X75272115Y-66579000D01*
X75256876Y-66583475D01*
X75255671Y-66584865D01*
X75254000Y-66592548D01*
X74746000Y-66592548D01*
X74746000Y-65255115D01*
X74741525Y-65239876D01*
X74740135Y-65238671D01*
X74732452Y-65237000D01*
X74620236Y-65237000D01*
X74552115Y-65216998D01*
X74505622Y-65163342D01*
X74499340Y-65146498D01*
X74497989Y-65141895D01*
X74488781Y-65110537D01*
X74469635Y-65045330D01*
X74469634Y-65045328D01*
X74467096Y-65036684D01*
X74435775Y-64987948D01*
X74392949Y-64921309D01*
X74392947Y-64921306D01*
X74388077Y-64913729D01*
X74348253Y-64879221D01*
X74284431Y-64823918D01*
X74284428Y-64823916D01*
X74277619Y-64818016D01*
X74144670Y-64757300D01*
X74135755Y-64756018D01*
X74135754Y-64756018D01*
X74004448Y-64737139D01*
X74004441Y-64737138D01*
X74000000Y-64736500D01*
X73122770Y-64736500D01*
X73054649Y-64716498D01*
X73008156Y-64662842D01*
X72996770Y-64610569D01*
X72996502Y-64123727D01*
X72996472Y-64069869D01*
X72998210Y-64048944D01*
X73000134Y-64037480D01*
X73000940Y-64032678D01*
X73001081Y-64020825D01*
X73002837Y-63872196D01*
X73002980Y-63867503D01*
X73004494Y-63836676D01*
X73006992Y-63785841D01*
X73007443Y-63779719D01*
X73033611Y-63514038D01*
X73034368Y-63507902D01*
X73043608Y-63445608D01*
X73044665Y-63439513D01*
X73044668Y-63439502D01*
X73070453Y-63309872D01*
X73096747Y-63177685D01*
X73098102Y-63171653D01*
X73110050Y-63123950D01*
X73113409Y-63110543D01*
X73115056Y-63104590D01*
X73115057Y-63104589D01*
X73153496Y-62977868D01*
X73886616Y-62977868D01*
X73903166Y-63264892D01*
X73903991Y-63269097D01*
X73903992Y-63269105D01*
X73933101Y-63417472D01*
X73958516Y-63547014D01*
X73959903Y-63551065D01*
X74047932Y-63808177D01*
X74051642Y-63819014D01*
X74104750Y-63924608D01*
X74178109Y-64070464D01*
X74180822Y-64075859D01*
X74226634Y-64142516D01*
X74332259Y-64296201D01*
X74343664Y-64312796D01*
X74537155Y-64525440D01*
X74757716Y-64709857D01*
X74761357Y-64712141D01*
X74997624Y-64860352D01*
X74997628Y-64860354D01*
X75001264Y-64862635D01*
X75263293Y-64980945D01*
X75267412Y-64982165D01*
X75294500Y-64990189D01*
X75354135Y-65028715D01*
X75383474Y-65093365D01*
X75373203Y-65163615D01*
X75326582Y-65217160D01*
X75288445Y-65228309D01*
X75289498Y-65231896D01*
X75256876Y-65241475D01*
X75255671Y-65242865D01*
X75254000Y-65250548D01*
X75254000Y-66052885D01*
X75258475Y-66068124D01*
X75259865Y-66069329D01*
X75267548Y-66071000D01*
X76144885Y-66071000D01*
X76160124Y-66066525D01*
X76161329Y-66065135D01*
X76163000Y-66057452D01*
X76163000Y-65786253D01*
X99722000Y-65786253D01*
X99722000Y-66157885D01*
X99726475Y-66173124D01*
X99727865Y-66174329D01*
X99735548Y-66176000D01*
X100407885Y-66176000D01*
X100423124Y-66171525D01*
X100424329Y-66170135D01*
X100426000Y-66162452D01*
X100426000Y-64970708D01*
X100422027Y-64957177D01*
X100415925Y-64956300D01*
X100263835Y-65012259D01*
X100252429Y-65017821D01*
X100097853Y-65113662D01*
X100087792Y-65121411D01*
X99955655Y-65246367D01*
X99947351Y-65255987D01*
X99843038Y-65404962D01*
X99836841Y-65416050D01*
X99764611Y-65582962D01*
X99760772Y-65595065D01*
X99723266Y-65774594D01*
X99722063Y-65783862D01*
X99722000Y-65786253D01*
X76163000Y-65786253D01*
X76163000Y-65752257D01*
X76162839Y-65747750D01*
X76158260Y-65683731D01*
X76155874Y-65670509D01*
X76119181Y-65545542D01*
X76111767Y-65529308D01*
X76042574Y-65421640D01*
X76030888Y-65408153D01*
X75941247Y-65330480D01*
X75902863Y-65270754D01*
X75902863Y-65199757D01*
X75941246Y-65140031D01*
X76005827Y-65110538D01*
X76025738Y-65109271D01*
X76106321Y-65110537D01*
X76106327Y-65110537D01*
X76110612Y-65110604D01*
X76114864Y-65110089D01*
X76114872Y-65110089D01*
X76358076Y-65080657D01*
X76396030Y-65076064D01*
X76400179Y-65074976D01*
X76400182Y-65074975D01*
X76669970Y-65004198D01*
X76674121Y-65003109D01*
X76939736Y-64893087D01*
X76963671Y-64879101D01*
X77184255Y-64750202D01*
X77184257Y-64750200D01*
X77187963Y-64748035D01*
X77414208Y-64570637D01*
X77418457Y-64566253D01*
X77543099Y-64437632D01*
X77614283Y-64364175D01*
X77616816Y-64360727D01*
X77616820Y-64360722D01*
X77781949Y-64135925D01*
X77784487Y-64132470D01*
X77790430Y-64121525D01*
X77919621Y-63883585D01*
X77919622Y-63883583D01*
X77921671Y-63879809D01*
X78001855Y-63667609D01*
X78021777Y-63614887D01*
X78021778Y-63614883D01*
X78023295Y-63610869D01*
X78052785Y-63482109D01*
X78086521Y-63334808D01*
X78086522Y-63334804D01*
X78087479Y-63330624D01*
X78087912Y-63325781D01*
X78112816Y-63046728D01*
X78112816Y-63046726D01*
X78113036Y-63044262D01*
X78113500Y-63000000D01*
X78111678Y-62973267D01*
X78094238Y-62717442D01*
X78094237Y-62717436D01*
X78093946Y-62713165D01*
X78092645Y-62706880D01*
X78053296Y-62516876D01*
X78035644Y-62431638D01*
X77939674Y-62160628D01*
X77807812Y-61905150D01*
X77642498Y-61669931D01*
X77631517Y-61658114D01*
X77449711Y-61462468D01*
X77449708Y-61462466D01*
X77446790Y-61459325D01*
X77443474Y-61456611D01*
X77443471Y-61456608D01*
X77227629Y-61279942D01*
X77227622Y-61279937D01*
X77224311Y-61277227D01*
X76979176Y-61127009D01*
X76975240Y-61125281D01*
X76719851Y-61013172D01*
X76719847Y-61013171D01*
X76715923Y-61011448D01*
X76439421Y-60932685D01*
X76227336Y-60902501D01*
X76159041Y-60892781D01*
X76159039Y-60892781D01*
X76154789Y-60892176D01*
X76003976Y-60891387D01*
X75871579Y-60890693D01*
X75871573Y-60890693D01*
X75867292Y-60890671D01*
X75863048Y-60891230D01*
X75863044Y-60891230D01*
X75777433Y-60902501D01*
X75582251Y-60928197D01*
X75578111Y-60929330D01*
X75578109Y-60929330D01*
X75309085Y-61002927D01*
X75304940Y-61004061D01*
X75274889Y-61016879D01*
X75044433Y-61115176D01*
X75044426Y-61115180D01*
X75040491Y-61116858D01*
X75036810Y-61119061D01*
X74797479Y-61262297D01*
X74797475Y-61262300D01*
X74793797Y-61264501D01*
X74790454Y-61267179D01*
X74790450Y-61267182D01*
X74742390Y-61305686D01*
X74569423Y-61444259D01*
X74566479Y-61447361D01*
X74566475Y-61447365D01*
X74378513Y-61645435D01*
X74371520Y-61652804D01*
X74203752Y-61886279D01*
X74069222Y-62140362D01*
X73970419Y-62410352D01*
X73909173Y-62691254D01*
X73908837Y-62695524D01*
X73891033Y-62921751D01*
X73886616Y-62977868D01*
X73153496Y-62977868D01*
X73154792Y-62973597D01*
X73192534Y-62849180D01*
X73194473Y-62843308D01*
X73215705Y-62783968D01*
X73217931Y-62778198D01*
X73243697Y-62715994D01*
X73320089Y-62531568D01*
X73322571Y-62525969D01*
X73349529Y-62468971D01*
X73352299Y-62463468D01*
X73352307Y-62463454D01*
X73456551Y-62268426D01*
X73478120Y-62228073D01*
X73481168Y-62222693D01*
X73513572Y-62168629D01*
X73516872Y-62163418D01*
X73581896Y-62066102D01*
X73665173Y-61941471D01*
X73668733Y-61936416D01*
X73706256Y-61885821D01*
X73710061Y-61880945D01*
X73879396Y-61674608D01*
X73883436Y-61669925D01*
X73925762Y-61623225D01*
X73930027Y-61618746D01*
X74118747Y-61430026D01*
X74123224Y-61425763D01*
X74135805Y-61414360D01*
X74169945Y-61383418D01*
X74174561Y-61379435D01*
X74380937Y-61210068D01*
X74385811Y-61206265D01*
X74436424Y-61168727D01*
X74441470Y-61165173D01*
X74663412Y-61016875D01*
X74668617Y-61013579D01*
X74704188Y-60992259D01*
X74722681Y-60981175D01*
X74728060Y-60978128D01*
X74963454Y-60852307D01*
X74968979Y-60849526D01*
X75025957Y-60822578D01*
X75031610Y-60820072D01*
X75278201Y-60717930D01*
X75283970Y-60715705D01*
X75343286Y-60694481D01*
X75349159Y-60692541D01*
X75604589Y-60615057D01*
X75610550Y-60613407D01*
X75671663Y-60598099D01*
X75677697Y-60596744D01*
X75939502Y-60544668D01*
X75945593Y-60543611D01*
X75973023Y-60539542D01*
X76007939Y-60534362D01*
X76014042Y-60533610D01*
X76279719Y-60507443D01*
X76285842Y-60506992D01*
X76367533Y-60502979D01*
X76372200Y-60502836D01*
X76485686Y-60501496D01*
X76524921Y-60501032D01*
X76524922Y-60501032D01*
X76529400Y-60500979D01*
X76549104Y-60497919D01*
X76568440Y-60496427D01*
X94820500Y-60496427D01*
X94888621Y-60516429D01*
G37*
%TD.AperFunction*%
%TA.AperFunction,Conductor*%
G36*
X95504121Y-68308502D02*
G01*
X95550614Y-68362158D01*
X95562000Y-68414500D01*
X95562000Y-68657885D01*
X95566475Y-68673124D01*
X95567865Y-68674329D01*
X95575548Y-68676000D01*
X96698000Y-68676000D01*
X96766121Y-68696002D01*
X96812614Y-68749658D01*
X96824000Y-68802000D01*
X96824000Y-69058000D01*
X96803998Y-69126121D01*
X96750342Y-69172614D01*
X96698000Y-69184000D01*
X95580115Y-69184000D01*
X95564876Y-69188475D01*
X95563671Y-69189865D01*
X95562000Y-69197548D01*
X95562000Y-69444223D01*
X95562424Y-69451524D01*
X95576617Y-69573255D01*
X95579963Y-69587410D01*
X95605509Y-69657789D01*
X95609950Y-69728647D01*
X95575377Y-69790657D01*
X95539220Y-69815481D01*
X95474934Y-69844710D01*
X95302416Y-69967086D01*
X95298267Y-69971420D01*
X95298266Y-69971421D01*
X95264135Y-70007075D01*
X95202580Y-70042452D01*
X95131671Y-70038933D01*
X95073920Y-69997637D01*
X95049870Y-69946142D01*
X95005934Y-69739443D01*
X95003515Y-69731006D01*
X94910471Y-69475372D01*
X94906900Y-69467352D01*
X94779191Y-69227165D01*
X94774532Y-69219709D01*
X94669445Y-69075070D01*
X94658520Y-69066646D01*
X94645661Y-69073549D01*
X91850812Y-71868398D01*
X91840463Y-71887350D01*
X91809512Y-71924607D01*
X91789617Y-71940833D01*
X91742074Y-71979608D01*
X91741046Y-71980437D01*
X91705545Y-72008776D01*
X91705537Y-72008783D01*
X91702785Y-72010980D01*
X91700283Y-72013482D01*
X91699744Y-72013964D01*
X91695391Y-72017681D01*
X91665633Y-72041951D01*
X91665630Y-72041954D01*
X91660853Y-72045850D01*
X91656925Y-72050598D01*
X91656924Y-72050599D01*
X91630817Y-72082157D01*
X91622828Y-72090936D01*
X91520554Y-72193210D01*
X91458242Y-72227236D01*
X91387427Y-72222171D01*
X91330591Y-72179624D01*
X91308396Y-72128635D01*
X91308273Y-72126921D01*
X91280064Y-72030850D01*
X91269635Y-71995330D01*
X91269634Y-71995328D01*
X91267096Y-71986684D01*
X91225771Y-71922381D01*
X91192949Y-71871309D01*
X91192947Y-71871306D01*
X91188077Y-71863729D01*
X91142205Y-71823980D01*
X91128290Y-71811923D01*
X91077619Y-71768016D01*
X91069423Y-71764273D01*
X91066378Y-71762316D01*
X91019886Y-71708660D01*
X91008500Y-71656319D01*
X91008500Y-71189672D01*
X91028502Y-71121551D01*
X91082158Y-71075058D01*
X91152432Y-71064954D01*
X91217012Y-71094448D01*
X91249607Y-71138424D01*
X91290838Y-71231031D01*
X91294953Y-71238770D01*
X91439118Y-71469482D01*
X91444277Y-71476582D01*
X91469101Y-71506166D01*
X91481795Y-71514612D01*
X91492297Y-71508493D01*
X94286133Y-68714657D01*
X94293101Y-68701897D01*
X94285190Y-68691099D01*
X94199120Y-68623855D01*
X94191844Y-68618947D01*
X94026731Y-68523619D01*
X93977738Y-68472237D01*
X93964302Y-68402523D01*
X93990688Y-68336612D01*
X94048520Y-68295430D01*
X94089731Y-68288500D01*
X95436000Y-68288500D01*
X95504121Y-68308502D01*
G37*
%TD.AperFunction*%
%TA.AperFunction,Conductor*%
G36*
X135474625Y-67552253D02*
G01*
X135527884Y-67599199D01*
X135539751Y-67623427D01*
X135589006Y-67759122D01*
X135681993Y-67900951D01*
X135687311Y-67905989D01*
X135687312Y-67905990D01*
X135691982Y-67910414D01*
X135727679Y-67971783D01*
X135724531Y-68042710D01*
X135696801Y-68088537D01*
X135657414Y-68130115D01*
X135572233Y-68276766D01*
X135523073Y-68439080D01*
X135522498Y-68445520D01*
X135522498Y-68445521D01*
X135519724Y-68476608D01*
X135516500Y-68512727D01*
X135516500Y-69049135D01*
X135531140Y-69174704D01*
X135533636Y-69181581D01*
X135533637Y-69181584D01*
X135557816Y-69248195D01*
X135589006Y-69334122D01*
X135681993Y-69475951D01*
X135687310Y-69480988D01*
X135687311Y-69480989D01*
X135700842Y-69493807D01*
X135736540Y-69555176D01*
X135733392Y-69626103D01*
X135723309Y-69648276D01*
X135665476Y-69748446D01*
X135652575Y-69788150D01*
X135614805Y-69904397D01*
X135606462Y-69930073D01*
X135605772Y-69936636D01*
X135605772Y-69936637D01*
X135599441Y-69996874D01*
X135586500Y-70120000D01*
X135587190Y-70126565D01*
X135606462Y-70309927D01*
X135604807Y-70310101D01*
X135600039Y-70372593D01*
X135557223Y-70429226D01*
X135490586Y-70453720D01*
X135482194Y-70454000D01*
X135203871Y-70454000D01*
X135135750Y-70433998D01*
X135114776Y-70417095D01*
X134970405Y-70272724D01*
X134936379Y-70210412D01*
X134933500Y-70183629D01*
X134933500Y-70083683D01*
X134917904Y-69954806D01*
X134857306Y-69794438D01*
X134806921Y-69721128D01*
X134764506Y-69659413D01*
X134764505Y-69659411D01*
X134760204Y-69653154D01*
X134727356Y-69623887D01*
X134696717Y-69596589D01*
X134659161Y-69536339D01*
X134660141Y-69465349D01*
X134697209Y-69408001D01*
X134701567Y-69404159D01*
X134805426Y-69287591D01*
X134814034Y-69275205D01*
X134887088Y-69137230D01*
X134892493Y-69123150D01*
X134930972Y-68969960D01*
X134932741Y-68958600D01*
X134932874Y-68956473D01*
X134933000Y-68952482D01*
X134933000Y-68947115D01*
X134928525Y-68931876D01*
X134927135Y-68930671D01*
X134919452Y-68929000D01*
X133822000Y-68929000D01*
X133753879Y-68908998D01*
X133707386Y-68855342D01*
X133696000Y-68803000D01*
X133696000Y-68547000D01*
X133716002Y-68478879D01*
X133769658Y-68432386D01*
X133822000Y-68421000D01*
X134913350Y-68421000D01*
X134927332Y-68416895D01*
X134929375Y-68403729D01*
X134918331Y-68312466D01*
X134914734Y-68297820D01*
X134885018Y-68219177D01*
X134879650Y-68148384D01*
X134913408Y-68085927D01*
X134933799Y-68069268D01*
X135063306Y-67984359D01*
X135074458Y-67975035D01*
X135185922Y-67857371D01*
X135194635Y-67845724D01*
X135276043Y-67705571D01*
X135281837Y-67692246D01*
X135300721Y-67629895D01*
X135339610Y-67570497D01*
X135404439Y-67541553D01*
X135474625Y-67552253D01*
G37*
%TD.AperFunction*%
%TA.AperFunction,Conductor*%
G36*
X109516121Y-66196002D02*
G01*
X109562614Y-66249658D01*
X109574000Y-66302000D01*
X109574000Y-67881095D01*
X109553998Y-67949216D01*
X109543225Y-67963607D01*
X109525671Y-67983865D01*
X109524000Y-67991548D01*
X109524000Y-68748000D01*
X109503998Y-68816121D01*
X109450342Y-68862614D01*
X109398000Y-68874000D01*
X108280115Y-68874000D01*
X108264876Y-68878475D01*
X108263671Y-68879865D01*
X108262000Y-68887548D01*
X108262000Y-69111928D01*
X108241998Y-69180049D01*
X108187247Y-69227035D01*
X108160909Y-69238761D01*
X108090542Y-69248195D01*
X108026245Y-69218087D01*
X107988433Y-69157998D01*
X107983662Y-69123654D01*
X107983662Y-68079508D01*
X108003664Y-68011387D01*
X108027151Y-67984283D01*
X108028692Y-67982948D01*
X108036271Y-67978077D01*
X108079507Y-67928180D01*
X108126082Y-67874431D01*
X108126084Y-67874428D01*
X108131984Y-67867619D01*
X108141983Y-67845724D01*
X108188958Y-67742864D01*
X108188958Y-67742863D01*
X108192700Y-67734670D01*
X108197765Y-67699445D01*
X108203282Y-67661069D01*
X108232775Y-67596488D01*
X108292501Y-67558104D01*
X108363498Y-67558104D01*
X108423224Y-67596487D01*
X108452717Y-67661068D01*
X108454000Y-67679000D01*
X108454000Y-68012000D01*
X108433998Y-68080121D01*
X108380342Y-68126614D01*
X108328000Y-68138000D01*
X108280115Y-68138000D01*
X108264876Y-68142475D01*
X108263671Y-68143865D01*
X108262000Y-68151548D01*
X108262000Y-68347885D01*
X108266475Y-68363124D01*
X108267865Y-68364329D01*
X108275548Y-68366000D01*
X108997885Y-68366000D01*
X109013124Y-68361525D01*
X109014329Y-68360135D01*
X109016000Y-68352452D01*
X109016000Y-67443905D01*
X109036002Y-67375784D01*
X109046775Y-67361393D01*
X109064329Y-67341135D01*
X109066000Y-67333452D01*
X109066000Y-66702115D01*
X109061525Y-66686876D01*
X109060135Y-66685671D01*
X109052452Y-66684000D01*
X108605233Y-66684000D01*
X108537112Y-66663998D01*
X108490619Y-66610342D01*
X108480515Y-66540068D01*
X108508592Y-66477275D01*
X108513177Y-66472908D01*
X108613540Y-66321849D01*
X108616043Y-66315261D01*
X108638077Y-66257256D01*
X108680966Y-66200678D01*
X108747635Y-66176269D01*
X108755865Y-66176000D01*
X109448000Y-66176000D01*
X109516121Y-66196002D01*
G37*
%TD.AperFunction*%
%TA.AperFunction,Conductor*%
G36*
X101755725Y-66725962D02*
G01*
X101785218Y-66790543D01*
X101786500Y-66808474D01*
X101786500Y-67138000D01*
X101766498Y-67206121D01*
X101712842Y-67252614D01*
X101660500Y-67264000D01*
X101078000Y-67264000D01*
X101009879Y-67243998D01*
X100963386Y-67190342D01*
X100952000Y-67138000D01*
X100952000Y-66882000D01*
X100972002Y-66813879D01*
X101025658Y-66767386D01*
X101078000Y-66756000D01*
X101527885Y-66756000D01*
X101543124Y-66751525D01*
X101565276Y-66725961D01*
X101625002Y-66687578D01*
X101695999Y-66687578D01*
X101755725Y-66725962D01*
G37*
%TD.AperFunction*%
%TA.AperFunction,Conductor*%
G36*
X133440787Y-60498165D02*
G01*
X133457322Y-60500940D01*
X133462191Y-60500998D01*
X133462196Y-60500998D01*
X133613046Y-60502781D01*
X133617806Y-60502837D01*
X133622495Y-60502980D01*
X133704155Y-60506992D01*
X133710284Y-60507444D01*
X133923566Y-60528450D01*
X133975962Y-60533611D01*
X133982098Y-60534368D01*
X133996602Y-60536519D01*
X134044407Y-60543611D01*
X134050472Y-60544662D01*
X134131928Y-60560865D01*
X134312315Y-60596747D01*
X134318347Y-60598102D01*
X134364244Y-60609598D01*
X134379457Y-60613409D01*
X134385400Y-60615053D01*
X134433777Y-60629728D01*
X134640820Y-60692534D01*
X134646692Y-60694473D01*
X134706032Y-60715705D01*
X134711802Y-60717931D01*
X134958432Y-60820089D01*
X134964031Y-60822571D01*
X135021023Y-60849526D01*
X135026532Y-60852299D01*
X135261927Y-60978120D01*
X135267307Y-60981168D01*
X135321371Y-61013572D01*
X135326582Y-61016872D01*
X135361708Y-61040342D01*
X135548529Y-61165173D01*
X135553584Y-61168733D01*
X135604179Y-61206256D01*
X135609055Y-61210061D01*
X135815392Y-61379396D01*
X135820075Y-61383436D01*
X135866775Y-61425762D01*
X135871254Y-61430027D01*
X136059974Y-61618747D01*
X136064237Y-61623224D01*
X136106582Y-61669945D01*
X136110565Y-61674561D01*
X136231868Y-61822370D01*
X136279932Y-61880937D01*
X136283735Y-61885811D01*
X136321273Y-61936424D01*
X136324826Y-61941468D01*
X136469616Y-62158160D01*
X136473121Y-62163406D01*
X136476419Y-62168614D01*
X136484662Y-62182366D01*
X136508825Y-62222681D01*
X136511872Y-62228060D01*
X136637693Y-62463454D01*
X136640474Y-62468979D01*
X136667422Y-62525957D01*
X136669928Y-62531610D01*
X136772070Y-62778201D01*
X136774295Y-62783970D01*
X136795519Y-62843286D01*
X136797459Y-62849159D01*
X136874943Y-63104589D01*
X136876593Y-63110550D01*
X136891901Y-63171663D01*
X136893256Y-63177697D01*
X136945332Y-63439502D01*
X136946389Y-63445593D01*
X136950419Y-63472757D01*
X136955638Y-63507939D01*
X136956390Y-63514038D01*
X136982557Y-63779722D01*
X136983008Y-63785838D01*
X136985506Y-63836676D01*
X136987021Y-63867520D01*
X136987164Y-63872203D01*
X136989021Y-64029400D01*
X136992076Y-64049068D01*
X136993567Y-64068405D01*
X136993558Y-64182876D01*
X136993411Y-66144929D01*
X136973404Y-66213049D01*
X136919745Y-66259538D01*
X136856211Y-66270421D01*
X136815068Y-66266749D01*
X136815058Y-66266749D01*
X136812273Y-66266500D01*
X136200865Y-66266500D01*
X136111131Y-66276962D01*
X136082568Y-66280292D01*
X136082567Y-66280292D01*
X136075296Y-66281140D01*
X136068419Y-66283636D01*
X136068416Y-66283637D01*
X135946970Y-66327720D01*
X135915878Y-66339006D01*
X135774049Y-66431993D01*
X135657414Y-66555115D01*
X135602274Y-66650047D01*
X135572954Y-66700525D01*
X135521444Y-66749384D01*
X135451695Y-66762638D01*
X135385853Y-66736079D01*
X135344823Y-66678139D01*
X135338000Y-66637240D01*
X135338000Y-66405777D01*
X135337576Y-66398476D01*
X135323383Y-66276745D01*
X135320037Y-66262590D01*
X135264737Y-66110239D01*
X135258227Y-66097240D01*
X135169359Y-65961694D01*
X135160035Y-65950542D01*
X135042371Y-65839078D01*
X135030724Y-65830365D01*
X134890571Y-65748957D01*
X134877246Y-65743163D01*
X134721300Y-65695932D01*
X134708677Y-65693484D01*
X134638816Y-65687249D01*
X134633221Y-65687000D01*
X134602115Y-65687000D01*
X134586876Y-65691475D01*
X134585671Y-65692865D01*
X134584000Y-65700548D01*
X134584000Y-67048000D01*
X134563998Y-67116121D01*
X134510342Y-67162614D01*
X134458000Y-67174000D01*
X134202000Y-67174000D01*
X134133879Y-67153998D01*
X134087386Y-67100342D01*
X134076000Y-67048000D01*
X134076000Y-65705115D01*
X134071525Y-65689876D01*
X134070135Y-65688671D01*
X134062452Y-65687000D01*
X134040777Y-65687000D01*
X134033476Y-65687424D01*
X133911745Y-65701617D01*
X133897590Y-65704963D01*
X133745239Y-65760263D01*
X133732240Y-65766773D01*
X133596694Y-65855641D01*
X133585542Y-65864965D01*
X133471081Y-65985793D01*
X133409712Y-66021491D01*
X133338785Y-66018344D01*
X133280819Y-65977350D01*
X133274237Y-65968226D01*
X133269745Y-65961375D01*
X133269744Y-65961374D01*
X133265731Y-65955253D01*
X133137355Y-65833642D01*
X132984445Y-65744825D01*
X132815204Y-65693567D01*
X132808764Y-65692992D01*
X132808763Y-65692992D01*
X132738815Y-65686749D01*
X132738809Y-65686749D01*
X132736022Y-65686500D01*
X132674925Y-65686500D01*
X132606804Y-65666498D01*
X132585830Y-65649595D01*
X131037638Y-64101404D01*
X131028536Y-64091261D01*
X131022274Y-64083473D01*
X131004118Y-64060891D01*
X130999400Y-64056932D01*
X130999395Y-64056927D01*
X130964452Y-64027607D01*
X130960799Y-64024421D01*
X130959252Y-64023018D01*
X130957059Y-64020825D01*
X130924817Y-63994340D01*
X130923879Y-63993562D01*
X130892813Y-63967495D01*
X130852594Y-63933747D01*
X130847921Y-63931178D01*
X130843805Y-63927797D01*
X130761818Y-63883836D01*
X130760836Y-63883303D01*
X130760129Y-63882914D01*
X130721990Y-63861947D01*
X130684661Y-63841425D01*
X130684659Y-63841424D01*
X130679260Y-63838456D01*
X130674176Y-63836843D01*
X130669483Y-63834327D01*
X130580613Y-63807156D01*
X130579355Y-63806764D01*
X130496594Y-63780511D01*
X130490718Y-63778647D01*
X130485422Y-63778053D01*
X130480326Y-63776495D01*
X130474193Y-63775872D01*
X130474188Y-63775871D01*
X130413983Y-63769756D01*
X130387802Y-63767097D01*
X130386615Y-63766971D01*
X130337845Y-63761500D01*
X130334321Y-63761500D01*
X130333570Y-63761458D01*
X130327871Y-63761009D01*
X130289666Y-63757128D01*
X130289661Y-63757128D01*
X130283538Y-63756506D01*
X130240516Y-63760573D01*
X130236621Y-63760941D01*
X130224763Y-63761500D01*
X128916111Y-63761500D01*
X128874783Y-63754529D01*
X128683719Y-63688180D01*
X128541845Y-63667609D01*
X128480334Y-63658690D01*
X128480331Y-63658690D01*
X128474394Y-63657829D01*
X128263106Y-63667609D01*
X128147285Y-63695522D01*
X128063313Y-63715759D01*
X128063311Y-63715760D01*
X128057480Y-63717165D01*
X128052022Y-63719647D01*
X128052018Y-63719648D01*
X127947649Y-63767102D01*
X127864934Y-63804710D01*
X127692416Y-63927086D01*
X127688267Y-63931420D01*
X127688266Y-63931421D01*
X127550302Y-64075540D01*
X127550298Y-64075545D01*
X127546152Y-64079876D01*
X127542900Y-64084912D01*
X127542898Y-64084915D01*
X127435018Y-64251992D01*
X127431418Y-64257568D01*
X127352354Y-64453749D01*
X127351206Y-64459630D01*
X127351204Y-64459635D01*
X127313123Y-64654637D01*
X127311814Y-64661341D01*
X127311798Y-64667326D01*
X127311798Y-64667330D01*
X127311625Y-64733447D01*
X127311261Y-64872855D01*
X127322636Y-64932767D01*
X127349115Y-65072239D01*
X127350713Y-65080657D01*
X127428748Y-65277249D01*
X127431972Y-65282300D01*
X127431973Y-65282302D01*
X127462725Y-65330480D01*
X127542550Y-65455539D01*
X127688013Y-65609093D01*
X127692878Y-65612583D01*
X127692881Y-65612585D01*
X127809085Y-65695932D01*
X127859887Y-65732370D01*
X127920392Y-65760263D01*
X128040005Y-65815405D01*
X128051972Y-65820922D01*
X128057788Y-65822356D01*
X128057791Y-65822357D01*
X128129712Y-65840089D01*
X128257337Y-65871555D01*
X128263327Y-65871864D01*
X128263329Y-65871864D01*
X128337698Y-65875696D01*
X128468570Y-65882440D01*
X128474505Y-65881611D01*
X128474509Y-65881611D01*
X128660471Y-65855641D01*
X128678051Y-65853186D01*
X128877020Y-65785258D01*
X128917729Y-65778500D01*
X129810075Y-65778500D01*
X129878196Y-65798502D01*
X129899170Y-65815405D01*
X130050170Y-65966405D01*
X130084196Y-66028717D01*
X130079131Y-66099532D01*
X130036584Y-66156368D01*
X129970064Y-66181179D01*
X129961075Y-66181500D01*
X121874500Y-66181500D01*
X121806379Y-66161498D01*
X121759886Y-66107842D01*
X121748500Y-66055500D01*
X121748500Y-64744270D01*
X121762788Y-64685992D01*
X121768914Y-64674249D01*
X121768917Y-64674241D01*
X121771690Y-64668926D01*
X121773416Y-64663157D01*
X121814601Y-64525440D01*
X121832294Y-64466280D01*
X121853485Y-64255830D01*
X121853500Y-64250000D01*
X121851010Y-64223895D01*
X121833981Y-64045416D01*
X121833411Y-64039442D01*
X121819300Y-63991343D01*
X121775557Y-63842235D01*
X121775556Y-63842233D01*
X121773869Y-63836482D01*
X121767174Y-63823482D01*
X121679768Y-63653773D01*
X121679766Y-63653770D01*
X121677022Y-63648442D01*
X121546365Y-63482109D01*
X121539907Y-63476505D01*
X121391144Y-63347413D01*
X121391139Y-63347409D01*
X121386613Y-63343482D01*
X121203529Y-63237566D01*
X121106907Y-63204013D01*
X121009393Y-63170150D01*
X121009390Y-63170149D01*
X121003719Y-63168180D01*
X120861845Y-63147609D01*
X120800334Y-63138690D01*
X120800331Y-63138690D01*
X120794394Y-63137829D01*
X120583106Y-63147609D01*
X120458310Y-63177685D01*
X120383313Y-63195759D01*
X120383311Y-63195760D01*
X120377480Y-63197165D01*
X120372022Y-63199647D01*
X120372018Y-63199648D01*
X120292957Y-63235595D01*
X120184934Y-63284710D01*
X120012416Y-63407086D01*
X120008267Y-63411420D01*
X120008266Y-63411421D01*
X119870302Y-63555540D01*
X119870298Y-63555545D01*
X119866152Y-63559876D01*
X119862900Y-63564912D01*
X119862898Y-63564915D01*
X119754670Y-63732531D01*
X119751418Y-63737568D01*
X119672354Y-63933749D01*
X119671206Y-63939630D01*
X119671204Y-63939635D01*
X119634833Y-64125880D01*
X119631814Y-64141341D01*
X119631798Y-64147326D01*
X119631798Y-64147330D01*
X119631580Y-64230744D01*
X119631261Y-64352855D01*
X119646725Y-64434305D01*
X119669446Y-64553982D01*
X119670713Y-64560657D01*
X119721584Y-64688815D01*
X119722611Y-64691402D01*
X119731500Y-64737888D01*
X119731500Y-66055500D01*
X119711498Y-66123621D01*
X119657842Y-66170114D01*
X119605500Y-66181500D01*
X116189500Y-66181500D01*
X116121379Y-66161498D01*
X116074886Y-66107842D01*
X116063500Y-66055500D01*
X116063500Y-64987948D01*
X116064237Y-64974340D01*
X116067779Y-64941738D01*
X116067779Y-64941734D01*
X116068444Y-64935613D01*
X116067907Y-64929474D01*
X116067907Y-64929469D01*
X116063934Y-64884057D01*
X116063604Y-64879221D01*
X116063500Y-64877091D01*
X116063500Y-64874006D01*
X116059424Y-64832435D01*
X116059307Y-64831173D01*
X116059148Y-64829349D01*
X116053682Y-64766880D01*
X116051742Y-64744700D01*
X116051742Y-64744697D01*
X116051205Y-64738565D01*
X116049718Y-64733447D01*
X116049198Y-64728143D01*
X116045782Y-64716827D01*
X116042845Y-64707101D01*
X116024864Y-64647548D01*
X116519000Y-64647548D01*
X116519000Y-65344885D01*
X116523475Y-65360124D01*
X116524865Y-65361329D01*
X116531847Y-65362847D01*
X116536527Y-65362575D01*
X116652505Y-65349054D01*
X116666657Y-65345709D01*
X116813567Y-65292383D01*
X116826566Y-65285873D01*
X116957270Y-65200180D01*
X116968422Y-65190856D01*
X117075906Y-65077393D01*
X117084617Y-65065748D01*
X117163113Y-64930607D01*
X117168913Y-64917269D01*
X117214461Y-64766880D01*
X117216911Y-64754248D01*
X117222751Y-64688815D01*
X117223000Y-64683220D01*
X117223000Y-64652115D01*
X117218525Y-64636876D01*
X117217135Y-64635671D01*
X117209452Y-64634000D01*
X116537115Y-64634000D01*
X116521876Y-64638475D01*
X116520671Y-64639865D01*
X116519000Y-64647548D01*
X116024864Y-64647548D01*
X116022302Y-64639062D01*
X116022001Y-64638047D01*
X116016002Y-64617395D01*
X116011000Y-64582247D01*
X116011000Y-64252000D01*
X116031002Y-64183879D01*
X116084658Y-64137386D01*
X116137000Y-64126000D01*
X117204885Y-64126000D01*
X117220124Y-64121525D01*
X117221329Y-64120135D01*
X117223000Y-64112452D01*
X117223000Y-64090777D01*
X117222575Y-64083473D01*
X117209054Y-63967495D01*
X117205709Y-63953343D01*
X117152383Y-63806433D01*
X117145873Y-63793434D01*
X117060180Y-63662730D01*
X117050856Y-63651578D01*
X116937393Y-63544094D01*
X116925748Y-63535383D01*
X116790607Y-63456887D01*
X116777269Y-63451088D01*
X116638825Y-63409157D01*
X116579427Y-63370268D01*
X116550483Y-63305439D01*
X116554757Y-63252045D01*
X116564067Y-63221303D01*
X116566516Y-63208677D01*
X116572751Y-63138816D01*
X116573000Y-63133221D01*
X116573000Y-63102115D01*
X116568525Y-63086876D01*
X116567135Y-63085671D01*
X116559452Y-63084000D01*
X115212000Y-63084000D01*
X115143879Y-63063998D01*
X115097386Y-63010342D01*
X115090322Y-62977868D01*
X131886616Y-62977868D01*
X131903166Y-63264892D01*
X131903991Y-63269097D01*
X131903992Y-63269105D01*
X131933101Y-63417472D01*
X131958516Y-63547014D01*
X131959903Y-63551065D01*
X132047932Y-63808177D01*
X132051642Y-63819014D01*
X132104750Y-63924608D01*
X132178109Y-64070464D01*
X132180822Y-64075859D01*
X132226634Y-64142516D01*
X132332259Y-64296201D01*
X132343664Y-64312796D01*
X132537155Y-64525440D01*
X132757716Y-64709857D01*
X132761357Y-64712141D01*
X132997624Y-64860352D01*
X132997628Y-64860354D01*
X133001264Y-64862635D01*
X133263293Y-64980945D01*
X133267412Y-64982165D01*
X133534841Y-65061382D01*
X133534846Y-65061383D01*
X133538954Y-65062600D01*
X133543188Y-65063248D01*
X133543193Y-65063249D01*
X133780336Y-65099537D01*
X133823147Y-65106088D01*
X133969498Y-65108387D01*
X134106321Y-65110537D01*
X134106327Y-65110537D01*
X134110612Y-65110604D01*
X134114864Y-65110089D01*
X134114872Y-65110089D01*
X134358076Y-65080657D01*
X134396030Y-65076064D01*
X134400179Y-65074976D01*
X134400182Y-65074975D01*
X134669970Y-65004198D01*
X134674121Y-65003109D01*
X134939736Y-64893087D01*
X134963671Y-64879101D01*
X135184255Y-64750202D01*
X135184257Y-64750200D01*
X135187963Y-64748035D01*
X135414208Y-64570637D01*
X135418457Y-64566253D01*
X135543099Y-64437632D01*
X135614283Y-64364175D01*
X135616816Y-64360727D01*
X135616820Y-64360722D01*
X135781949Y-64135925D01*
X135784487Y-64132470D01*
X135790430Y-64121525D01*
X135919621Y-63883585D01*
X135919622Y-63883583D01*
X135921671Y-63879809D01*
X136001855Y-63667609D01*
X136021777Y-63614887D01*
X136021778Y-63614883D01*
X136023295Y-63610869D01*
X136052785Y-63482109D01*
X136086521Y-63334808D01*
X136086522Y-63334804D01*
X136087479Y-63330624D01*
X136087912Y-63325781D01*
X136112816Y-63046728D01*
X136112816Y-63046726D01*
X136113036Y-63044262D01*
X136113500Y-63000000D01*
X136111678Y-62973267D01*
X136094238Y-62717442D01*
X136094237Y-62717436D01*
X136093946Y-62713165D01*
X136092645Y-62706880D01*
X136053296Y-62516876D01*
X136035644Y-62431638D01*
X135939674Y-62160628D01*
X135807812Y-61905150D01*
X135642498Y-61669931D01*
X135631517Y-61658114D01*
X135449711Y-61462468D01*
X135449708Y-61462466D01*
X135446790Y-61459325D01*
X135443474Y-61456611D01*
X135443471Y-61456608D01*
X135227629Y-61279942D01*
X135227622Y-61279937D01*
X135224311Y-61277227D01*
X134979176Y-61127009D01*
X134975240Y-61125281D01*
X134719851Y-61013172D01*
X134719847Y-61013171D01*
X134715923Y-61011448D01*
X134439421Y-60932685D01*
X134227336Y-60902501D01*
X134159041Y-60892781D01*
X134159039Y-60892781D01*
X134154789Y-60892176D01*
X134003976Y-60891387D01*
X133871579Y-60890693D01*
X133871573Y-60890693D01*
X133867292Y-60890671D01*
X133863048Y-60891230D01*
X133863044Y-60891230D01*
X133777433Y-60902501D01*
X133582251Y-60928197D01*
X133578111Y-60929330D01*
X133578109Y-60929330D01*
X133309085Y-61002927D01*
X133304940Y-61004061D01*
X133274889Y-61016879D01*
X133044433Y-61115176D01*
X133044426Y-61115180D01*
X133040491Y-61116858D01*
X133036810Y-61119061D01*
X132797479Y-61262297D01*
X132797475Y-61262300D01*
X132793797Y-61264501D01*
X132790454Y-61267179D01*
X132790450Y-61267182D01*
X132742390Y-61305686D01*
X132569423Y-61444259D01*
X132566479Y-61447361D01*
X132566475Y-61447365D01*
X132378513Y-61645435D01*
X132371520Y-61652804D01*
X132203752Y-61886279D01*
X132069222Y-62140362D01*
X131970419Y-62410352D01*
X131909173Y-62691254D01*
X131908837Y-62695524D01*
X131891033Y-62921751D01*
X131886616Y-62977868D01*
X115090322Y-62977868D01*
X115086000Y-62958000D01*
X115086000Y-62702000D01*
X115106002Y-62633879D01*
X115159658Y-62587386D01*
X115212000Y-62576000D01*
X116554885Y-62576000D01*
X116570124Y-62571525D01*
X116571329Y-62570135D01*
X116573000Y-62562452D01*
X116573000Y-62540777D01*
X116572576Y-62533476D01*
X116558383Y-62411745D01*
X116555037Y-62397590D01*
X116499737Y-62245239D01*
X116493227Y-62232240D01*
X116404359Y-62096694D01*
X116395035Y-62085542D01*
X116274207Y-61971081D01*
X116238509Y-61909712D01*
X116241656Y-61838785D01*
X116282650Y-61780819D01*
X116291774Y-61774237D01*
X116298625Y-61769745D01*
X116298626Y-61769744D01*
X116304747Y-61765731D01*
X116426358Y-61637355D01*
X116515175Y-61484445D01*
X116566433Y-61315204D01*
X116567056Y-61308220D01*
X116573251Y-61238815D01*
X116573251Y-61238809D01*
X116573500Y-61236022D01*
X116573500Y-60637114D01*
X116573075Y-60633473D01*
X116572864Y-60629834D01*
X116574680Y-60629728D01*
X116585577Y-60566816D01*
X116633592Y-60514517D01*
X116698641Y-60496427D01*
X133419933Y-60496427D01*
X133440787Y-60498165D01*
G37*
%TD.AperFunction*%
%TA.AperFunction,Conductor*%
G36*
X112074317Y-65100518D02*
G01*
X112129218Y-65136004D01*
X112129796Y-65136846D01*
X112189733Y-65190248D01*
X112227287Y-65250496D01*
X112226307Y-65321486D01*
X112214865Y-65347608D01*
X112181636Y-65404815D01*
X112130125Y-65453673D01*
X112060377Y-65466927D01*
X111994535Y-65440367D01*
X111975040Y-65421164D01*
X111954096Y-65395484D01*
X111953692Y-65394985D01*
X111906498Y-65336289D01*
X111879403Y-65270668D01*
X111892086Y-65200814D01*
X111910619Y-65173521D01*
X111934696Y-65146498D01*
X111943077Y-65137092D01*
X112003327Y-65099537D01*
X112074317Y-65100518D01*
G37*
%TD.AperFunction*%
%TA.AperFunction,Conductor*%
G36*
X107781541Y-64177513D02*
G01*
X107802515Y-64194416D01*
X108086220Y-64478121D01*
X108095322Y-64488263D01*
X108119736Y-64518629D01*
X108124453Y-64522587D01*
X108124455Y-64522589D01*
X108159388Y-64551901D01*
X108163037Y-64555084D01*
X108164604Y-64556505D01*
X108166795Y-64558696D01*
X108199020Y-64585165D01*
X108200035Y-64586008D01*
X108210090Y-64594445D01*
X108271260Y-64645773D01*
X108275933Y-64648342D01*
X108280049Y-64651723D01*
X108297530Y-64661096D01*
X108298699Y-64661723D01*
X108328253Y-64683672D01*
X108655807Y-65011226D01*
X108689833Y-65073538D01*
X108684768Y-65144353D01*
X108653285Y-65191869D01*
X108595655Y-65246367D01*
X108587350Y-65255989D01*
X108569596Y-65281343D01*
X108514139Y-65325671D01*
X108443519Y-65332979D01*
X108398873Y-65315458D01*
X108246615Y-65218831D01*
X108108338Y-65169593D01*
X108050875Y-65127900D01*
X108029703Y-65086368D01*
X108023869Y-65066482D01*
X107979439Y-64980216D01*
X107929768Y-64883773D01*
X107929766Y-64883770D01*
X107927022Y-64878442D01*
X107796365Y-64712109D01*
X107790594Y-64707101D01*
X107641144Y-64577413D01*
X107641139Y-64577409D01*
X107636613Y-64573482D01*
X107453529Y-64467566D01*
X107266267Y-64402538D01*
X107208479Y-64361297D01*
X107182160Y-64295358D01*
X107195668Y-64225659D01*
X107244715Y-64174327D01*
X107307602Y-64157511D01*
X107713420Y-64157511D01*
X107781541Y-64177513D01*
G37*
%TD.AperFunction*%
%TA.AperFunction,Conductor*%
G36*
X103832219Y-63872905D02*
G01*
X103833383Y-63873029D01*
X103882155Y-63878500D01*
X103885679Y-63878500D01*
X103886430Y-63878542D01*
X103892129Y-63878991D01*
X103930334Y-63882872D01*
X103930339Y-63882872D01*
X103936462Y-63883494D01*
X103983378Y-63879059D01*
X103995237Y-63878500D01*
X106500095Y-63878500D01*
X106568216Y-63898502D01*
X106580072Y-63907137D01*
X106601341Y-63924608D01*
X106602355Y-63925449D01*
X106673640Y-63985264D01*
X106678313Y-63987833D01*
X106682429Y-63991214D01*
X106764416Y-64035175D01*
X106765364Y-64035690D01*
X106789474Y-64048944D01*
X106837852Y-64075540D01*
X106846974Y-64080555D01*
X106852058Y-64082168D01*
X106856751Y-64084684D01*
X106906931Y-64100026D01*
X106945621Y-64111855D01*
X106946879Y-64112247D01*
X106989858Y-64125880D01*
X107048741Y-64165543D01*
X107076834Y-64230744D01*
X107065217Y-64300784D01*
X107017578Y-64353425D01*
X106957585Y-64371847D01*
X106910277Y-64374037D01*
X106833106Y-64377609D01*
X106710098Y-64407254D01*
X106633313Y-64425759D01*
X106633311Y-64425760D01*
X106627480Y-64427165D01*
X106622022Y-64429647D01*
X106622018Y-64429648D01*
X106454799Y-64505678D01*
X106384508Y-64515664D01*
X106319977Y-64486064D01*
X106309018Y-64475294D01*
X106251251Y-64411137D01*
X106245909Y-64407256D01*
X106245907Y-64407254D01*
X106102092Y-64302767D01*
X106102091Y-64302766D01*
X106096750Y-64298886D01*
X106090722Y-64296202D01*
X106090720Y-64296201D01*
X105928318Y-64223895D01*
X105928317Y-64223895D01*
X105922287Y-64221210D01*
X105796233Y-64194416D01*
X105741944Y-64182876D01*
X105741939Y-64182876D01*
X105735487Y-64181504D01*
X105544513Y-64181504D01*
X105538061Y-64182876D01*
X105538056Y-64182876D01*
X105483767Y-64194416D01*
X105357713Y-64221210D01*
X105351683Y-64223895D01*
X105351682Y-64223895D01*
X105189280Y-64296201D01*
X105189278Y-64296202D01*
X105183250Y-64298886D01*
X105177909Y-64302766D01*
X105177908Y-64302767D01*
X105034093Y-64407254D01*
X105034091Y-64407256D01*
X105028749Y-64411137D01*
X105024331Y-64416044D01*
X105024327Y-64416048D01*
X104934633Y-64515664D01*
X104900963Y-64553058D01*
X104805476Y-64718446D01*
X104803435Y-64724727D01*
X104800749Y-64730760D01*
X104799567Y-64730234D01*
X104763453Y-64783047D01*
X104698056Y-64810683D01*
X104683695Y-64811504D01*
X104494513Y-64811504D01*
X104488061Y-64812876D01*
X104488056Y-64812876D01*
X104410560Y-64829349D01*
X104307713Y-64851210D01*
X104301683Y-64853895D01*
X104301682Y-64853895D01*
X104139280Y-64926201D01*
X104139278Y-64926202D01*
X104133250Y-64928886D01*
X104038042Y-64998058D01*
X103971175Y-65021917D01*
X103902024Y-65005836D01*
X103852543Y-64954922D01*
X103838616Y-64883499D01*
X103853176Y-64738897D01*
X103853485Y-64735830D01*
X103853500Y-64730000D01*
X103852947Y-64724198D01*
X103833981Y-64525416D01*
X103833411Y-64519442D01*
X103822397Y-64481900D01*
X103775557Y-64322235D01*
X103775556Y-64322233D01*
X103773869Y-64316482D01*
X103770152Y-64309265D01*
X103679768Y-64133773D01*
X103679766Y-64133770D01*
X103677022Y-64128442D01*
X103645772Y-64088659D01*
X103628575Y-64066766D01*
X103602225Y-64000840D01*
X103615700Y-63931134D01*
X103664722Y-63879779D01*
X103740394Y-63863578D01*
X103832219Y-63872905D01*
G37*
%TD.AperFunction*%
%TD*%
M02*
