M48
; DRILL file {KiCad 5.99.0-unknown-a8672dd2f9~128~ubuntu20.04.1} date Sun May  9 18:34:23 2021
; FORMAT={-:-/ absolute / inch / decimal}
; #@! TF.CreationDate,2021-05-09T18:34:23+01:00
; #@! TF.GenerationSoftware,Kicad,Pcbnew,5.99.0-unknown-a8672dd2f9~128~ubuntu20.04.1
; #@! TF.FileFunction,MixedPlating,1,2
FMAT,2
INCH
; #@! TA.AperFunction,Plated,PTH,ViaDrill
T1C0.0157
; #@! TA.AperFunction,Plated,PTH,ComponentDrill
T2C0.0236
; #@! TA.AperFunction,Plated,PTH,ComponentDrill
T3C0.0256
; #@! TA.AperFunction,Plated,PTH,ComponentDrill
T4C0.0276
; #@! TA.AperFunction,Plated,PTH,ViaDrill
T5C0.0315
; #@! TA.AperFunction,Plated,PTH,ComponentDrill
T6C0.0362
; #@! TA.AperFunction,Plated,PTH,ComponentDrill
T7C0.0906
; #@! TA.AperFunction,NonPlated,NPTH,ComponentDrill
T8C0.0236
; #@! TA.AperFunction,NonPlated,NPTH,ComponentDrill
T9C0.0276
; #@! TA.AperFunction,NonPlated,NPTH,ComponentDrill
T10C0.0984
%
G90
G05
T1
X3.0622Y-2.8268
X3.0929Y-2.4146
X3.2378Y-2.4567
X3.272Y-2.7512
X3.4768Y-2.75
X3.6272Y-2.4504
X3.7358Y-3.3098
X3.7425Y-2.8898
X3.7441Y-2.9795
X3.7594Y-2.5079
X3.7724Y-3.0169
X3.7748Y-3.2728
X3.8102Y-3.0618
X3.8106Y-2.8882
X3.8579Y-3.087
X3.8783Y-2.762
X3.9055Y-2.8551
X3.9441Y-2.7004
X4.0051Y-3.3118
X4.0201Y-2.689
X4.0366Y-2.835
X4.0528Y-3.2697
X4.0594Y-2.7994
X4.0905Y-2.8936
X4.0913Y-3.1043
X4.0917Y-2.7673
X4.1047Y-2.9303
X4.1177Y-2.5874
X4.1213Y-2.7335
X4.1327Y-3.1209
X4.1547Y-2.7634
X4.1591Y-2.5626
X4.1667Y-2.7245
X4.1979Y-2.7004
X4.2736Y-2.7583
X4.2774Y-3.2593
X4.313Y-2.7621
X4.3146Y-2.9547
X4.3567Y-2.924
X4.3795Y-2.5118
X4.413Y-2.7996
X4.4189Y-2.5815
X4.4705Y-2.9791
X4.5776Y-3.1453
X4.578Y-3.0567
X4.6291Y-2.5469
X4.7008Y-3.0811
X4.7008Y-3.1642
X4.9004Y-2.7689
X5.0146Y-3.1776
X5.0177Y-3.2425
X5.0902Y-3.1791
X5.0913Y-3.2413
X5.2102Y-2.9161
X5.2622Y-3.1713
X5.3681Y-2.5886
X5.374Y-2.7606
X5.3748Y-3.0752
T5
X3.2138Y-3.1406
X3.6724Y-3.0665
X3.6736Y-3.1327
X3.6736Y-3.1937
X3.7807Y-2.7878
X3.9606Y-3.1488
X4.013Y-2.3961
X4.0272Y-3.0874
X4.0449Y-2.5484
X4.2122Y-2.578
X4.2469Y-2.435
X4.3812Y-3.0472
X4.3878Y-3.2728
X4.5355Y-3.226
X4.7535Y-2.5295
X4.8Y-3.1642
X4.8008Y-2.989
X4.8016Y-3.0795
X5.0559Y-2.55
T6
X3.2677Y-2.874
X3.3661Y-2.874
X3.4449Y-2.874
X3.5433Y-2.874
X4.7244Y-2.874
X4.8228Y-2.874
X4.9016Y-2.874
X5.0Y-2.874
T7
X3.1469Y-2.7673
X3.6642Y-2.7673
X4.6035Y-2.7673
X5.1209Y-2.7673
T8
X4.0201Y-2.5965
X4.2476Y-2.5965
T9
X2.8898Y-2.6437
X2.8898Y-2.7106
T10
X2.9921Y-2.4803
X5.2756Y-2.4803
T2
G00X3.9638Y-2.4354
M15
G01X3.9638Y-2.4669
M16
G05
G00X3.9638Y-2.5937
M15
G01X3.9638Y-2.637
M16
G05
G00X4.3039Y-2.4354
M15
G01X4.3039Y-2.4669
M16
G05
G00X4.3039Y-2.5937
M15
G01X4.3039Y-2.637
M16
G05
T3
G00X3.0348Y-2.9819
M15
G01X3.0506Y-2.9819
M16
G05
G00X3.0348Y-3.1724
M15
G01X3.0506Y-3.1724
M16
G05
T4
G00X2.9148Y-2.9697
M15
G01X2.9344Y-2.9697
M16
G05
G00X2.9148Y-3.1846
M15
G01X2.9344Y-3.1846
M16
G05
T0
M30
