%TF.GenerationSoftware,KiCad,Pcbnew,5.99.0-unknown-a8672dd2f9~128~ubuntu20.04.1*%
%TF.CreationDate,2021-05-09T18:34:13+01:00*%
%TF.ProjectId,usbpd_powerbank,75736270-645f-4706-9f77-657262616e6b,rev?*%
%TF.SameCoordinates,Original*%
%TF.FileFunction,Paste,Top*%
%TF.FilePolarity,Positive*%
%FSLAX46Y46*%
G04 Gerber Fmt 4.6, Leading zero omitted, Abs format (unit mm)*
G04 Created by KiCad (PCBNEW 5.99.0-unknown-a8672dd2f9~128~ubuntu20.04.1) date 2021-05-09 18:34:13*
%MOMM*%
%LPD*%
G01*
G04 APERTURE LIST*
G04 Aperture macros list*
%AMRoundRect*
0 Rectangle with rounded corners*
0 $1 Rounding radius*
0 $2 $3 $4 $5 $6 $7 $8 $9 X,Y pos of 4 corners*
0 Add a 4 corners polygon primitive as box body*
4,1,4,$2,$3,$4,$5,$6,$7,$8,$9,$2,$3,0*
0 Add four circle primitives for the rounded corners*
1,1,$1+$1,$2,$3*
1,1,$1+$1,$4,$5*
1,1,$1+$1,$6,$7*
1,1,$1+$1,$8,$9*
0 Add four rect primitives between the rounded corners*
20,1,$1+$1,$2,$3,$4,$5,0*
20,1,$1+$1,$4,$5,$6,$7,0*
20,1,$1+$1,$6,$7,$8,$9,0*
20,1,$1+$1,$8,$9,$2,$3,0*%
G04 Aperture macros list end*
%ADD10RoundRect,0.250000X-0.475000X0.250000X-0.475000X-0.250000X0.475000X-0.250000X0.475000X0.250000X0*%
%ADD11R,0.900000X0.800000*%
%ADD12RoundRect,0.200000X-0.335876X-0.053033X-0.053033X-0.335876X0.335876X0.053033X0.053033X0.335876X0*%
%ADD13RoundRect,0.225000X0.225000X0.250000X-0.225000X0.250000X-0.225000X-0.250000X0.225000X-0.250000X0*%
%ADD14RoundRect,0.200000X-0.200000X-0.275000X0.200000X-0.275000X0.200000X0.275000X-0.200000X0.275000X0*%
%ADD15RoundRect,0.218750X0.256250X-0.218750X0.256250X0.218750X-0.256250X0.218750X-0.256250X-0.218750X0*%
%ADD16RoundRect,0.250000X0.250000X0.475000X-0.250000X0.475000X-0.250000X-0.475000X0.250000X-0.475000X0*%
%ADD17RoundRect,0.250000X-0.250000X-0.475000X0.250000X-0.475000X0.250000X0.475000X-0.250000X0.475000X0*%
%ADD18R,0.800000X0.900000*%
%ADD19RoundRect,0.225000X-0.225000X-0.250000X0.225000X-0.250000X0.225000X0.250000X-0.225000X0.250000X0*%
%ADD20R,0.600000X1.160000*%
%ADD21R,0.300000X1.160000*%
%ADD22RoundRect,0.250000X-0.450000X0.262500X-0.450000X-0.262500X0.450000X-0.262500X0.450000X0.262500X0*%
%ADD23RoundRect,0.200000X-0.275000X0.200000X-0.275000X-0.200000X0.275000X-0.200000X0.275000X0.200000X0*%
%ADD24RoundRect,0.225000X-0.017678X0.335876X-0.335876X0.017678X0.017678X-0.335876X0.335876X-0.017678X0*%
%ADD25RoundRect,0.200000X0.275000X-0.200000X0.275000X0.200000X-0.275000X0.200000X-0.275000X-0.200000X0*%
%ADD26RoundRect,0.232500X0.000000X-0.328805X0.328805X0.000000X0.000000X0.328805X-0.328805X0.000000X0*%
%ADD27RoundRect,0.062500X-0.203293X-0.291682X0.291682X0.203293X0.203293X0.291682X-0.291682X-0.203293X0*%
%ADD28RoundRect,0.062500X0.203293X-0.291682X0.291682X-0.203293X-0.203293X0.291682X-0.291682X0.203293X0*%
%ADD29R,1.200000X0.900000*%
%ADD30R,1.300000X1.150000*%
%ADD31RoundRect,0.200000X0.200000X0.275000X-0.200000X0.275000X-0.200000X-0.275000X0.200000X-0.275000X0*%
%ADD32RoundRect,0.218750X0.218750X0.256250X-0.218750X0.256250X-0.218750X-0.256250X0.218750X-0.256250X0*%
%ADD33RoundRect,0.250000X0.475000X-0.250000X0.475000X0.250000X-0.475000X0.250000X-0.475000X-0.250000X0*%
%ADD34RoundRect,0.250000X-0.662913X-0.220971X-0.220971X-0.662913X0.662913X0.220971X0.220971X0.662913X0*%
%ADD35R,3.500000X4.000000*%
%ADD36R,1.650000X0.400000*%
%ADD37R,1.500000X2.000000*%
%ADD38R,0.700000X1.825000*%
%ADD39R,2.500000X1.430000*%
%ADD40R,2.000000X1.350000*%
G04 APERTURE END LIST*
D10*
%TO.C,C16*%
X84000000Y-79930000D03*
X84000000Y-81830000D03*
%TD*%
%TO.C,C3*%
X115340000Y-60930000D03*
X115340000Y-62830000D03*
%TD*%
D11*
%TO.C,Q4*%
X84550000Y-77300000D03*
X84550000Y-75400000D03*
X82550000Y-76350000D03*
%TD*%
D12*
%TO.C,R6*%
X114736637Y-74966637D03*
X115903363Y-76133363D03*
%TD*%
D13*
%TO.C,C9*%
X119035000Y-75390000D03*
X117485000Y-75390000D03*
%TD*%
D14*
%TO.C,R7*%
X111375000Y-81800000D03*
X113025000Y-81800000D03*
%TD*%
D15*
%TO.C,D4*%
X136500000Y-72787500D03*
X136500000Y-71212500D03*
%TD*%
D16*
%TO.C,C7*%
X130800000Y-75790000D03*
X128900000Y-75790000D03*
%TD*%
D17*
%TO.C,C17*%
X117530000Y-77190000D03*
X119430000Y-77190000D03*
%TD*%
%TO.C,C1*%
X132430000Y-66920000D03*
X134330000Y-66920000D03*
%TD*%
%TO.C,C10*%
X117480000Y-81450000D03*
X119380000Y-81450000D03*
%TD*%
D16*
%TO.C,C2*%
X98470000Y-68930000D03*
X96570000Y-68930000D03*
%TD*%
D15*
%TO.C,D2*%
X136520000Y-80787500D03*
X136520000Y-79212500D03*
%TD*%
D18*
%TO.C,Q3*%
X111250000Y-62870000D03*
X113150000Y-62870000D03*
X112200000Y-60870000D03*
%TD*%
D19*
%TO.C,C8*%
X114715000Y-64380000D03*
X116265000Y-64380000D03*
%TD*%
D15*
%TO.C,D3*%
X136500000Y-68787500D03*
X136500000Y-67212500D03*
%TD*%
D11*
%TO.C,Q1*%
X127000000Y-77510000D03*
X127000000Y-75610000D03*
X125000000Y-76560000D03*
%TD*%
D20*
%TO.C,P1*%
X108200000Y-67010000D03*
X107400000Y-67010000D03*
D21*
X106250000Y-67010000D03*
X105250000Y-67010000D03*
X104750000Y-67010000D03*
X103750000Y-67010000D03*
D20*
X102600000Y-67010000D03*
X101800000Y-67010000D03*
X101800000Y-67010000D03*
X102600000Y-67010000D03*
D21*
X103250000Y-67010000D03*
X104250000Y-67010000D03*
X105750000Y-67010000D03*
X106750000Y-67010000D03*
D20*
X107400000Y-67010000D03*
X108200000Y-67010000D03*
%TD*%
D10*
%TO.C,C18*%
X86060000Y-79930000D03*
X86060000Y-81830000D03*
%TD*%
D22*
%TO.C,TH1*%
X109710000Y-80957500D03*
X109710000Y-82782500D03*
%TD*%
D23*
%TO.C,R5*%
X107780000Y-81135000D03*
X107780000Y-82785000D03*
%TD*%
D10*
%TO.C,C14*%
X88130000Y-79930000D03*
X88130000Y-81830000D03*
%TD*%
D14*
%TO.C,R9*%
X96670000Y-63730000D03*
X98320000Y-63730000D03*
%TD*%
D24*
%TO.C,C11*%
X113448008Y-77101992D03*
X112351992Y-78198008D03*
%TD*%
D11*
%TO.C,Q2*%
X98510000Y-73180000D03*
X98510000Y-71280000D03*
X96510000Y-72230000D03*
%TD*%
D25*
%TO.C,R10*%
X133950000Y-70325000D03*
X133950000Y-68675000D03*
%TD*%
D26*
%TO.C,U1*%
X108520000Y-71990482D03*
X109333173Y-74430000D03*
X110146346Y-73616827D03*
X109333173Y-72803654D03*
X108520000Y-73616827D03*
X107706827Y-72803654D03*
X110959518Y-74430000D03*
X110146346Y-75243173D03*
X108520000Y-76869518D03*
X106893654Y-75243173D03*
X107706827Y-76056346D03*
X107706827Y-74430000D03*
X109333173Y-76056346D03*
X106080482Y-74430000D03*
X106893654Y-73616827D03*
X108520000Y-75243173D03*
D27*
X104851884Y-74916136D03*
X105205437Y-75269689D03*
X105558990Y-75623243D03*
X105912544Y-75976796D03*
X106266097Y-76330349D03*
X106619651Y-76683903D03*
X106973204Y-77037456D03*
X107326757Y-77391010D03*
X107680311Y-77744563D03*
X108033864Y-78098116D03*
D28*
X109006136Y-78098116D03*
X109359689Y-77744563D03*
X109713243Y-77391010D03*
X110066796Y-77037456D03*
X110420349Y-76683903D03*
X110773903Y-76330349D03*
X111127456Y-75976796D03*
X111481010Y-75623243D03*
X111834563Y-75269689D03*
X112188116Y-74916136D03*
D27*
X112188116Y-73943864D03*
X111834563Y-73590311D03*
X111481010Y-73236757D03*
X111127456Y-72883204D03*
X110773903Y-72529651D03*
X110420349Y-72176097D03*
X110066796Y-71822544D03*
X109713243Y-71468990D03*
X109359689Y-71115437D03*
X109006136Y-70761884D03*
D28*
X108033864Y-70761884D03*
X107680311Y-71115437D03*
X107326757Y-71468990D03*
X106973204Y-71822544D03*
X106619651Y-72176097D03*
X106266097Y-72529651D03*
X105912544Y-72883204D03*
X105558990Y-73236757D03*
X105205437Y-73590311D03*
X104851884Y-73943864D03*
%TD*%
D16*
%TO.C,C4*%
X81010000Y-75580000D03*
X79110000Y-75580000D03*
%TD*%
%TO.C,C12*%
X106110000Y-80940000D03*
X104210000Y-80940000D03*
%TD*%
%TO.C,C15*%
X106060000Y-83050000D03*
X104160000Y-83050000D03*
%TD*%
D29*
%TO.C,SW1*%
X73400000Y-70300000D03*
X73400000Y-65700000D03*
D30*
X75000000Y-69675000D03*
X75000000Y-66325000D03*
%TD*%
D31*
%TO.C,R1*%
X78165000Y-73120000D03*
X76515000Y-73120000D03*
%TD*%
D32*
%TO.C,D5*%
X97467500Y-60860000D03*
X95892500Y-60860000D03*
%TD*%
D33*
%TO.C,C6*%
X113350000Y-67870000D03*
X113350000Y-65970000D03*
%TD*%
D34*
%TO.C,R4*%
X113945856Y-71305856D03*
X116014144Y-73374144D03*
%TD*%
D17*
%TO.C,C13*%
X117520000Y-79300000D03*
X119420000Y-79300000D03*
%TD*%
D10*
%TO.C,C19*%
X90180000Y-79930000D03*
X90180000Y-81830000D03*
%TD*%
D16*
%TO.C,C5*%
X111170000Y-68620000D03*
X109270000Y-68620000D03*
%TD*%
D35*
%TO.C,L1*%
X101310000Y-79570000D03*
X93310000Y-79570000D03*
%TD*%
D14*
%TO.C,R8*%
X111885000Y-80150000D03*
X113535000Y-80150000D03*
%TD*%
D15*
%TO.C,D1*%
X136510000Y-76787500D03*
X136510000Y-75212500D03*
%TD*%
D36*
%TO.C,J3*%
X77165000Y-76860000D03*
X77165000Y-77510000D03*
X77165000Y-78160000D03*
X77165000Y-78810000D03*
X77165000Y-79460000D03*
D37*
X77265000Y-75310000D03*
D38*
X75965000Y-75210000D03*
X75965000Y-81160000D03*
D39*
X74015000Y-77200000D03*
D37*
X77285000Y-81060000D03*
D39*
X74015000Y-79120000D03*
D40*
X75215000Y-75430000D03*
X75215000Y-80910000D03*
%TD*%
D31*
%TO.C,R2*%
X112865000Y-64390000D03*
X111215000Y-64390000D03*
%TD*%
D23*
%TO.C,R3*%
X86120000Y-75565000D03*
X86120000Y-77215000D03*
%TD*%
M02*
